<svg width="44" height="43" viewBox="0 0 44 43" fill="none" xmlns="http://www.w3.org/2000/svg">
<path d="M42.876 0H17.1321C16.8359 0.000830341 16.5521 0.118783 16.3427 0.328098C16.1332 0.537412 16.0152 0.821069 16.0144 1.11708V41.8798C16.0152 42.1761 16.1331 42.46 16.3425 42.6699C16.5518 42.8797 16.8356 42.9983 17.1321 43H42.876C43.173 42.9983 43.4573 42.8792 43.6667 42.6687C43.8761 42.4583 43.9937 42.1735 43.9937 41.8766V1.11708C43.9929 0.821069 43.8748 0.537412 43.6654 0.328098C43.456 0.118783 43.1722 0.000830341 42.876 0ZM18.2497 40.7627V2.23732H21.7475V40.7627H18.2497ZM36.296 40.7627H23.986V2.23732H36.296V40.7627ZM41.7615 40.7627H38.5345V2.23732H41.7615V40.7627Z" fill="#010101"/>
<path d="M41.7615 2.2373H38.5344V40.7627H41.7615V2.2373Z" fill="#FDE2E1"/>
<path d="M21.7507 40.7627H18.2498V2.2373H21.7476L21.7507 40.7627Z" fill="#FDE2E1"/>
<path d="M29.653 8.78256C30.9123 9.28603 31.3311 9.51574 31.3311 10.6454C31.3311 11.5422 30.9753 11.7373 29.8482 12.2188C28.6676 12.7222 26.8887 13.4775 26.8887 16.0704C26.8887 18.5028 28.6077 19.2171 29.7443 19.7048C30.8808 20.1926 31.3374 20.4349 31.3374 21.5016C31.3374 22.4456 30.9785 22.647 29.8388 23.1127C28.6991 23.5785 26.9077 24.3148 26.9077 26.8888C26.9077 29.3873 28.6361 30.1111 29.7758 30.5862C30.9155 31.0614 31.3311 31.2879 31.3311 32.3515C31.3311 33.2956 30.9753 33.4938 29.8608 33.9469C28.6927 34.4252 26.9234 35.1427 26.9234 37.7639C26.9242 38.0602 27.0421 38.3442 27.2515 38.554C27.4608 38.7638 27.7446 38.8825 28.0411 38.8841C28.1895 38.8837 28.3363 38.8539 28.4731 38.7965C28.6099 38.7391 28.734 38.6552 28.8382 38.5495C28.9424 38.4439 29.0247 38.3187 29.0802 38.1812C29.1358 38.0437 29.1635 37.8965 29.1619 37.7482C29.1619 36.6846 29.5586 36.4895 30.7046 36.0049C31.8505 35.5203 33.5601 34.8406 33.5664 32.3452C33.5664 29.7303 31.8033 28.9971 30.6321 28.5094C29.4609 28.0216 29.1398 27.8454 29.1398 26.8762C29.1398 25.907 29.5302 25.6584 30.6762 25.1896C31.8222 24.7207 33.5695 24.0096 33.5695 21.5079C33.5695 18.9024 31.7907 18.1535 30.6101 17.6563C29.4861 17.1812 29.1272 16.9892 29.1272 16.083C29.1272 15.0225 29.5365 14.7928 30.7234 14.2893C31.8568 13.8079 33.5569 13.081 33.5569 10.6643C33.5569 7.97069 31.7057 7.22177 30.481 6.72773C29.2563 6.2337 28.8691 6.02917 28.8691 5.00648C28.8771 4.85459 28.8541 4.70264 28.8015 4.5599C28.7489 4.41717 28.6678 4.28665 28.5631 4.17628C28.4584 4.06591 28.3323 3.97801 28.1924 3.91794C28.0526 3.85787 27.902 3.8269 27.7498 3.8269C27.5976 3.8269 27.4471 3.85787 27.3072 3.91794C27.1674 3.97801 27.0413 4.06591 26.9366 4.17628C26.8319 4.28665 26.7507 4.41717 26.6981 4.5599C26.6455 4.70264 26.6225 4.85459 26.6306 5.00648C26.6275 7.57736 28.4409 8.31055 29.653 8.78256Z" fill="#010101"/>
<path d="M11.2227 29.0632C10.8746 29.4984 10.4059 29.8213 9.87517 29.9915C9.65358 30.0551 9.42146 30.0733 9.19264 30.0452C8.96383 30.0171 8.74303 29.9432 8.54343 29.8279C8.40592 29.7388 8.27348 29.6422 8.14674 29.5384C8.05544 29.4692 7.97357 29.4031 7.88227 29.337C7.26346 28.838 6.51388 28.5277 5.72325 28.4435C4.93261 28.3592 4.13442 28.5045 3.42423 28.8618C2.56159 29.2363 2.4514 29.337 1.35892 30.3439C1.19329 30.4966 1.07766 30.6957 1.02722 30.9151C0.976774 31.1346 0.993862 31.3641 1.07624 31.5737C1.15861 31.7833 1.30244 31.9631 1.48884 32.0895C1.67525 32.216 1.89553 32.2832 2.12082 32.2823C2.40337 32.2822 2.67671 32.1818 2.89216 31.9991C3.81463 31.1432 3.81463 31.1432 4.33096 30.9198C4.77677 30.7009 5.2813 30.6313 5.76975 30.7215C6.05736 30.8134 6.32608 30.9563 6.56312 31.1432C6.63553 31.1936 6.70481 31.247 6.77722 31.3037C6.97175 31.4603 7.17458 31.6063 7.38485 31.7411C7.84456 32.0161 8.3558 32.1941 8.88701 32.2639C9.41823 32.3337 9.95814 32.2939 10.4734 32.147C11.4481 31.8627 12.3119 31.286 12.948 30.495C13.042 30.3818 13.1128 30.2511 13.1564 30.1105C13.1999 29.9699 13.2154 29.8222 13.2018 29.6756C13.1882 29.5291 13.1458 29.3867 13.0772 29.2565C13.0085 29.1263 12.9148 29.0109 12.8015 28.9169C12.6883 28.8229 12.5576 28.7521 12.4169 28.7086C12.2763 28.665 12.1284 28.6496 11.9818 28.6632C11.8352 28.6768 11.6927 28.7191 11.5624 28.7878C11.4322 28.8564 11.3167 28.95 11.2227 29.0632Z" fill="#010101"/>
<path d="M11.2289 20.7621C10.882 21.197 10.4127 21.5182 9.88144 21.6841C9.66015 21.7488 9.428 21.768 9.19908 21.7404C8.97016 21.7128 8.74923 21.639 8.54968 21.5236C8.40905 21.435 8.27444 21.3372 8.1467 21.2309C8.0554 21.1649 7.97353 21.0988 7.88223 21.0296C7.26253 20.5323 6.51309 20.2232 5.72288 20.139C4.93267 20.0548 4.13487 20.1989 3.42419 20.5544C2.56155 20.9289 2.45136 21.0327 1.35889 22.0365C1.19376 22.1896 1.07861 22.3889 1.02845 22.6083C0.978291 22.8278 0.995458 23.0573 1.0777 23.2668C1.15994 23.4764 1.30343 23.6564 1.4895 23.7832C1.67556 23.9101 1.89555 23.978 2.12078 23.978C2.40197 23.9734 2.67351 23.8748 2.89212 23.698C3.81459 22.8421 3.81459 22.8421 4.33092 22.6186C4.77709 22.4008 5.2816 22.3324 5.76971 22.4235C6.05618 22.5166 6.32453 22.6582 6.56308 22.8421C6.63549 22.8924 6.70477 22.9491 6.77718 23.0057C6.97323 23.1622 7.1782 23.3072 7.39109 23.44C7.85146 23.7134 8.3628 23.8902 8.89384 23.9595C9.42487 24.0287 9.96445 23.989 10.4796 23.8427C11.4546 23.5572 12.3183 22.9795 12.9542 22.1875C13.1442 21.9589 13.2355 21.6642 13.208 21.3682C13.1805 21.0723 13.0366 20.7993 12.8078 20.6095C12.579 20.4196 12.2841 20.3284 11.988 20.3558C11.6919 20.3832 11.4189 20.5271 11.2289 20.7558V20.7621Z" fill="#010101"/>
<path d="M11.2289 12.7254C10.8851 13.1685 10.4155 13.4975 9.88145 13.6694C9.66115 13.7319 9.4305 13.7493 9.2033 13.7206C8.9761 13.692 8.75702 13.6178 8.55915 13.5026C8.41852 13.414 8.28389 13.3163 8.15615 13.21C8.06485 13.1439 7.983 13.0778 7.8917 13.0086C7.42843 12.6507 6.90032 12.3857 6.33642 12.2282C5.36098 12.0034 4.33819 12.1143 3.43364 12.5429C2.571 12.9173 2.46081 13.018 1.36833 14.025C1.20321 14.1781 1.08807 14.3773 1.03792 14.5968C0.987757 14.8163 1.00491 15.0457 1.08715 15.2553C1.16939 15.4649 1.3129 15.6448 1.49896 15.7717C1.68503 15.8985 1.90501 15.9664 2.13024 15.9665C2.41143 15.9618 2.68298 15.8633 2.90159 15.6864C3.82405 14.8305 3.82404 14.8305 4.34036 14.6071C4.78653 14.3893 5.29105 14.3209 5.77916 14.412C6.06794 14.5042 6.33853 14.6458 6.57885 14.8305C6.65126 14.8809 6.71737 14.9375 6.78978 14.9942C6.98417 15.1514 7.18816 15.2964 7.40056 15.4284C7.8612 15.7012 8.37251 15.8776 8.90344 15.9468C9.43436 16.0161 9.97383 15.9767 10.4891 15.8312C11.464 15.5457 12.3278 14.9679 12.9637 14.176C13.1536 13.9473 13.2449 13.6526 13.2175 13.3567C13.19 13.0607 13.0461 12.7878 12.8173 12.5979C12.5885 12.4081 12.2936 12.3168 11.9975 12.3443C11.7014 12.3717 11.4283 12.5156 11.2384 12.7443L11.2289 12.7254Z" fill="#010101"/>
</svg>
