<svg width="31" height="43" viewBox="0 0 31 43" fill="none" xmlns="http://www.w3.org/2000/svg">
<g clip-path="url(#clip0_34_127)">
<path d="M16.3323 17.5749C16.2334 17.406 16.0868 17.2707 15.9111 17.1866C15.7355 17.1024 15.539 17.0731 15.3467 17.1024C15.2059 17.1254 15.0718 17.1797 14.9543 17.2615C14.8368 17.3432 14.7388 17.4502 14.6674 17.5749C12.8867 20.6459 10.6557 23.5768 10.6557 26.5388C10.6851 27.8377 11.1733 29.0833 12.0324 30.0512C12.4428 30.5839 12.9684 31.015 13.5691 31.3115C14.1699 31.608 14.8298 31.7622 15.4986 31.7622C16.1674 31.7622 16.8273 31.608 17.428 31.3115C18.0287 31.015 18.5543 30.5839 18.9647 30.0512C19.8272 29.0852 20.3167 27.8386 20.344 26.5388C20.344 23.5742 18.113 20.6433 16.3323 17.5749ZM17.5134 28.7688C17.2833 29.0905 16.9808 29.3524 16.6307 29.533C16.2807 29.7137 15.8931 29.8079 15.4999 29.8079C15.1067 29.8079 14.7191 29.7137 14.369 29.533C14.0189 29.3524 13.7164 29.0905 13.4863 28.7688C12.9464 28.1492 12.6315 27.3628 12.5934 26.5388C12.5934 25.0072 13.9881 22.6111 15.4986 20.0333C17.0117 22.6111 18.4063 25.0072 18.4063 26.5388C18.3682 27.3628 18.0533 28.1492 17.5134 28.7688ZM16.3323 17.5749C16.2334 17.406 16.0868 17.2707 15.9111 17.1866C15.7355 17.1024 15.539 17.0731 15.3467 17.1024C15.2059 17.1254 15.0718 17.1797 14.9543 17.2615C14.8368 17.3432 14.7388 17.4502 14.6674 17.5749C12.8867 20.6459 10.6557 23.5768 10.6557 26.5388C10.6851 27.8377 11.1733 29.0833 12.0324 30.0512C12.4428 30.5839 12.9684 31.015 13.5691 31.3115C14.1699 31.608 14.8298 31.7622 15.4986 31.7622C16.1674 31.7622 16.8273 31.608 17.428 31.3115C18.0287 31.015 18.5543 30.5839 18.9647 30.0512C19.8272 29.0852 20.3167 27.8386 20.344 26.5388C20.344 23.5742 18.113 20.6433 16.3323 17.5749ZM17.5134 28.7688C17.2833 29.0905 16.9808 29.3524 16.6307 29.533C16.2807 29.7137 15.8931 29.8079 15.4999 29.8079C15.1067 29.8079 14.7191 29.7137 14.369 29.533C14.0189 29.3524 13.7164 29.0905 13.4863 28.7688C12.9464 28.1492 12.6315 27.3628 12.5934 26.5388C12.5934 25.0072 13.9881 22.6111 15.4986 20.0333C17.0117 22.6111 18.4063 25.0072 18.4063 26.5388C18.3682 27.3628 18.0533 28.1492 17.5134 28.7688ZM26.157 13.1928H4.75267C4.51175 13.2161 4.28816 13.3295 4.12581 13.5105C3.96346 13.6916 3.87407 13.9274 3.87518 14.1715V34.6954C3.87518 34.9543 3.97712 35.2026 4.15857 35.3856C4.34002 35.5687 4.58611 35.6715 4.84272 35.6715H26.157C26.4134 35.6708 26.6591 35.5678 26.8404 35.3849C27.0217 35.202 27.1238 34.9541 27.1245 34.6954V14.1715C27.1245 13.9124 27.0227 13.6639 26.8413 13.4804C26.6599 13.2969 26.4138 13.1935 26.157 13.1928ZM25.1869 33.7167H5.81285V15.1476H25.1869V33.7167ZM15.4986 31.7619C16.1643 31.7449 16.8185 31.5833 17.4166 31.2881C18.0148 30.9928 18.5428 30.571 18.9647 30.0512C19.8272 29.0852 20.3167 27.8386 20.344 26.5388C20.344 23.5742 18.113 20.6433 16.3323 17.5749C16.2334 17.406 16.0868 17.2707 15.9111 17.1866C15.7355 17.1024 15.539 17.0731 15.3467 17.1024C15.2059 17.1254 15.0718 17.1797 14.9543 17.2615C14.8368 17.3432 14.7388 17.4502 14.6674 17.5749C12.8867 20.6459 10.6557 23.5768 10.6557 26.5388C10.6851 27.8377 11.1733 29.0833 12.0324 30.0512C12.4552 30.5699 12.9834 30.9911 13.5814 31.2862C14.1794 31.5813 14.8331 31.7436 15.4986 31.7619ZM15.4986 20.0333C17.0117 22.6111 18.4063 25.0072 18.4063 26.5388C18.3682 27.3628 18.0533 28.1492 17.5134 28.7688C17.2833 29.0905 16.9808 29.3524 16.6307 29.533C16.2807 29.7137 15.8931 29.8079 15.4999 29.8079C15.1067 29.8079 14.7191 29.7137 14.369 29.533C14.0189 29.3524 13.7164 29.0905 13.4863 28.7688C12.9464 28.1492 12.6315 27.3628 12.5934 26.5388C12.5934 25.0072 13.9881 22.6111 15.4986 20.0333ZM26.157 13.1928H4.75267C4.51175 13.2161 4.28816 13.3295 4.12581 13.5105C3.96346 13.6916 3.87407 13.9274 3.87518 14.1715V34.6954C3.87518 34.9543 3.97712 35.2026 4.15857 35.3856C4.34002 35.5687 4.58611 35.6715 4.84272 35.6715H26.157C26.4134 35.6708 26.6591 35.5678 26.8404 35.3849C27.0217 35.202 27.1238 34.9541 27.1245 34.6954V14.1715C27.1245 13.9124 27.0227 13.6639 26.8413 13.4804C26.6599 13.2969 26.4138 13.1935 26.157 13.1928ZM25.1869 33.7167H5.81285V15.1476H25.1869V33.7167ZM15.4986 31.7619C16.1643 31.7449 16.8185 31.5833 17.4166 31.2881C18.0148 30.9928 18.5428 30.571 18.9647 30.0512C19.8272 29.0852 20.3167 27.8386 20.344 26.5388C20.344 23.5742 18.113 20.6433 16.3323 17.5749C16.2334 17.406 16.0868 17.2707 15.9111 17.1866C15.7355 17.1024 15.539 17.0731 15.3467 17.1024C15.2059 17.1254 15.0718 17.1797 14.9543 17.2615C14.8368 17.3432 14.7388 17.4502 14.6674 17.5749C12.8867 20.6459 10.6557 23.5768 10.6557 26.5388C10.6851 27.8377 11.1733 29.0833 12.0324 30.0512C12.4552 30.5699 12.9834 30.9911 13.5814 31.2862C14.1794 31.5813 14.8331 31.7436 15.4986 31.7619ZM15.4986 20.0333C17.0117 22.6111 18.4063 25.0072 18.4063 26.5388C18.3682 27.3628 18.0533 28.1492 17.5134 28.7688C17.2833 29.0905 16.9808 29.3524 16.6307 29.533C16.2807 29.7137 15.8931 29.8079 15.4999 29.8079C15.1067 29.8079 14.7191 29.7137 14.369 29.533C14.0189 29.3524 13.7164 29.0905 13.4863 28.7688C12.9464 28.1492 12.6315 27.3628 12.5934 26.5388C12.5934 25.0072 13.9881 22.6111 15.4986 20.0333ZM30.4389 9.38971L23.1746 5.96818C23.0463 5.90843 22.9067 5.87744 22.7654 5.87733H11.6232V0.978694C11.6236 0.850293 11.5988 0.723088 11.5503 0.604363C11.5019 0.485639 11.4306 0.377734 11.3408 0.28682C11.2509 0.195907 11.1441 0.123765 11.0266 0.0745492C10.909 0.0253337 10.783 -4.54107e-07 10.6557 0H0.877329C0.636191 0.0227374 0.412279 0.135882 0.249816 0.317084C0.0873527 0.498285 -0.0018545 0.734371 -0.000159384 0.978694V42.0239C-0.000159384 42.2828 0.101788 42.531 0.283238 42.7141C0.464688 42.8972 0.710778 43 0.967387 43H30.0297C30.157 43.0003 30.2831 42.9753 30.4008 42.9265C30.5185 42.8776 30.6254 42.8057 30.7156 42.715C30.8057 42.6243 30.8772 42.5166 30.926 42.398C30.9747 42.2794 30.9999 42.1523 30.9999 42.0239V10.262C30.9999 10.0764 30.9477 9.89471 30.8493 9.73798C30.7509 9.58125 30.6103 9.45595 30.444 9.37672L30.4389 9.38971ZM1.93751 1.96777H9.68815V3.92255H1.93751V1.96777ZM29.0622 41.0608H1.93751V5.86435H9.68815V6.84045C9.68781 6.96885 9.71259 7.09605 9.76106 7.21478C9.80953 7.3335 9.88076 7.44141 9.97064 7.53232C10.0605 7.62323 10.1673 7.69536 10.2848 7.74458C10.4024 7.79379 10.5284 7.81912 10.6557 7.81912H22.5518L29.0622 10.8876V41.0608ZM3.87518 14.1845V34.7084C3.87518 34.9673 3.97712 35.2156 4.15857 35.3986C4.34002 35.5817 4.58611 35.6845 4.84272 35.6845H26.157C26.4134 35.6838 26.6591 35.5808 26.8404 35.3979C27.0217 35.215 27.1238 34.9671 27.1245 34.7084V14.1715C27.1245 13.9124 27.0227 13.6639 26.8413 13.4804C26.6599 13.2969 26.4138 13.1935 26.157 13.1928H4.75267C4.51175 13.2161 4.28816 13.3295 4.12581 13.5105C3.96346 13.6916 3.87407 13.9274 3.87518 14.1715V14.1845ZM5.81285 15.1606H25.1869V33.7297H5.81285V15.1606ZM15.3339 17.1154C15.193 17.1384 15.059 17.1927 14.9415 17.2744C14.824 17.3561 14.726 17.4632 14.6545 17.5878C12.8739 20.6589 10.6428 23.5898 10.6428 26.5518C10.6722 27.8507 11.1604 29.0963 12.0195 30.0642C12.4299 30.5969 12.9555 31.0279 13.5563 31.3245C14.157 31.621 14.8169 31.7752 15.4857 31.7752C16.1545 31.7752 16.8144 31.621 17.4151 31.3245C18.0159 31.0279 18.5415 30.5969 18.9519 30.0642C19.8143 29.0981 20.3038 27.8516 20.3311 26.5518C20.3311 23.5872 18.1001 20.6563 16.3194 17.5878C16.2232 17.4188 16.0794 17.2825 15.9062 17.196C15.733 17.1096 15.5383 17.077 15.3467 17.1024L15.3339 17.1154ZM17.5005 28.7818C17.2704 29.1034 16.9679 29.3654 16.6178 29.546C16.2678 29.7267 15.8802 29.8208 15.487 29.8208C15.0938 29.8208 14.7062 29.7267 14.3561 29.546C14.0061 29.3654 13.7035 29.1034 13.4734 28.7818C12.9336 28.1622 12.6186 27.3758 12.5805 26.5518C12.5805 25.0202 13.9752 22.6241 15.4857 20.0463C16.9988 22.6241 18.3935 25.0202 18.3935 26.5518C18.3561 27.3697 18.0459 28.1509 17.5134 28.7688L17.5005 28.7818ZM16.3194 17.5878C16.2206 17.4189 16.0739 17.2837 15.8983 17.1996C15.7227 17.1154 15.5261 17.086 15.3339 17.1154C15.193 17.1384 15.059 17.1927 14.9415 17.2744C14.824 17.3561 14.726 17.4632 14.6545 17.5878C12.8739 20.6589 10.6428 23.5898 10.6428 26.5518C10.6722 27.8507 11.1604 29.0963 12.0195 30.0642C12.4299 30.5969 12.9555 31.0279 13.5563 31.3245C14.157 31.621 14.8169 31.7752 15.4857 31.7752C16.1545 31.7752 16.8144 31.621 17.4151 31.3245C18.0159 31.0279 18.5415 30.5969 18.9519 30.0642C19.8143 29.0981 20.3038 27.8516 20.3311 26.5518C20.344 23.5742 18.113 20.6433 16.3323 17.5749L16.3194 17.5878ZM17.5005 28.7818C17.2704 29.1034 16.9679 29.3654 16.6178 29.546C16.2678 29.7267 15.8802 29.8208 15.487 29.8208C15.0938 29.8208 14.7062 29.7267 14.3561 29.546C14.0061 29.3654 13.7035 29.1034 13.4734 28.7818C12.9336 28.1622 12.6186 27.3758 12.5805 26.5518C12.5805 25.0202 13.9752 22.6241 15.4857 20.0463C16.9988 22.6241 18.3935 25.0202 18.3935 26.5518C18.3561 27.3697 18.0459 28.1509 17.5134 28.7688L17.5005 28.7818ZM16.3194 17.5878C16.2206 17.4189 16.0739 17.2837 15.8983 17.1996C15.7227 17.1154 15.5261 17.086 15.3339 17.1154C15.193 17.1384 15.059 17.1927 14.9415 17.2744C14.824 17.3561 14.726 17.4632 14.6545 17.5878C12.8739 20.6589 10.6428 23.5898 10.6428 26.5518C10.6722 27.8507 11.1604 29.0963 12.0195 30.0642C12.4299 30.5969 12.9555 31.0279 13.5563 31.3245C14.157 31.621 14.8169 31.7752 15.4857 31.7752C16.1545 31.7752 16.8144 31.621 17.4151 31.3245C18.0159 31.0279 18.5415 30.5969 18.9519 30.0642C19.8143 29.0981 20.3038 27.8516 20.3311 26.5518C20.344 23.5742 18.113 20.6433 16.3323 17.5749L16.3194 17.5878ZM17.5005 28.7818C17.2704 29.1034 16.9679 29.3654 16.6178 29.546C16.2678 29.7267 15.8802 29.8208 15.487 29.8208C15.0938 29.8208 14.7062 29.7267 14.3561 29.546C14.0061 29.3654 13.7035 29.1034 13.4734 28.7818C12.9336 28.1622 12.6186 27.3758 12.5805 26.5518C12.5805 25.0202 13.9752 22.6241 15.4857 20.0463C16.9988 22.6241 18.3935 25.0202 18.3935 26.5518C18.3561 27.3697 18.0459 28.1509 17.5134 28.7688L17.5005 28.7818ZM26.1441 13.2058H4.73979C4.49887 13.2291 4.27531 13.3424 4.11296 13.5235C3.95062 13.7046 3.86119 13.9403 3.8623 14.1845V34.7084C3.8623 34.9673 3.96425 35.2156 4.1457 35.3986C4.32715 35.5817 4.57324 35.6845 4.82984 35.6845H26.1441C26.4005 35.6838 26.6462 35.5808 26.8275 35.3979C27.0088 35.215 27.111 34.9671 27.1117 34.7084V14.1715C27.1117 13.9146 27.0116 13.668 26.833 13.4849C26.6544 13.3018 26.4116 13.1969 26.157 13.1928L26.1441 13.2058ZM25.174 33.7297H5.79997V15.1606H25.174V33.7297ZM15.4857 31.7749C16.1514 31.7579 16.8056 31.5963 17.4038 31.301C18.002 31.0058 18.53 30.5839 18.9519 30.0642C19.8143 29.0981 20.3038 27.8516 20.3311 26.5518C20.3311 23.5872 18.1001 20.6563 16.3194 17.5878C16.2206 17.4189 16.0739 17.2837 15.8983 17.1996C15.7227 17.1154 15.5261 17.086 15.3339 17.1154C15.193 17.1384 15.059 17.1927 14.9415 17.2744C14.824 17.3561 14.726 17.4632 14.6545 17.5878C12.8739 20.6589 10.6428 23.5898 10.6428 26.5518C10.6722 27.8507 11.1604 29.0963 12.0195 30.0642C12.445 30.5822 12.9758 31.0018 13.5761 31.2948C14.1763 31.5877 14.832 31.747 15.4986 31.7619L15.4857 31.7749ZM15.4857 20.0463C16.9988 22.6241 18.3935 25.0202 18.3935 26.5518C18.3553 27.3758 18.0404 28.1622 17.5005 28.7818C17.2704 29.1034 16.9679 29.3654 16.6178 29.546C16.2678 29.7267 15.8802 29.8208 15.487 29.8208C15.0938 29.8208 14.7062 29.7267 14.3561 29.546C14.0061 29.3654 13.7035 29.1034 13.4734 28.7818C12.9336 28.1622 12.6186 27.3758 12.5805 26.5518C12.5934 25.0072 13.9881 22.6111 15.4986 20.0333L15.4857 20.0463ZM16.3194 17.5878C16.2206 17.4189 16.0739 17.2837 15.8983 17.1996C15.7227 17.1154 15.5261 17.086 15.3339 17.1154C15.193 17.1384 15.059 17.1927 14.9415 17.2744C14.824 17.3561 14.726 17.4632 14.6545 17.5878C12.8739 20.6589 10.6428 23.5898 10.6428 26.5518C10.6722 27.8507 11.1604 29.0963 12.0195 30.0642C12.4299 30.5969 12.9555 31.0279 13.5563 31.3245C14.157 31.621 14.8169 31.7752 15.4857 31.7752C16.1545 31.7752 16.8144 31.621 17.4151 31.3245C18.0159 31.0279 18.5415 30.5969 18.9519 30.0642C19.8143 29.0981 20.3038 27.8516 20.3311 26.5518C20.344 23.5742 18.113 20.6433 16.3323 17.5749L16.3194 17.5878ZM17.5005 28.7818C17.2704 29.1034 16.9679 29.3654 16.6178 29.546C16.2678 29.7267 15.8802 29.8208 15.487 29.8208C15.0938 29.8208 14.7062 29.7267 14.3561 29.546C14.0061 29.3654 13.7035 29.1034 13.4734 28.7818C12.9336 28.1622 12.6186 27.3758 12.5805 26.5518C12.5805 25.0202 13.9752 22.6241 15.4857 20.0463C16.9988 22.6241 18.3935 25.0202 18.3935 26.5518C18.3561 27.3697 18.0459 28.1509 17.5134 28.7688L17.5005 28.7818ZM16.3194 17.5878C16.2206 17.4189 16.0739 17.2837 15.8983 17.1996C15.7227 17.1154 15.5261 17.086 15.3339 17.1154C15.193 17.1384 15.059 17.1927 14.9415 17.2744C14.824 17.3561 14.726 17.4632 14.6545 17.5878C12.8739 20.6589 10.6428 23.5898 10.6428 26.5518C10.6722 27.8507 11.1604 29.0963 12.0195 30.0642C12.4299 30.5969 12.9555 31.0279 13.5563 31.3245C14.157 31.621 14.8169 31.7752 15.4857 31.7752C16.1545 31.7752 16.8144 31.621 17.4151 31.3245C18.0159 31.0279 18.5415 30.5969 18.9519 30.0642C19.8143 29.0981 20.3038 27.8516 20.3311 26.5518C20.344 23.5742 18.113 20.6433 16.3323 17.5749L16.3194 17.5878ZM17.5005 28.7818C17.2704 29.1034 16.9679 29.3654 16.6178 29.546C16.2678 29.7267 15.8802 29.8208 15.487 29.8208C15.0938 29.8208 14.7062 29.7267 14.3561 29.546C14.0061 29.3654 13.7035 29.1034 13.4734 28.7818C12.9336 28.1622 12.6186 27.3758 12.5805 26.5518C12.5805 25.0202 13.9752 22.6241 15.4857 20.0463C16.9988 22.6241 18.3935 25.0202 18.3935 26.5518C18.3561 27.3697 18.0459 28.1509 17.5134 28.7688L17.5005 28.7818ZM26.1441 13.2058H4.73979C4.49887 13.2291 4.27531 13.3424 4.11296 13.5235C3.95062 13.7046 3.86119 13.9403 3.8623 14.1845V34.7084C3.8623 34.9673 3.96425 35.2156 4.1457 35.3986C4.32715 35.5817 4.57324 35.6845 4.82984 35.6845H26.1441C26.4005 35.6838 26.6462 35.5808 26.8275 35.3979C27.0088 35.215 27.111 34.9671 27.1117 34.7084V14.1715C27.1117 13.9146 27.0116 13.668 26.833 13.4849C26.6544 13.3018 26.4116 13.1969 26.157 13.1928L26.1441 13.2058ZM25.174 33.7297H5.79997V15.1606H25.174V33.7297ZM15.4857 31.7749C16.1514 31.7579 16.8056 31.5963 17.4038 31.301C18.002 31.0058 18.53 30.5839 18.9519 30.0642C19.8143 29.0981 20.3038 27.8516 20.3311 26.5518C20.3311 23.5872 18.1001 20.6563 16.3194 17.5878C16.2206 17.4189 16.0739 17.2837 15.8983 17.1996C15.7227 17.1154 15.5261 17.086 15.3339 17.1154C15.193 17.1384 15.059 17.1927 14.9415 17.2744C14.824 17.3561 14.726 17.4632 14.6545 17.5878C12.8739 20.6589 10.6428 23.5898 10.6428 26.5518C10.6722 27.8507 11.1604 29.0963 12.0195 30.0642C12.445 30.5822 12.9758 31.0018 13.5761 31.2948C14.1763 31.5877 14.832 31.747 15.4986 31.7619L15.4857 31.7749ZM15.4857 20.0463C16.9988 22.6241 18.3935 25.0202 18.3935 26.5518C18.3553 27.3758 18.0404 28.1622 17.5005 28.7818C17.2704 29.1034 16.9679 29.3654 16.6178 29.546C16.2678 29.7267 15.8802 29.8208 15.487 29.8208C15.0938 29.8208 14.7062 29.7267 14.3561 29.546C14.0061 29.3654 13.7035 29.1034 13.4734 28.7818C12.9336 28.1622 12.6186 27.3758 12.5805 26.5518C12.5934 25.0072 13.9881 22.6111 15.4986 20.0333L15.4857 20.0463ZM16.3194 17.5878C16.2206 17.4189 16.0739 17.2837 15.8983 17.1996C15.7227 17.1154 15.5261 17.086 15.3339 17.1154C15.193 17.1384 15.059 17.1927 14.9415 17.2744C14.824 17.3561 14.726 17.4632 14.6545 17.5878C12.8739 20.6589 10.6428 23.5898 10.6428 26.5518C10.6722 27.8507 11.1604 29.0963 12.0195 30.0642C12.4299 30.5969 12.9555 31.0279 13.5563 31.3245C14.157 31.621 14.8169 31.7752 15.4857 31.7752C16.1545 31.7752 16.8144 31.621 17.4151 31.3245C18.0159 31.0279 18.5415 30.5969 18.9519 30.0642C19.8143 29.0981 20.3038 27.8516 20.3311 26.5518C20.344 23.5742 18.113 20.6433 16.3323 17.5749L16.3194 17.5878ZM17.5005 28.7818C17.2704 29.1034 16.9679 29.3654 16.6178 29.546C16.2678 29.7267 15.8802 29.8208 15.487 29.8208C15.0938 29.8208 14.7062 29.7267 14.3561 29.546C14.0061 29.3654 13.7035 29.1034 13.4734 28.7818C12.9336 28.1622 12.6186 27.3758 12.5805 26.5518C12.5805 25.0202 13.9752 22.6241 15.4857 20.0463C16.9988 22.6241 18.3935 25.0202 18.3935 26.5518C18.3561 27.3697 18.0459 28.1509 17.5134 28.7688L17.5005 28.7818ZM16.3194 17.5878C16.2206 17.4189 16.0739 17.2837 15.8983 17.1996C15.7227 17.1154 15.5261 17.086 15.3339 17.1154C15.193 17.1384 15.059 17.1927 14.9415 17.2744C14.824 17.3561 14.726 17.4632 14.6545 17.5878C12.8739 20.6589 10.6428 23.5898 10.6428 26.5518C10.6722 27.8507 11.1604 29.0963 12.0195 30.0642C12.4299 30.5969 12.9555 31.0279 13.5563 31.3245C14.157 31.621 14.8169 31.7752 15.4857 31.7752C16.1545 31.7752 16.8144 31.621 17.4151 31.3245C18.0159 31.0279 18.5415 30.5969 18.9519 30.0642C19.8143 29.0981 20.3038 27.8516 20.3311 26.5518C20.344 23.5742 18.113 20.6433 16.3323 17.5749L16.3194 17.5878ZM17.5005 28.7818C17.2704 29.1034 16.9679 29.3654 16.6178 29.546C16.2678 29.7267 15.8802 29.8208 15.487 29.8208C15.0938 29.8208 14.7062 29.7267 14.3561 29.546C14.0061 29.3654 13.7035 29.1034 13.4734 28.7818C12.9336 28.1622 12.6186 27.3758 12.5805 26.5518C12.5805 25.0202 13.9752 22.6241 15.4857 20.0463C16.9988 22.6241 18.3935 25.0202 18.3935 26.5518C18.3561 27.3697 18.0459 28.1509 17.5134 28.7688L17.5005 28.7818Z" fill="#010101"/>
<path d="M22.552 7.81909H10.6558C10.5286 7.81909 10.4025 7.79376 10.285 7.74454C10.1674 7.69533 10.0607 7.6232 9.97078 7.53229C9.8809 7.44137 9.80967 7.33347 9.7612 7.21474C9.71273 7.09602 9.68796 6.96881 9.68829 6.84041V5.86432H1.93765V41.0478H29.0623V10.8876L22.552 7.81909ZM27.1247 34.6954C27.124 34.9541 27.0219 35.2019 26.8406 35.3848C26.6592 35.5677 26.4135 35.6708 26.1571 35.6715H4.84287C4.58626 35.6715 4.34017 35.5686 4.15872 35.3856C3.97727 35.2025 3.87532 34.9543 3.87532 34.6954V14.1715C3.87422 13.9273 3.96361 13.6916 4.12596 13.5105C4.28831 13.3294 4.5119 13.2161 4.75281 13.1928H26.1571C26.414 13.1935 26.6601 13.2969 26.8415 13.4804C27.0228 13.6638 27.1247 13.9124 27.1247 14.1715V34.6954Z" fill="#FDE2E1"/>
<path d="M18.4065 26.5492C18.3683 27.3732 18.0534 28.1596 17.5136 28.7791C17.2835 29.1008 16.9809 29.3627 16.6309 29.5434C16.2808 29.724 15.8932 29.8182 15.5 29.8182C15.1068 29.8182 14.7192 29.724 14.3692 29.5434C14.0191 29.3627 13.7165 29.1008 13.4864 28.7791C12.9465 28.1596 12.6317 27.3732 12.5935 26.5492C12.5935 25.0176 13.9882 22.6215 15.4987 20.0436C17.0118 22.6111 18.4065 25.0072 18.4065 26.5492Z" fill="#FDE2E1"/>
</g>
<defs>
<clipPath id="clip0_34_127">
<rect width="31" height="43" fill="white"/>
</clipPath>
</defs>
</svg>
