<svg width="53" height="48" viewBox="0 0 53 48" fill="none" xmlns="http://www.w3.org/2000/svg">
<g clip-path="url(#clip0_34_138)">
<path d="M45.6373 25.9261L45.6373 25.8695C45.6364 25.6999 45.5747 25.5366 45.4637 25.41C45.4017 25.3402 45.3259 25.2845 45.2412 25.2467C45.1565 25.2088 45.0649 25.1896 44.9724 25.1903L33.2306 25.1903C33.0823 25.1853 32.9367 25.2317 32.8177 25.3218C32.6987 25.4119 32.6134 25.5405 32.5756 25.6864C32.2863 26.7612 31.7302 27.7425 30.9605 28.536C30.1908 29.3295 29.2334 29.9086 28.1802 30.2177C28.0419 30.2571 27.9201 30.3417 27.8337 30.4584C27.7473 30.5751 27.701 30.7175 27.702 30.8636L27.702 42.8494C27.7014 42.9437 27.7205 43.0371 27.758 43.1233C27.7955 43.2095 27.8507 43.2866 27.9197 43.3496C27.9888 43.4125 28.0702 43.4598 28.1586 43.4884C28.2469 43.517 28.3403 43.5262 28.4324 43.5153C32.8527 43.0421 36.9774 41.0343 40.1113 37.8303C43.2453 34.6264 45.1969 30.4221 45.6373 25.9261ZM29.0285 38.3281L29.0285 31.3364C30.1126 30.9395 31.0954 30.3007 31.9048 29.467C32.7141 28.6333 33.3295 27.6259 33.7056 26.5187L44.2322 26.5187C43.5822 31.1793 41.186 35.4043 37.5441 38.3114L29.0285 38.3281ZM29.0285 39.6599L35.6379 39.6599C33.6122 40.8949 31.3658 41.7096 29.0285 42.057L29.0285 39.6599Z" fill="#010101"/>
<path d="M45.4571 22.4635C45.5191 22.3929 45.5659 22.31 45.5947 22.22C45.6234 22.13 45.6335 22.035 45.6242 21.9408C45.1493 17.4752 43.185 13.3094 40.0579 10.1361C36.9308 6.96276 32.8294 4.97316 28.4357 4.49808C28.343 4.48755 28.2492 4.49725 28.1605 4.52653C28.0718 4.55581 27.9903 4.60401 27.9214 4.66788C27.8528 4.73089 27.798 4.80794 27.7607 4.89402C27.7235 4.98009 27.7046 5.07325 27.7053 5.16729L27.7053 17.1531C27.7 17.303 27.7447 17.4503 27.8321 17.5712C27.9195 17.692 28.0444 17.7794 28.1867 17.819C29.2204 18.1228 30.162 18.6865 30.9245 19.4582C31.6871 20.2298 32.2459 21.1845 32.5494 22.2338C32.5882 22.3745 32.6714 22.4982 32.7862 22.5861C32.901 22.6739 33.0411 22.7209 33.1848 22.7199L44.9756 22.7199C45.069 22.7134 45.16 22.6873 45.2429 22.6432C45.3258 22.599 45.3987 22.5379 45.4571 22.4635ZM29.0285 8.32356L29.0285 5.9297C31.3626 6.27554 33.6059 7.08925 35.6281 8.32356L29.0285 8.32356ZM33.6662 21.3382C33.2759 20.2601 32.6586 19.2817 31.8576 18.4714C31.0565 17.6611 30.0909 17.0385 29.0285 16.6471L29.0285 9.65532L37.5441 9.65532C41.1518 12.5307 43.5411 16.6998 44.2223 21.3082L33.6662 21.3382Z" fill="#010101"/>
<path d="M25.0228 43.3388C25.0915 43.2758 25.1463 43.1988 25.1836 43.1127C25.2208 43.0266 25.2397 42.9335 25.239 42.8394L25.239 30.8803C25.2441 30.7299 25.1989 30.5823 25.1109 30.4614C25.0229 30.3404 24.8972 30.2534 24.7543 30.2144C23.6887 29.9137 22.7182 29.3368 21.9379 28.5401C21.1576 27.7434 20.5943 26.7543 20.3033 25.6697C20.2661 25.5232 20.181 25.394 20.0619 25.3032C19.9429 25.2124 19.797 25.1655 19.6482 25.1703L7.88679 25.1703C7.71306 25.1703 7.54646 25.2405 7.42361 25.3654C7.30076 25.4902 7.23174 25.6596 7.23174 25.8362L7.23174 25.9028C7.676 30.4073 9.63717 34.6176 12.7835 37.8214C15.9299 41.0253 20.0683 43.0261 24.4988 43.4854C24.5914 43.5005 24.6861 43.4952 24.7765 43.47C24.8669 43.4447 24.9509 43.4 25.0228 43.3388ZM15.3314 38.3447C11.6912 35.4371 9.29727 31.2119 8.64991 26.552L19.1733 26.552C19.5543 27.6698 20.1787 28.6857 20.9999 29.5239C21.8211 30.3621 22.8179 31.001 23.9159 31.393L23.9159 38.3447L15.3314 38.3447ZM17.2376 39.6765L23.9159 39.6765L23.9159 42.0837C21.5536 41.7423 19.2827 40.9227 17.2376 39.6732L17.2376 39.6765Z" fill="#010101"/>
<path d="M20.3327 22.1971C20.6388 21.1379 21.2055 20.1755 21.9791 19.4007C22.7527 18.6259 23.7079 18.0644 24.7543 17.769C24.8972 17.73 25.0229 17.643 25.1109 17.5221C25.1989 17.4011 25.2441 17.2535 25.239 17.1032L25.239 5.14392C25.2396 5.04996 25.2206 4.95693 25.1833 4.87097C25.1459 4.78501 25.0911 4.70806 25.0224 4.64516C24.9538 4.58227 24.8728 4.53485 24.7848 4.50605C24.6968 4.47724 24.6038 4.4677 24.5119 4.47804C20.1034 4.93503 15.9832 6.91842 12.842 10.0958C9.70076 13.2733 7.72928 17.4516 7.25793 21.9308L7.25793 22.0007C7.25793 22.1773 7.32695 22.3467 7.44979 22.4715C7.57264 22.5964 7.73925 22.6666 7.91298 22.6666L19.7039 22.6666C19.8443 22.6672 19.9813 22.6219 20.0945 22.5374C20.2078 22.4529 20.2913 22.3336 20.3327 22.1971ZM17.2441 8.32352C19.2871 7.07591 21.556 6.25846 23.9159 5.9197L23.9159 8.32352L17.2441 8.32352ZM8.6663 21.3381C9.34548 16.7298 11.7338 12.5603 15.3412 9.68523L23.9159 9.68523L23.9159 16.637C22.839 17.0221 21.8592 17.6444 21.0467 18.4594C20.2342 19.2745 19.6089 20.2621 19.2158 21.3515L8.6663 21.3381Z" fill="#010101"/>
<path d="M44.2944 39.6765L52.3384 39.6765C52.5122 39.6765 52.6788 39.6063 52.8016 39.4815C52.9244 39.3566 52.9935 39.1872 52.9935 39.0106C52.9935 38.834 52.9244 38.6646 52.8016 38.5398C52.6788 38.4149 52.5122 38.3447 52.3384 38.3447L45.3687 38.3447C48.4071 34.2063 50.0487 29.1806 50.0487 24.0167C50.0487 18.8527 48.4071 13.827 45.3687 9.68856L52.3384 9.68856C52.5122 9.68856 52.6788 9.61839 52.8016 9.49352C52.9244 9.36864 52.9935 9.19928 52.9935 9.02268C52.9935 8.84608 52.9244 8.67672 52.8016 8.55184C52.6788 8.42696 52.5122 8.3568 52.3384 8.3568L44.2944 8.3568C42.0828 5.74667 39.3432 3.65231 36.2627 2.21663C33.1822 0.78094 29.8332 0.03772 26.4443 0.03772C23.0555 0.0377201 19.7065 0.78094 16.626 2.21663C13.5455 3.65231 10.8059 5.74667 8.59427 8.3568L0.668148 8.3568C0.494419 8.3568 0.327816 8.42696 0.204968 8.55184C0.0821229 8.67672 0.0130998 8.84608 0.0130998 9.02268C0.0130998 9.19928 0.0821229 9.36864 0.204968 9.49352C0.327816 9.61839 0.494419 9.68856 0.668148 9.68856L7.51997 9.68856C4.48153 13.827 2.84 18.8527 2.84 24.0167C2.84 29.1806 4.48153 34.2063 7.51997 38.3447L0.668148 38.3447C0.49442 38.3447 0.327816 38.4149 0.204968 38.5398C0.0821233 38.6646 0.0131001 38.834 0.0131001 39.0106C0.0131001 39.1872 0.0821233 39.3566 0.204968 39.4815C0.327816 39.6064 0.49442 39.6765 0.668149 39.6765L8.59427 39.6765C10.8059 42.2866 13.5455 44.381 16.626 45.8167C19.7065 47.2524 23.0555 47.9956 26.4443 47.9956C29.8332 47.9956 33.1822 47.2524 36.2627 45.8167C39.3432 44.381 42.0828 42.2866 44.2944 39.6765ZM4.15629 23.9983C4.15629 19.5206 5.46251 15.1434 7.90975 11.4202C10.357 7.69712 13.8353 4.79534 17.905 3.08177C21.9746 1.36821 26.4527 0.919852 30.7729 1.79342C35.0932 2.66699 39.0616 4.82322 42.1764 7.98947C45.2911 11.1557 47.4123 15.1898 48.2717 19.5815C49.131 23.9732 48.69 28.5253 47.0043 32.6623C45.3186 36.7992 42.464 40.335 38.8014 42.8227C35.1389 45.3105 30.8329 46.6383 26.428 46.6383C20.5241 46.6286 14.8647 44.2402 10.69 39.9965C6.51535 35.7528 4.16582 29.9998 4.15629 23.9983Z" fill="#010101"/>
<path d="M48.7225 23.9983C48.7225 19.5206 47.4163 15.1434 44.9691 11.4202C42.5218 7.69713 39.0435 4.79534 34.9739 3.08178C30.9043 1.36822 26.4262 0.919859 22.1059 1.79343C17.7856 2.66699 13.8172 4.82323 10.7025 7.98948C7.58771 11.1557 5.46651 15.1898 4.60716 19.5815C3.7478 23.9732 4.18886 28.5254 5.87455 32.6623C7.56024 36.7992 10.4149 40.335 14.0774 42.8228C17.74 45.3105 22.046 46.6383 26.4509 46.6383C32.3548 46.6286 38.0141 44.2402 42.1888 39.9965C46.3635 35.7528 48.713 29.9998 48.7225 23.9983ZM7.91626 22.6832C7.74253 22.6832 7.57593 22.6131 7.45308 22.4882C7.33023 22.3633 7.26121 22.194 7.26121 22.0174L7.26121 21.9474C7.73257 17.4683 9.70404 13.2899 12.8453 10.1125C15.9865 6.93504 20.1066 4.95169 24.5152 4.4947C24.6071 4.48437 24.7001 4.4939 24.788 4.52271C24.876 4.55151 24.9571 4.59893 25.0257 4.66182C25.0944 4.72472 25.1492 4.80167 25.1865 4.88763C25.2239 4.9736 25.2429 5.06662 25.2423 5.16058L25.2423 17.1198C25.2474 17.2701 25.2022 17.4178 25.1142 17.5387C25.0262 17.6596 24.9005 17.7466 24.7576 17.7857C23.7111 18.081 22.756 18.6426 21.9824 19.4174C21.2087 20.1921 20.6421 21.1546 20.336 22.2138C20.2971 22.355 20.2134 22.4792 20.0979 22.5671C19.9824 22.655 19.8416 22.7016 19.6973 22.6999L7.91626 22.6832ZM33.1848 22.6832C33.0411 22.6843 32.901 22.6372 32.7862 22.5494C32.6714 22.4616 32.5882 22.3378 32.5494 22.1971C32.2459 21.1478 31.6871 20.1931 30.9245 19.4215C30.162 18.6498 29.2204 18.0861 28.1868 17.7824C28.0445 17.7427 27.9195 17.6554 27.8321 17.5345C27.7447 17.4137 27.7001 17.2664 27.7053 17.1165L27.7053 5.13063C27.7046 5.03659 27.7235 4.94343 27.7608 4.85735C27.798 4.77128 27.8528 4.69423 27.9215 4.63122C27.9903 4.56735 28.0718 4.51915 28.1605 4.48987C28.2492 4.46059 28.343 4.45089 28.4357 4.46142C32.8294 4.9365 36.9308 6.92609 40.0579 10.0994C43.185 13.2727 45.1493 17.4386 45.6242 21.9042C45.6353 21.9981 45.6267 22.0933 45.5988 22.1836C45.5709 22.2738 45.5244 22.357 45.4625 22.4276C45.4005 22.4981 45.3244 22.5545 45.2394 22.5928C45.1543 22.6311 45.0622 22.6506 44.9691 22.6499L33.1848 22.6832ZM44.9757 25.187C45.0682 25.1862 45.1598 25.2054 45.2445 25.2433C45.3291 25.2812 45.405 25.3368 45.4669 25.4067C45.5779 25.5332 45.6397 25.6966 45.6405 25.8661L45.6405 25.9227C45.1982 30.4165 43.2461 34.618 40.113 37.8199C36.9799 41.0218 32.8572 43.0284 28.439 43.502C28.3468 43.5128 28.2535 43.5037 28.1651 43.4751C28.0767 43.4465 27.9953 43.3992 27.9263 43.3362C27.8572 43.2733 27.8021 43.1961 27.7646 43.1099C27.727 43.0237 27.708 42.9304 27.7086 42.8361L27.7086 30.8503C27.7076 30.7042 27.7538 30.5618 27.8402 30.4451C27.9266 30.3284 28.0484 30.2438 28.1868 30.2043C29.24 29.8952 30.1973 29.3161 30.967 28.5226C31.7367 27.7291 32.2929 26.7479 32.5821 25.673C32.6199 25.5271 32.7053 25.3986 32.8243 25.3085C32.9433 25.2183 33.0889 25.172 33.2372 25.177L44.9757 25.187ZM7.24486 25.9227L7.24486 25.8562C7.24486 25.6796 7.31384 25.5102 7.43669 25.3853C7.55954 25.2604 7.72618 25.1903 7.89991 25.1903L19.6613 25.1903C19.81 25.1855 19.956 25.2323 20.075 25.3231C20.1941 25.4139 20.2792 25.5432 20.3163 25.6897C20.6074 26.7743 21.1707 27.7633 21.951 28.56C22.7313 29.3567 23.7018 29.9336 24.7674 30.2343C24.9103 30.2733 25.036 30.3604 25.124 30.4813C25.2121 30.6022 25.2572 30.7498 25.2521 30.9002L25.2521 42.8594C25.2527 42.9534 25.2337 43.0464 25.1964 43.1324C25.159 43.2183 25.1042 43.2953 25.0356 43.3582C24.9669 43.4211 24.8859 43.4685 24.7979 43.4973C24.7099 43.5261 24.6169 43.5356 24.5251 43.5253C20.0897 43.0682 15.9462 41.0663 12.7969 37.8588C9.64756 34.6514 7.68607 30.4356 7.24486 25.9261L7.24486 25.9227Z" fill="#FDE2E1"/>
</g>
<defs>
<clipPath id="clip0_34_138">
<rect width="48" height="53" fill="white" transform="translate(53) rotate(90)"/>
</clipPath>
</defs>
</svg>
