<svg width="58" height="58" viewBox="0 0 58 58" fill="none" xmlns="http://www.w3.org/2000/svg">
<g clip-path="url(#clip0_34_121)">
<path d="M40.2532 13.8508C39.8274 14.3004 39.5745 14.888 39.5373 15.5138C39.5002 16.1396 39.6811 16.7651 40.0493 17.2843C40.4176 17.8035 40.9507 18.1844 41.558 18.3624C42.1653 18.5403 42.8095 18.5044 43.3813 18.2607C43.9532 18.017 44.4175 17.5805 44.6955 17.0253C44.9735 16.47 45.0481 15.8302 44.9066 15.2144C44.7651 14.5985 44.4162 14.0445 43.9192 13.6464C43.4221 13.2482 42.8075 13.0304 42.1795 13.0299C41.8161 13.029 41.4583 13.1013 41.1274 13.2423C40.7965 13.3833 40.4992 13.5902 40.2532 13.8508ZM41.5884 15.1134C41.7109 14.9835 41.8705 14.8942 42.0466 14.8569C42.2228 14.8196 42.4076 14.8361 42.5774 14.9042C42.7472 14.9723 42.8942 15.089 42.9997 15.2393C43.1051 15.3895 43.1642 15.5666 43.1694 15.7478C43.1746 15.9289 43.1257 16.106 43.0288 16.2564C42.932 16.4067 42.7917 16.5234 42.6258 16.5916C42.46 16.6598 42.2761 16.6764 42.0978 16.6392C41.9195 16.6021 41.7548 16.5128 41.6248 16.383C41.4555 16.2126 41.3571 15.9851 41.3503 15.7483C41.3435 15.5115 41.4288 15.2839 41.5884 15.1134Z" fill="#010101"/>
<path d="M13.7378 40.3661C13.3137 40.815 13.062 41.4011 13.0254 42.0252C12.9888 42.6493 13.1696 43.273 13.5372 43.7906C13.9047 44.3082 14.4363 44.6878 15.042 44.8652C15.6477 45.0425 16.2901 45.0066 16.8603 44.7635C17.4306 44.5205 17.8937 44.0853 18.1711 43.5316C18.4485 42.978 18.523 42.34 18.3822 41.7258C18.2414 41.1116 17.8939 40.559 17.3985 40.1616C16.9031 39.7641 16.2904 39.5464 15.6641 39.5452C15.3009 39.5451 14.9433 39.6177 14.6125 39.7586C14.2817 39.8996 13.9843 40.1062 13.7378 40.3661ZM15.0731 41.6334C15.155 41.5464 15.2541 41.4774 15.3644 41.4303C15.4747 41.3832 15.594 41.359 15.7152 41.3592C15.8364 41.3594 15.957 41.384 16.0698 41.4315C16.1826 41.479 16.2854 41.5485 16.372 41.6358C16.4999 41.7638 16.5883 41.9256 16.6261 42.1011C16.6639 42.2765 16.6495 42.4577 16.5845 42.622C16.5196 42.7863 16.407 42.9265 16.261 43.0249C16.115 43.1233 15.9419 43.1756 15.7635 43.1753C15.5851 43.175 15.4093 43.122 15.258 43.023C15.1067 42.9241 14.9867 42.7836 14.913 42.619C14.8393 42.4544 14.8152 42.2731 14.8437 42.0978C14.8722 41.9225 14.9519 41.7609 15.0731 41.6334Z" fill="#010101"/>
<path d="M43.4195 36.066C45.0625 32.9078 45.7048 29.3018 45.2632 25.7152L53.1625 17.8159L40.1733 4.82659L32.274 12.7259C29.5938 12.3981 26.8912 12.6736 24.3652 13.532C21.8392 14.3905 19.554 15.8101 17.6777 17.6863C15.8014 19.5626 14.3818 21.8479 13.5233 24.3739C12.6649 26.8999 12.3894 29.6024 12.7172 32.2826L4.81792 40.1819L17.8095 53.1735L25.7088 45.2742C29.2942 45.7155 32.8991 45.0741 36.057 43.4329C39.2149 41.7917 41.7805 39.2262 43.4218 36.0684L43.4195 36.066ZM40.2097 7.38806L50.6011 17.7795L44.2884 24.0921L33.8947 13.6984L40.2097 7.38806ZM7.37941 40.2183L13.692 33.9057L24.0834 44.2971L17.7708 50.6097L7.37941 40.2183ZM25.775 43.459L14.5301 32.2141C14.2169 29.7875 14.4542 27.3369 15.2243 25.0455C15.9943 22.7542 17.2772 20.6811 18.9771 18.9812C20.677 17.2813 22.75 15.9984 25.0414 15.2284C27.3328 14.4584 29.7833 14.2211 32.21 14.5342L43.4549 25.7791C43.768 28.2058 43.5308 30.6563 42.7607 32.9477C41.9907 35.2391 40.7078 37.3121 39.0079 39.0121C37.308 40.712 35.235 41.9948 32.9436 42.7649C30.6522 43.5349 28.2016 43.7722 25.775 43.459Z" fill="#010101"/>
<path d="M42.7568 32.9509C43.528 30.6594 43.7658 28.2085 43.4526 25.7814L32.2077 14.5365C29.781 14.2233 27.3305 14.4606 25.0391 15.2307C22.7478 16.0007 20.6747 17.2836 18.9748 18.9835C17.2749 20.6834 15.992 22.7565 15.222 25.0478C14.4519 27.3392 14.2146 29.7898 14.5278 32.2164L25.7727 43.4613C29.4311 43.9328 33.1057 43.1492 36.1921 41.2394C39.2785 39.3295 41.5928 36.4072 42.7545 32.9531L42.7568 32.9509ZM17.0819 30.1194C16.8428 30.0946 16.6205 29.9764 16.4637 29.7907C16.3068 29.605 16.2282 29.3668 16.2448 29.1282C16.456 26.2955 17.5043 23.6128 19.2571 21.4192C19.3278 21.3204 19.4182 21.2376 19.523 21.1758C19.6277 21.114 19.7445 21.0746 19.8663 21.0599C19.9881 21.0452 20.1123 21.0555 20.2314 21.0902C20.3505 21.125 20.4619 21.1834 20.5589 21.2619C20.656 21.3405 20.7366 21.4375 20.7958 21.5471C20.855 21.6567 20.8916 21.7766 20.9034 21.8994C20.9152 22.0223 20.902 22.1455 20.8644 22.2617C20.8269 22.3779 20.7658 22.4845 20.6851 22.5751C19.1513 24.4912 18.2349 26.8363 18.0521 29.3125C18.0433 29.4307 18.0112 29.5454 17.9577 29.65C17.9042 29.7546 17.8303 29.847 17.7401 29.922C17.65 29.9969 17.5455 30.0529 17.4325 30.0868C17.3196 30.1207 17.2004 30.1317 17.0819 30.1194Z" fill="#FDE2E1"/>
<path d="M17.0819 30.1193C16.8428 30.0946 16.6206 29.9764 16.4637 29.7907C16.3069 29.6049 16.2282 29.3668 16.2448 29.1281C16.456 26.2954 17.5043 23.6127 19.2572 21.4191C19.3278 21.3203 19.4183 21.2375 19.523 21.1758C19.6277 21.114 19.7445 21.0745 19.8663 21.0598C19.9881 21.0451 20.1123 21.0554 20.2314 21.0902C20.3505 21.1249 20.4619 21.1833 20.559 21.2619C20.656 21.3404 20.7366 21.4375 20.7958 21.5471C20.855 21.6567 20.8916 21.7765 20.9034 21.8994C20.9152 22.0223 20.902 22.1455 20.8644 22.2617C20.8269 22.3778 20.7659 22.4845 20.6851 22.5751C19.1513 24.4912 18.2349 26.8362 18.0521 29.3124C18.0433 29.4307 18.0112 29.5454 17.9577 29.65C17.9042 29.7546 17.8303 29.847 17.7402 29.9219C17.6501 29.9969 17.5455 30.0529 17.4326 30.0868C17.3196 30.1206 17.2005 30.1317 17.0819 30.1193Z" fill="#010101"/>
</g>
<defs>
<clipPath id="clip0_34_121">
<rect width="32" height="50" fill="white" transform="translate(35.3553 0.00866699) rotate(45)"/>
</clipPath>
</defs>
</svg>
