<svg width="56" height="35" viewBox="0 0 56 35" fill="none" xmlns="http://www.w3.org/2000/svg">
<g clip-path="url(#clip0_33_85)">
<path d="M55.0442 -0.00830078H0.947364C0.695358 -0.00830078 0.453674 0.0908869 0.275479 0.267435C0.0972841 0.443983 -0.00282872 0.683425 -0.00282872 0.933102V16.4746C-0.0031984 16.664 0.0539223 16.8491 0.1611 17.0059L4.05076 22.6846C4.06465 22.7011 4.08965 22.7121 4.10354 22.7286C4.16619 22.8073 4.24238 22.8744 4.32859 22.9268C4.35922 22.9513 4.39172 22.9734 4.42583 22.9929C4.55091 23.0658 4.69206 23.1074 4.83702 23.114H50.3488C50.4908 23.1131 50.6308 23.0813 50.759 23.0209C50.8871 22.9605 51.0004 22.8729 51.0906 22.7644L55.7888 16.9838C55.9251 16.8161 55.9995 16.6073 56 16.392V0.977154C56.0044 0.849791 55.983 0.722833 55.9371 0.603805C55.8911 0.484778 55.8215 0.376095 55.7324 0.284202C55.6433 0.19231 55.5364 0.119076 55.4182 0.068832C55.3 0.0185881 55.1728 -0.00764086 55.0442 -0.00830078ZM49.2347 21.2174H5.79832V19.6594H49.2347V21.2174ZM54.094 8.75065H31.509C31.257 8.75065 31.0153 8.84983 30.8371 9.02638C30.6589 9.20293 30.5588 9.44237 30.5588 9.69205C30.5573 10.3659 30.2863 11.0117 29.8051 11.488C29.3239 11.9642 28.6718 12.232 27.9916 12.2327C27.7396 12.2327 27.4979 12.3319 27.3197 12.5085C27.1415 12.685 27.0414 12.9245 27.0414 13.1742C27.0414 13.4238 27.1415 13.6633 27.3197 13.8398C27.4979 14.0164 27.7396 14.1156 27.9916 14.1156C29.0086 14.1124 29.994 13.7657 30.7851 13.1325C31.5762 12.4994 32.1256 11.6178 32.3425 10.6335H54.0773V16.0342L51.1351 19.6732V18.7097C51.1351 18.4601 51.035 18.2206 50.8568 18.0441C50.6786 17.8675 50.4369 17.7683 50.1849 17.7683H4.83702C4.58476 17.7691 4.34309 17.8689 4.16497 18.0458C3.98686 18.2228 3.88683 18.4626 3.88683 18.7125V19.0951L1.89199 16.1911V10.639H24.4798C24.7318 10.639 24.9735 10.5398 25.1517 10.3632C25.3299 10.1867 25.43 9.94724 25.43 9.69756C25.4315 9.0237 25.7025 8.37789 26.1837 7.90165C26.6649 7.42541 27.317 7.15759 27.9972 7.15687C28.2407 7.14383 28.4698 7.0388 28.6375 6.86342C28.8052 6.68805 28.8987 6.45565 28.8987 6.21407C28.8987 5.97248 28.8052 5.74009 28.6375 5.56472C28.4698 5.38934 28.2407 5.28433 27.9972 5.27129C26.9787 5.27368 25.9915 5.62036 25.1989 6.25402C24.4062 6.88768 23.8556 7.77038 23.638 8.75616H1.90311V1.87452H54.094V8.75065Z" fill="#010101"/>
<path d="M1.90316 1.88562V8.76726H23.638C23.8556 7.78148 24.4063 6.89879 25.1989 6.26514C25.9916 5.63148 26.9787 5.28478 27.9972 5.28239C28.2407 5.29543 28.4699 5.40045 28.6376 5.57583C28.8053 5.75121 28.8988 5.9836 28.8988 6.22518C28.8988 6.46677 28.8053 6.69916 28.6376 6.87454C28.4699 7.04991 28.2407 7.15492 27.9972 7.16796C27.3171 7.16869 26.6649 7.43651 26.1837 7.91275C25.7025 8.38898 25.4315 9.03479 25.43 9.70866C25.43 9.95834 25.3299 10.1978 25.1517 10.3743C24.9735 10.5509 24.7319 10.6501 24.4799 10.6501H1.90038V16.2022L3.89521 19.1062V18.7098C3.89521 18.4599 3.99524 18.2202 4.17335 18.0432C4.35147 17.8662 4.59314 17.7664 4.84541 17.7657H50.1849C50.437 17.7657 50.6786 17.8649 50.8568 18.0414C51.035 18.218 51.1351 18.4574 51.1351 18.7071V19.6705L54.0885 16.0315V10.6335H32.3425C32.1259 11.6198 31.5755 12.5031 30.7826 13.1369C29.9898 13.7707 29.0021 14.117 27.9833 14.1184C27.7313 14.1184 27.4896 14.0192 27.3115 13.8427C27.1333 13.6661 27.0331 13.4267 27.0331 13.177C27.0331 12.9273 27.1333 12.6879 27.3115 12.5113C27.4896 12.3348 27.7313 12.2356 27.9833 12.2356C28.6635 12.2349 29.3156 11.967 29.7968 11.4908C30.278 11.0146 30.549 10.3688 30.5505 9.6949C30.5505 9.44522 30.6506 9.20576 30.8288 9.02921C31.007 8.85267 31.2487 8.7535 31.5007 8.7535H54.083V1.88562H1.90316ZM50.0127 13.1715C50.2056 13.1715 50.3941 13.2282 50.5545 13.3343C50.7149 13.4405 50.8399 13.5914 50.9137 13.7679C50.9875 13.9445 51.0068 14.1388 50.9692 14.3262C50.9315 14.5136 50.8387 14.6858 50.7023 14.8209C50.5659 14.956 50.3921 15.048 50.203 15.0853C50.0138 15.1226 49.8177 15.1034 49.6395 15.0303C49.4613 14.9572 49.309 14.8333 49.2019 14.6745C49.0947 14.5156 49.0375 14.3288 49.0375 14.1377C49.0397 13.8829 49.1434 13.6392 49.3261 13.4598C49.5087 13.2804 49.7555 13.1797 50.0127 13.1798V13.1715ZM47.251 13.1715C47.4439 13.1715 47.6325 13.2282 47.7928 13.3343C47.9532 13.4405 48.0782 13.5914 48.152 13.7679C48.2258 13.9445 48.2451 14.1388 48.2075 14.3262C48.1699 14.5136 48.077 14.6858 47.9406 14.8209C47.8042 14.956 47.6305 15.048 47.4413 15.0853C47.2521 15.1226 47.056 15.1034 46.8778 15.0303C46.6997 14.9572 46.5473 14.8333 46.4402 14.6745C46.333 14.5156 46.2759 14.3288 46.2759 14.1377C46.2781 13.8829 46.3818 13.6392 46.5644 13.4598C46.7471 13.2804 46.9938 13.1797 47.251 13.1798V13.1715ZM27.9972 11.2832C27.6784 11.2832 27.3667 11.1895 27.1017 11.0139C26.8366 10.8384 26.6301 10.5889 26.5082 10.297C26.3863 10.0051 26.3546 9.68393 26.417 9.37415C26.4794 9.06438 26.6331 8.77991 26.8588 8.55674C27.0844 8.33357 27.3718 8.18173 27.6846 8.12044C27.9973 8.05915 28.3214 8.09116 28.6158 8.21242C28.9102 8.33368 29.1617 8.53874 29.3384 8.80165C29.5152 9.06456 29.6092 9.37351 29.6086 9.68939C29.6097 9.89961 29.5689 10.108 29.4883 10.3025C29.4078 10.497 29.2892 10.6738 29.1395 10.8227C28.9897 10.9716 28.8116 11.0897 28.6156 11.1701C28.4196 11.2506 28.2094 11.2918 27.9972 11.2914V11.2832Z" fill="#FDE2E1"/>
<path d="M29.6086 9.69761C29.6086 10.0134 29.5141 10.322 29.3371 10.5846C29.16 10.8471 28.9084 11.0518 28.6139 11.1726C28.3194 11.2935 27.9954 11.3251 27.6828 11.2635C27.3703 11.2019 27.0831 11.0498 26.8578 10.8265C26.6324 10.6032 26.4789 10.3188 26.4168 10.0091C26.3546 9.69938 26.3865 9.37838 26.5085 9.08665C26.6304 8.79492 26.837 8.54557 27.102 8.37014C27.367 8.19471 27.6785 8.10107 27.9972 8.10107C28.4246 8.10107 28.8345 8.26927 29.1367 8.56868C29.4389 8.86809 29.6086 9.27418 29.6086 9.69761Z" fill="#010101"/>
<path d="M48.2235 14.1459C48.2235 14.3371 48.1662 14.524 48.0589 14.6829C47.9516 14.8419 47.7992 14.9657 47.6208 15.0388C47.4425 15.1118 47.2462 15.1308 47.057 15.0933C46.8678 15.0558 46.694 14.9635 46.5577 14.8281C46.4214 14.6927 46.3288 14.5203 46.2915 14.3327C46.2542 14.1451 46.2739 13.9507 46.3481 13.7742C46.4223 13.5977 46.5478 13.447 46.7085 13.3412C46.8692 13.2354 47.0581 13.1791 47.251 13.1797C47.5092 13.1804 47.7565 13.2825 47.9388 13.4637C48.1211 13.6448 48.2235 13.8901 48.2235 14.1459Z" fill="#010101"/>
<path d="M50.0127 15.1121C50.5513 15.1121 50.9879 14.6795 50.9879 14.1459C50.9879 13.6123 50.5513 13.1797 50.0127 13.1797C49.4741 13.1797 49.0375 13.6123 49.0375 14.1459C49.0375 14.6795 49.4741 15.1121 50.0127 15.1121Z" fill="#010101"/>
<path d="M22.824 29.9379C22.6118 29.5379 22.5218 29.0853 22.5653 28.6355C22.6087 28.1857 22.7836 27.7583 23.0685 27.4054C23.2239 27.2087 23.2942 26.9588 23.2637 26.7108C23.2332 26.4627 23.1045 26.2368 22.9059 26.0828C22.7074 25.9287 22.4551 25.8592 22.2048 25.8894C21.9544 25.9196 21.7264 26.0471 21.571 26.2438C21.0469 26.8948 20.7301 27.6855 20.6609 28.5153C20.5916 29.3451 20.773 30.1766 21.182 30.904C21.182 30.9178 21.2042 30.9206 21.2126 30.9343C21.4273 31.3349 21.5188 31.789 21.4759 32.2406C21.4329 32.6921 21.2573 33.1213 20.9708 33.475C20.8154 33.6718 20.7451 33.9217 20.7756 34.1697C20.8061 34.4177 20.9348 34.6436 21.1334 34.7977C21.332 34.9517 21.5842 35.0213 21.8345 34.9911C22.0849 34.9609 22.3129 34.8334 22.4684 34.6366C22.9921 33.9856 23.309 33.1952 23.3787 32.3655C23.4485 31.5358 23.268 30.7043 22.8601 29.9764C22.8601 29.9764 22.8351 29.9544 22.824 29.9379Z" fill="#010101"/>
<path d="M28.8002 29.9379C28.588 29.5378 28.4983 29.085 28.5423 28.6351C28.5862 28.1852 28.7618 27.7578 29.0474 27.4054C29.2029 27.2087 29.2731 26.9588 29.2426 26.7108C29.2122 26.4627 29.0835 26.2368 28.8849 26.0828C28.6863 25.9287 28.4341 25.8592 28.1838 25.8894C27.9334 25.9196 27.7054 26.0471 27.5499 26.2438C27.0258 26.8947 26.7087 27.6852 26.639 28.5149C26.5692 29.3447 26.7499 30.1763 27.1582 30.904C27.1582 30.9178 27.1804 30.9206 27.1887 30.9343C27.4042 31.3347 27.4961 31.7889 27.4531 32.2407C27.4102 32.6924 27.2342 33.1216 26.947 33.475C26.7915 33.6718 26.7213 33.9217 26.7518 34.1697C26.7823 34.4177 26.911 34.6436 27.1095 34.7977C27.3081 34.9517 27.5603 35.0213 27.8107 34.9911C28.0611 34.9609 28.289 34.8334 28.4445 34.6366C28.9686 33.9857 29.2854 33.195 29.3546 32.3651C29.4239 31.5353 29.2425 30.7038 28.8335 29.9764C28.8335 29.9764 28.8113 29.9544 28.8002 29.9379Z" fill="#010101"/>
<path d="M34.7791 29.9379C34.5662 29.5381 34.4759 29.0854 34.5193 28.6354C34.5628 28.1855 34.7381 27.7579 35.0236 27.4054C35.1791 27.2087 35.2493 26.9588 35.2188 26.7108C35.1884 26.4627 35.0597 26.2368 34.8611 26.0828C34.6625 25.9287 34.4103 25.8592 34.1599 25.8894C33.9096 25.9196 33.6816 26.0471 33.5261 26.2438C33.0021 26.8948 32.6853 27.6855 32.616 28.5153C32.5468 29.3451 32.7281 30.1766 33.1371 30.904C33.1371 30.9178 33.1594 30.9206 33.1677 30.9343C33.3824 31.335 33.4737 31.7894 33.4302 32.241C33.3867 32.6927 33.2105 33.1217 32.9232 33.475C32.7683 33.6726 32.6988 33.923 32.7301 34.1712C32.7613 34.4195 32.8907 34.6453 33.0899 34.7991C33.1881 34.8755 33.3006 34.9319 33.4208 34.9652C33.5411 34.9984 33.6669 35.0077 33.7908 34.9926C33.9147 34.9775 34.0344 34.9383 34.143 34.8772C34.2516 34.8161 34.3469 34.7344 34.4235 34.6366C34.9473 33.9856 35.2641 33.1952 35.3339 32.3655C35.4036 31.5358 35.2231 30.7043 34.8153 29.9764C34.8153 29.9764 34.7902 29.9544 34.7791 29.9379Z" fill="#010101"/>
</g>
<defs>
<clipPath id="clip0_33_85">
<rect width="56" height="35" fill="white"/>
</clipPath>
</defs>
</svg>
