<svg width="46" height="45" viewBox="0 0 46 45" fill="none" xmlns="http://www.w3.org/2000/svg">
<g clip-path="url(#clip0_33_78)">
<path d="M43.698 28.9774V27.4518C43.6973 27.2501 43.6164 27.0568 43.473 26.9142C43.3296 26.7716 43.1354 26.6911 42.9326 26.6904H38.3427C38.1399 26.6911 37.9456 26.7716 37.8022 26.9142C37.6588 27.0568 37.578 27.2501 37.5772 27.4518V28.9774H35.2584V25.1648C35.2577 24.9626 35.1764 24.769 35.0324 24.6263C34.8884 24.4836 34.6935 24.4034 34.4902 24.4034H32.9565V22.8779C32.9557 22.6759 32.875 22.4824 32.7316 22.3393C32.5883 22.1962 32.3941 22.1152 32.191 22.1137H27.5983V16.7756C27.5976 16.5739 27.5167 16.3807 27.3733 16.2381C27.2299 16.0954 27.0357 16.015 26.8329 16.0142H25.2992V10.6762H26.0646V12.2017C26.0638 12.3037 26.0836 12.4048 26.1228 12.4991C26.1619 12.5934 26.2196 12.6789 26.2925 12.7507C26.3655 12.8224 26.4521 12.8789 26.5473 12.9168C26.6425 12.9548 26.7443 12.9733 26.8469 12.9715H32.4041C33.5727 12.97 34.6929 12.5076 35.5192 11.6857C36.3454 10.8638 36.8103 9.74954 36.8118 8.58722V5.16236C36.811 3.99955 36.3465 2.88454 35.5202 2.06205C34.6938 1.23956 33.5731 0.776793 32.4041 0.775316H28.3666C27.2251 0.779503 26.1282 1.21635 25.2992 1.99689V0.775316C25.2984 0.573127 25.2171 0.379466 25.0732 0.236758C24.9292 0.0940493 24.7342 0.0139147 24.5309 0.013916H21.4663C21.263 0.0139147 21.068 0.0940493 20.924 0.236758C20.7801 0.379466 20.6988 0.573127 20.698 0.775316V1.99689C19.8707 1.21556 18.7743 0.778522 17.6334 0.775316H13.6071C12.4381 0.776793 11.3174 1.23956 10.4911 2.06205C9.66471 2.88454 9.20018 3.99955 9.19944 5.16236V8.60116C9.20462 9.76106 9.67111 10.8718 10.497 11.6907C11.3229 12.5095 12.441 12.97 13.6071 12.9715H19.1671C19.3699 12.9707 19.5642 12.8903 19.7076 12.7477C19.851 12.605 19.9318 12.4118 19.9326 12.2101V10.6845H20.698V16.0226H19.1671C18.9639 16.0226 18.7689 16.1027 18.6249 16.2454C18.4809 16.3881 18.3996 16.5818 18.3989 16.784V22.1221H13.8006C13.5968 22.1221 13.4014 22.2026 13.2573 22.3459C13.1132 22.4892 13.0323 22.6836 13.0323 22.8862V24.4062H11.4986C11.2953 24.407 11.1006 24.4878 10.9572 24.631C10.8137 24.7743 10.7331 24.9682 10.7331 25.1704V28.9829H8.43119V27.4741C8.43045 27.2724 8.34956 27.0792 8.20617 26.9365C8.06278 26.7939 7.86851 26.7135 7.66573 26.7127H3.06461C2.86183 26.7135 2.66756 26.7939 2.52417 26.9365C2.38078 27.0792 2.2999 27.2724 2.29916 27.4741V28.9997H0V42.727H2.29916V44.2525C2.2999 44.4542 2.38078 44.6475 2.52417 44.7901C2.66756 44.9327 2.86183 45.0132 3.06461 45.0139H7.66573C7.86851 45.0132 8.06278 44.9327 8.20617 44.7901C8.34956 44.6475 8.43045 44.4542 8.43119 44.2525V42.727H37.566V44.2525C37.5668 44.4542 37.6476 44.6475 37.791 44.7901C37.9344 44.9327 38.1287 45.0132 38.3315 45.0139H42.9326C43.1354 45.0132 43.3296 44.9327 43.473 44.7901C43.6164 44.6475 43.6973 44.4542 43.698 44.2525V42.727H46V28.9774H43.698ZM2.29916 41.1791H1.53371V30.5029H2.29916V41.1791ZM6.90028 43.466H3.83287V28.216H6.90028V43.466ZM22.2402 1.5367H23.7626V2.93118L23.6869 2.9535L23.4795 2.99812C23.3247 3.02466 23.1682 3.0405 23.0112 3.04552H22.9888C22.8317 3.04107 22.6753 3.02522 22.5205 2.99812C22.4515 2.98724 22.3831 2.97235 22.3159 2.9535L22.2374 2.92839L22.2402 1.5367ZM19.1559 9.1701C18.9527 9.1701 18.7577 9.25024 18.6137 9.39294C18.4697 9.53565 18.3884 9.7293 18.3877 9.93149V11.4571H13.6071C12.8449 11.4571 12.1139 11.1559 11.5749 10.6198C11.0359 10.0837 10.7331 9.35654 10.7331 8.59837V5.14562C10.7331 4.38745 11.0359 3.66033 11.5749 3.12422C12.1139 2.58811 12.8449 2.28693 13.6071 2.28693H17.6334C18.4115 2.29048 19.1572 2.59681 19.7111 3.14036L19.8401 3.27143C20.5545 3.97695 21.4868 4.42294 22.4869 4.53763H22.5318C22.6868 4.56015 22.8433 4.57041 23 4.56831C23.1536 4.56922 23.3071 4.56177 23.4598 4.54599H23.5047C24.5048 4.43129 25.4371 3.98532 26.1515 3.2798L26.2805 3.1515C26.8354 2.60337 27.5845 2.29391 28.3666 2.28972H32.3901C33.1506 2.29193 33.8793 2.59361 34.4169 3.1288C34.9544 3.66398 35.257 4.38913 35.2584 5.14562V8.58722C35.2577 9.34565 34.9543 10.0727 34.4149 10.6088C33.8755 11.1448 33.1442 11.4459 32.3817 11.4459H27.5983V9.92033C27.5976 9.71863 27.5167 9.52539 27.3733 9.38276C27.2299 9.24014 27.0357 9.15969 26.8329 9.15895L19.1559 9.1701ZM23.7542 10.6873V16.0254H22.2205V10.6762L23.7542 10.6873ZM19.9214 17.5509H26.0562V22.1249H19.9326L19.9214 17.5509ZM14.566 23.6393H31.4312V24.4062H14.566V23.6393ZM12.2669 25.9262H33.7331V28.9774H12.2669V25.9262ZM37.566 41.1791H8.43399V30.5029H37.566V41.1791ZM39.0997 43.466V28.216H42.1643V43.466H39.0997ZM44.4663 41.1791H43.698V30.5029H44.4663V41.1791Z" fill="#010101"/>
<path d="M31.4312 23.6393H14.566V24.4035H31.4312V23.6393Z" fill="#FDE2E1"/>
<path d="M44.4663 30.5029H43.698V41.1791H44.4663V30.5029Z" fill="#FDE2E1"/>
<path d="M2.29916 30.5029H1.53371V41.1791H2.29916V30.5029Z" fill="#FDE2E1"/>
<path d="M37.566 30.5029H8.43399V41.1791H37.566V30.5029Z" fill="#FDE2E1"/>
<path d="M35.2584 5.14568V8.58727C35.2577 9.3457 34.9543 10.0728 34.4149 10.6088C33.8755 11.1449 33.1442 11.446 32.3817 11.446H27.5983V9.92039C27.5976 9.71869 27.5167 9.52545 27.3733 9.38282C27.2299 9.24019 27.0356 9.15974 26.8329 9.15901H19.1671C18.9639 9.15901 18.7689 9.23913 18.6249 9.38183C18.4809 9.52454 18.3996 9.7182 18.3989 9.92039V11.446H13.6071C12.8449 11.446 12.1139 11.1448 11.5749 10.6087C11.0359 10.0726 10.7331 9.34545 10.7331 8.58727V5.14568C10.7331 4.38751 11.0359 3.66038 11.5749 3.12427C12.1139 2.58816 12.8449 2.28699 13.6071 2.28699H17.6334C18.4115 2.29054 19.1572 2.59686 19.7111 3.14041L19.8401 3.27148C20.5545 3.977 21.4868 4.42299 22.4869 4.53769H22.5317C22.6868 4.56021 22.8433 4.57046 23 4.56836C23.1536 4.56928 23.3071 4.56183 23.4598 4.54604H23.5047C24.5048 4.43135 25.4371 3.98538 26.1515 3.27986L26.2805 3.15156C26.8354 2.60343 27.5845 2.29397 28.3666 2.28978H32.3901C33.1506 2.29199 33.8793 2.59367 34.4169 3.12885C34.9544 3.66404 35.257 4.38918 35.2584 5.14568Z" fill="#FDE2E1"/>
</g>
<defs>
<clipPath id="clip0_33_78">
<rect width="46" height="45" fill="white"/>
</clipPath>
</defs>
</svg>
