<svg width="68" height="68" viewBox="0 0 68 68" fill="none" xmlns="http://www.w3.org/2000/svg">
<g clip-path="url(#clip0_34_131)">
<path d="M57.2185 38.6576L57.2554 24.4742C57.2557 24.3647 57.2345 24.2563 57.1929 24.1552C57.1512 24.0541 57.0901 23.9624 57.0128 23.8851C56.9356 23.8079 56.8438 23.7467 56.7427 23.7051C56.6417 23.6635 56.5333 23.6422 56.4238 23.6426L54.5901 23.6476C54.4115 23.1691 54.0942 22.7553 53.6786 22.4591C53.263 22.1628 52.768 21.9974 52.2565 21.984L50.5887 21.9886C50.0703 21.9907 49.5645 22.1538 49.1412 22.4554C48.7179 22.7569 48.398 23.182 48.2258 23.6719L43.8992 23.6839C43.6078 23.6851 43.3214 23.7632 43.0691 23.9103C42.8168 24.0574 42.6074 24.2684 42.4622 24.5218L38.7454 24.532L40.0784 23.199C40.3602 23.2751 40.6576 23.2754 40.9404 23.1999C41.2232 23.1243 41.4815 22.9755 41.6891 22.7686L44.7553 19.7025C45.2201 19.9234 45.7426 19.995 46.2513 19.9073C46.7599 19.8196 47.2299 19.577 47.5969 19.2127L48.7771 18.0325C49.1418 17.6657 49.3847 17.1957 49.4724 16.6869C49.5602 16.1781 49.4883 15.6555 49.2669 15.1909L50.5617 13.8961C50.7185 13.7393 50.807 13.5269 50.8076 13.3058C50.8082 13.0847 50.7209 12.8728 50.565 12.7169L40.5498 2.70169C40.4727 2.624 40.3809 2.56237 40.2798 2.52036C40.1786 2.47834 40.07 2.45675 39.9602 2.45685C39.8505 2.45695 39.7417 2.47873 39.6401 2.52092C39.5386 2.56311 39.4462 2.62489 39.3684 2.70272L38.0736 3.99753C37.6089 3.77609 37.0863 3.70426 36.5775 3.79197C36.0687 3.87967 35.5987 4.12261 35.232 4.48735L34.0653 5.65402C33.7005 6.02077 33.4576 6.49078 33.3699 6.99958C33.2822 7.50837 33.354 8.03099 33.5755 8.49564L30.5093 11.5618C30.3032 11.77 30.155 12.0283 30.0795 12.3109C30.004 12.5935 30.0038 12.8907 30.0789 13.1725L13.1812 30.0703C12.8999 29.9943 12.6031 29.9938 12.3208 30.069C12.0384 30.1441 11.7804 30.2923 11.5727 30.4984L8.4908 33.5803C8.02675 33.3586 7.50464 33.2865 6.99622 33.3738C6.4878 33.4611 6.01801 33.7036 5.65143 34.0679L4.46902 35.2503C4.10467 35.6173 3.86205 36.0873 3.77437 36.596C3.68668 37.1046 3.75824 37.6271 3.97922 38.0919L2.68441 39.3867C2.52799 39.5443 2.44005 39.7571 2.43985 39.9785C2.43966 40.2 2.52724 40.4119 2.68338 40.5681L12.6874 50.5721C12.8434 50.7281 13.0552 50.8153 13.2763 50.8147C13.4974 50.8141 13.7098 50.7257 13.8666 50.5689L15.1771 49.2583C15.6419 49.4793 16.1643 49.5508 16.673 49.4632C17.1817 49.3755 17.6517 49.1328 18.0187 48.7685L19.2011 47.5861C19.565 47.2192 19.8072 46.7495 19.8945 46.2412C19.9818 45.7329 19.9099 45.2109 19.6887 44.7468L22.7571 41.6783C22.9632 41.4701 23.1114 41.2118 23.1869 40.9292C23.2625 40.6465 23.2627 40.3495 23.1875 40.0676L24.5363 38.7188L42.4388 38.6693C42.5081 38.7962 42.5945 38.9129 42.6956 39.0161C42.8493 39.1699 43.0321 39.2916 43.2335 39.3742C43.4349 39.4567 43.6509 39.4985 43.869 39.497L48.1955 39.4851C48.3151 39.8362 48.5127 40.1552 48.7735 40.4183C49.0048 40.6504 49.28 40.8343 49.5832 40.9592C49.8864 41.0842 50.2116 41.1478 50.5402 41.1465L52.2081 41.1418C52.7265 41.1396 53.2322 40.9761 53.6552 40.6741C54.0782 40.3721 54.3975 39.9465 54.5688 39.4563L56.3936 39.4512C56.6056 39.4481 56.8089 39.3643 56.9622 39.2169C57.1154 39.0694 57.2071 38.8695 57.2185 38.6576ZM39.9799 4.47869L48.8059 13.3046L48.2124 13.8981L39.3865 5.07215L39.9799 4.47869ZM13.3065 48.8039L4.48061 39.978L5.07406 39.3846L13.9 48.2105L13.3065 48.8039ZM18.0341 46.4326L16.8517 47.615C16.6941 47.7714 16.4813 47.8594 16.2599 47.8596C16.0385 47.8597 15.8265 47.7722 15.6703 47.616L5.65289 37.5986C5.49675 37.4424 5.40917 37.2304 5.40936 37.009C5.40955 36.7876 5.4975 36.5748 5.65391 36.4172L6.83633 35.2348C6.99392 35.0784 7.20671 34.9904 7.42814 34.9902C7.64956 34.9901 7.86158 35.0776 8.01772 35.2338L18.0106 45.2266C18.0898 45.3035 18.153 45.3954 18.1963 45.4971C18.2396 45.5987 18.2623 45.7081 18.2631 45.8188C18.2638 45.9295 18.2426 46.0394 18.2006 46.142C18.1586 46.2447 18.0967 46.3382 18.0185 46.417L18.0341 46.4326ZM31.6963 12.7623L34.6546 9.80406L43.4805 18.63L40.5222 21.5882L31.6963 12.7623ZM38.7496 22.1805L22.1801 38.75L14.5323 31.1022L31.1019 14.5327L38.7496 22.1805ZM21.5812 40.5293L18.6229 43.4876L9.79697 34.6617L12.7553 31.7034L21.5812 40.5293ZM35.2446 8.0382C35.0884 7.88206 35.0009 7.67004 35.001 7.44861C35.0012 7.22719 35.0892 7.0144 35.2456 6.8568L36.4257 5.67664C36.5037 5.5987 36.5961 5.53677 36.6978 5.49443C36.7994 5.45209 36.9084 5.43017 37.0183 5.42987C37.1282 5.42956 37.2369 5.45091 37.3384 5.49269C37.4398 5.53447 37.5319 5.59586 37.6094 5.67337L47.5866 15.6506C47.6641 15.7281 47.7255 15.8202 47.7673 15.9216C47.8091 16.023 47.8304 16.1318 47.8301 16.2417C47.8298 16.3516 47.8079 16.4605 47.7655 16.5622C47.7232 16.6638 47.6613 16.7563 47.5833 16.8342L46.4144 18.0031C46.2568 18.1596 46.044 18.2475 45.8226 18.2477C45.6012 18.2479 45.3892 18.1603 45.233 18.0042L35.2446 8.0382ZM26.1996 37.0867L37.0819 26.2045L42.2356 26.188L42.2057 37.038L26.1996 37.0867ZM43.8667 37.8718L43.9013 25.3539L48.0754 25.3424L48.0408 37.8603L43.8667 37.8718ZM52.2058 39.5166L50.5402 39.5234C50.3213 39.5169 50.1136 39.4274 49.9591 39.273C49.8047 39.1185 49.7151 38.9107 49.7086 38.6918L49.7412 24.477C49.7426 24.2561 49.8313 24.0442 49.9879 23.8875C50.1446 23.7309 50.3565 23.6422 50.5774 23.6408L52.2452 23.6362C52.4656 23.638 52.6761 23.7261 52.8315 23.8815C52.987 24.0369 53.075 24.2474 53.0769 24.4678L53.0377 38.6535C53.038 38.7637 53.0164 38.8731 52.9742 38.9752C52.932 39.0773 52.87 39.1702 52.7918 39.2484C52.7136 39.3265 52.6208 39.3886 52.5187 39.4308C52.4166 39.473 52.3072 39.4945 52.197 39.4942L52.2058 39.5166ZM54.7122 37.8418L54.7491 25.3262L55.583 25.3239L55.5506 37.8395L54.7122 37.8418Z" fill="#010101"/>
<path d="M18.0187 46.4168L16.8362 47.5992C16.6786 47.7557 16.4658 47.8436 16.2444 47.8438C16.023 47.844 15.811 47.7564 15.6549 47.6003L5.65304 37.5985C5.4969 37.4423 5.40932 37.2303 5.40951 37.0089C5.4097 36.7875 5.49765 36.5747 5.65406 36.4171L6.83648 35.2346C6.99407 35.0782 7.20686 34.9903 7.42829 34.9901C7.64971 34.9899 7.86173 35.0775 8.01787 35.2336L18.0107 45.2265C18.09 45.3034 18.1531 45.3953 18.1964 45.4969C18.2398 45.5986 18.2625 45.7079 18.2632 45.8186C18.264 45.9294 18.2427 46.0392 18.2007 46.1419C18.1588 46.2446 18.0969 46.338 18.0187 46.4168Z" fill="#FDE2E1"/>
<path d="M47.5992 16.8363L46.4235 18.012C46.2659 18.1684 46.0531 18.2563 45.8316 18.2565C45.6102 18.2567 45.3983 18.1691 45.2421 18.013L35.2403 8.01117C35.0842 7.85504 34.9966 7.64304 34.9968 7.42162C34.997 7.20019 35.0849 6.98738 35.2413 6.82978L36.4215 5.64962C36.4994 5.57168 36.5919 5.50978 36.6935 5.46744C36.7952 5.4251 36.9041 5.40312 37.014 5.40282C37.1239 5.40252 37.2327 5.42386 37.3341 5.46564C37.4355 5.50742 37.5276 5.56884 37.6051 5.64635L47.598 15.6392C47.6778 15.7166 47.7413 15.8093 47.7847 15.9118C47.828 16.0143 47.8504 16.1246 47.8505 16.2361C47.8506 16.3476 47.8284 16.4582 47.7853 16.5612C47.7421 16.6643 47.6789 16.7578 47.5992 16.8363Z" fill="#FDE2E1"/>
<path d="M52.1971 39.494L50.5315 39.5009C50.3126 39.4944 50.1048 39.4048 49.9504 39.2504C49.7959 39.0959 49.7063 38.8882 49.6999 38.6693L49.7413 24.4768C49.7428 24.2559 49.8314 24.044 49.9881 23.8873C50.1447 23.7307 50.3566 23.642 50.5776 23.6406L52.2454 23.636C52.4658 23.6378 52.6763 23.7259 52.8317 23.8813C52.9871 24.0368 53.0752 24.2472 53.077 24.4676L53.0378 38.6533C53.0382 38.7636 53.0166 38.8729 52.9744 38.975C52.9322 39.0772 52.8702 39.17 52.792 39.2482C52.7138 39.3264 52.6209 39.3884 52.5188 39.4306C52.4167 39.4728 52.3074 39.4943 52.1971 39.494Z" fill="#FDE2E1"/>
<path d="M42.1924 37.02L26.1909 37.0642L37.0686 26.1864L42.2224 26.17L42.1924 37.02Z" fill="#FDE2E1"/>
<path d="M38.7342 22.1647L31.0864 14.5169L14.5169 31.0864L22.1646 38.7342L38.7342 22.1647Z" fill="#FDE2E1"/>
</g>
<defs>
<clipPath id="clip0_34_131">
<rect width="39.9365" height="53.5512" fill="white" transform="translate(38.7928 0.926453) rotate(45)"/>
</clipPath>
</defs>
</svg>
