<svg width="51" height="52" viewBox="0 0 51 52" fill="none" xmlns="http://www.w3.org/2000/svg">
<g clip-path="url(#clip0_34_118)">
<path d="M24.2111 34.7418C24.553 35.0903 25.0166 35.2861 25.5 35.2861C25.9834 35.2861 26.447 35.0903 26.7888 34.7418L50.466 10.597C50.6351 10.4247 50.7693 10.2201 50.8608 9.99492C50.9524 9.76972 50.9995 9.52836 50.9995 9.28458C50.9995 9.04081 50.9524 8.79942 50.8608 8.57423C50.7693 8.34903 50.6351 8.14443 50.466 7.97214L48.6102 6.07658L50.6935 2.88708C50.9286 2.53014 51.0348 2.10104 50.9939 1.6731C50.9531 1.24516 50.7677 0.844972 50.4695 0.540944C50.1714 0.236917 49.7788 0.0479271 49.3591 0.00628393C48.9394 -0.0353593 48.5186 0.0729222 48.1685 0.312631L45.0403 2.44009L44.091 1.47215C43.922 1.2997 43.7213 1.16289 43.5005 1.06955C43.2796 0.976214 43.0429 0.928155 42.8038 0.928155C42.5647 0.928155 42.328 0.976214 42.1071 1.06955C41.8862 1.16289 41.6856 1.2997 41.5166 1.47215L20.9478 22.4442L19.926 21.4023C19.7551 21.2281 19.5233 21.1302 19.2816 21.1302C19.0399 21.1302 18.8081 21.2281 18.6371 21.4023C18.4662 21.5766 18.3702 21.813 18.3702 22.0594C18.3702 22.3059 18.4662 22.5422 18.6371 22.7164L18.8053 22.8845L11.471 30.2483C11.1977 30.5241 11.0168 30.8809 10.9541 31.2677C10.8913 31.6546 10.95 32.0517 11.1216 32.4026L13.3928 37.0339L11.6128 38.8555L10.9008 35.9988C10.8422 35.7599 10.693 35.5545 10.4859 35.4278C10.2788 35.3011 10.0308 35.2635 9.79653 35.3232C9.56223 35.3829 9.36081 35.5351 9.23656 35.7463C9.1123 35.9574 9.0754 36.2103 9.13397 36.4491L10.1031 40.3982L6.64199 43.9238C6.08162 44.4952 5.09275 44.596 4.55546 44.596C2.45902 44.596 1.75031 43.2953 1.72065 43.2516C1.60594 43.037 1.41382 42.8763 1.18496 42.8035C0.956101 42.7308 0.708466 42.7516 0.494441 42.8617C0.282228 42.9725 0.121369 43.1641 0.0467152 43.395C-0.0279388 43.6259 -0.0103843 43.8774 0.095584 44.0952C0.145028 44.1927 1.29873 46.4478 4.55546 46.4478C5.54434 46.4478 6.95844 46.2395 7.93084 45.248L10.6173 42.5089L10.9469 43.8868C10.9956 44.0882 11.109 44.2672 11.2692 44.3952C11.4293 44.5231 11.6269 44.5926 11.8303 44.5926C11.9049 44.5923 11.9792 44.5821 12.0512 44.5624C12.285 44.5021 12.4857 44.3497 12.6094 44.1386C12.733 43.9274 12.7693 43.6749 12.7104 43.4365L12.1072 40.9763L14.2366 38.8018L20.2161 50.9951C20.4089 51.3866 20.7311 51.696 21.1258 51.8688C21.5205 52.0416 21.9624 52.0667 22.3735 51.9397C22.7847 51.8127 23.1386 51.5417 23.3729 51.1746C23.6072 50.8075 23.7068 50.3678 23.6541 49.9331L22.5894 41.2687L32.5178 42.7172C32.6031 42.7278 32.6889 42.7335 32.7749 42.734C33.2128 42.7313 33.6352 42.5679 33.9646 42.2737C34.2941 41.9795 34.5087 41.5742 34.5691 41.1319C34.6295 40.6896 34.5318 40.24 34.2937 39.8652C34.0556 39.4904 33.6932 39.2155 33.2726 39.0908L22.0653 35.8307L23.6508 34.2175L24.2111 34.7418ZM32.7815 40.8587L22.3652 39.3395L22.174 37.7666L32.7815 40.8587ZM49.1771 1.8721L47.2917 4.7524L46.3489 3.79116L49.1771 1.8721ZM42.8022 2.79969L44.2459 4.27177L23.6804 25.2439L22.2367 23.7718L42.8022 2.79969ZM21.8543 50.1549L12.7467 31.5859L20.0875 24.2121L23.6771 27.8687L45.5315 5.5859L49.1771 9.2829L45.2645 13.2689L43.4449 11.4104C43.274 11.2361 43.0422 11.1382 42.8005 11.1382C42.5588 11.1382 42.327 11.2361 42.1561 11.4104C41.9852 11.5846 41.8892 11.821 41.8892 12.0674C41.8892 12.3139 41.9852 12.5502 42.1561 12.7245L43.9789 14.5831L37.983 20.6999L36.1634 18.8447C36.079 18.7584 35.9788 18.6899 35.8684 18.6431C35.7581 18.5963 35.6397 18.5722 35.5202 18.572C35.4007 18.5719 35.2823 18.5957 35.1718 18.6422C35.0613 18.6887 34.9609 18.7569 34.8763 18.843C34.7916 18.9291 34.7245 19.0313 34.6786 19.1438C34.6327 19.2564 34.609 19.377 34.6088 19.4989C34.6087 19.6208 34.6321 19.7415 34.6777 19.8541C34.7233 19.9668 34.7902 20.0692 34.8746 20.1554L36.6974 22.014L30.6982 28.1309L28.8754 26.2723C28.7045 26.0985 28.4728 26.001 28.2314 26.0013C27.99 26.0016 27.7587 26.0997 27.5882 26.274C27.4177 26.4482 27.3221 26.6844 27.3224 26.9306C27.3227 27.1767 27.4189 27.4126 27.5898 27.5864L29.4094 29.4416L25.5 33.4277L23.6804 31.5725L20.0348 35.2695L21.8543 50.1549Z" fill="#010101"/>
<path d="M42.1594 11.4136C42.0746 11.4998 42.0073 11.6022 41.9613 11.7149C41.9154 11.8277 41.8918 11.9486 41.8918 12.0707C41.8918 12.1928 41.9154 12.3136 41.9613 12.4264C42.0073 12.5391 42.0746 12.6416 42.1594 12.7277L43.9822 14.5863L37.983 20.6998L36.1634 18.8446C36.079 18.7583 35.9788 18.6898 35.8684 18.643C35.7581 18.5962 35.6397 18.5721 35.5202 18.5719C35.4007 18.5718 35.2823 18.5956 35.1718 18.6421C35.0613 18.6886 34.9609 18.7568 34.8763 18.8429C34.7916 18.929 34.7245 19.0312 34.6786 19.1437C34.6327 19.2563 34.609 19.3769 34.6088 19.4988C34.6087 19.6207 34.6321 19.7414 34.6777 19.854C34.7233 19.9667 34.7902 20.069 34.8746 20.1553L36.6974 22.0139L30.6982 28.1308L28.8754 26.2722C28.7045 26.0984 28.4728 26.0009 28.2314 26.0012C27.99 26.0015 27.7587 26.0996 27.5882 26.2739C27.4177 26.4481 27.3221 26.6843 27.3224 26.9304C27.3227 27.1766 27.4189 27.4125 27.5898 27.5863L29.4094 29.4415L25.5 33.4276L23.6804 31.5724L20.0348 35.2694L21.8576 50.1246L12.75 31.5556L20.0908 24.1817L23.6804 27.8384L45.5348 5.55554L49.1804 9.25254L45.2678 13.2386L43.4482 11.38C43.2723 11.2114 43.0383 11.1203 42.797 11.1266C42.5557 11.1329 42.3265 11.236 42.1594 11.4136Z" fill="#FDE2E1"/>
</g>
<defs>
<clipPath id="clip0_34_118">
<rect width="51" height="52" fill="white"/>
</clipPath>
</defs>
</svg>
