<svg width="48" height="49" viewBox="0 0 48 49" fill="none" xmlns="http://www.w3.org/2000/svg">
<g clip-path="url(#clip0_34_145)">
<path d="M44.3627 30.0228V18.9893C46.6736 17.0828 47.9998 14.8132 47.9998 12.359C47.9998 5.42899 37.4576 0 23.9983 0C10.539 0 -0.00323486 5.42899 -0.00323486 12.359C-0.00323486 14.8192 1.31995 17.0828 3.63394 18.9893V30.0228C1.24917 31.9777 -0.00323486 34.2595 -0.00323486 36.6381C-0.00323486 43.571 10.539 49 23.9983 49C37.4576 49 47.9998 43.571 47.9998 36.6441C47.9998 34.2564 46.7352 31.9686 44.3627 30.0228ZM2.25844 12.359C2.25844 6.8634 12.216 2.22426 23.9983 2.22426C35.7806 2.22426 45.7382 6.86642 45.7382 12.359C45.7382 17.8515 35.7837 22.4906 23.9983 22.4906C12.2129 22.4906 2.25844 17.8515 2.25844 12.359ZM23.9983 39.4252C16.4809 39.4252 9.6097 37.5035 5.8987 34.3896V33.1337C10.182 35.936 16.8502 37.6216 23.9983 37.6216C31.1465 37.6216 37.8146 35.936 42.101 33.1337V34.3896C38.39 37.5066 31.5188 39.4252 23.9983 39.4252ZM41.781 37.3643C41.5124 37.942 41.0782 38.43 40.5317 38.7685C36.5314 41.259 30.5095 42.6844 23.9983 42.6844C17.4871 42.6844 11.459 41.259 7.46186 38.7685C6.9153 38.43 6.48112 37.942 6.21257 37.3643C10.5205 40.0485 17.0225 41.6494 23.9983 41.6494C30.9741 41.6494 37.5038 40.0485 41.781 37.3643ZM23.9983 35.4033C16.4809 35.4033 9.6097 33.4817 5.8987 30.3647V29.1119C10.182 31.9142 16.8502 33.5998 23.9983 33.5998C31.1465 33.5998 37.8146 31.9142 42.101 29.1119V30.3647C38.39 33.4817 31.5188 35.4033 23.9983 35.4033ZM23.9983 31.3755C16.4809 31.3755 9.6097 29.4539 5.8987 26.3369V25.0841C10.182 27.8863 16.8502 29.5719 23.9983 29.5719C31.1465 29.5719 37.8146 27.8863 42.101 25.0841V26.3369C38.39 29.4539 31.5188 31.3634 23.9983 31.3634V31.3755ZM23.9983 27.3507C16.4809 27.3507 9.6097 25.4321 5.8987 22.3151V20.5599C10.2621 23.1231 16.7055 24.7149 23.9983 24.7149C31.2911 24.7149 37.7346 23.117 42.101 20.5569V22.3091C38.39 25.426 31.5188 27.3507 23.9983 27.3507ZM23.9983 46.7758C12.216 46.7758 2.25844 42.1366 2.25844 36.641C2.30128 35.3646 2.78664 34.1409 3.63394 33.173V35.9208C3.62749 36.8632 3.86469 37.7916 4.32329 38.619C4.78189 39.4463 5.44681 40.1455 6.25562 40.6507C10.6005 43.3562 17.0717 44.9086 23.9983 44.9086C30.9249 44.9086 37.3961 43.3562 41.7471 40.6507C42.556 40.1455 43.2209 39.4463 43.6795 38.619C44.1381 37.7916 44.3753 36.8632 44.3689 35.9208V33.1791C45.2163 34.1466 45.7007 35.3707 45.7412 36.6471C45.7382 42.1366 35.7806 46.7758 23.9983 46.7758Z" fill="#010101"/>
<path d="M41.7811 37.3643C41.5126 37.942 41.0784 38.43 40.5318 38.7685C36.5315 41.259 30.5096 42.6844 23.9984 42.6844C17.4873 42.6844 11.4592 41.259 7.462 38.7685C6.91544 38.43 6.48126 37.942 6.21271 37.3643C10.5207 40.0485 17.0226 41.6494 23.9984 41.6494C30.9743 41.6494 37.5039 40.0485 41.7811 37.3643Z" fill="#FDE2E1"/>
<path d="M42.1012 33.1337V34.3896C38.3901 37.5066 31.519 39.4252 23.9985 39.4252C16.478 39.4252 9.60987 37.5035 5.89886 34.3896V33.1337C10.1822 35.936 16.8503 37.6216 23.9985 37.6216C31.1466 37.6216 37.8116 35.936 42.1012 33.1337Z" fill="#FDE2E1"/>
<path d="M42.1012 29.1119V30.3647C38.3901 33.4817 31.519 35.4034 23.9985 35.4034C16.478 35.4034 9.60987 33.4817 5.89886 30.3647V29.1119C10.1822 31.9142 16.8503 33.5998 23.9985 33.5998C31.1466 33.5998 37.8116 31.9142 42.1012 29.1119Z" fill="#FDE2E1"/>
<path d="M42.1012 25.084V26.3369C38.3901 29.4539 31.519 31.3755 23.9985 31.3755C16.478 31.3755 9.60987 29.4539 5.89886 26.3369V25.084C10.1822 27.8863 16.8503 29.5719 23.9985 29.5719C31.1466 29.5719 37.8116 27.8863 42.1012 25.084Z" fill="#FDE2E1"/>
<path d="M42.1012 20.5569V22.3091C38.3901 25.426 31.519 27.3507 23.9985 27.3507C16.478 27.3507 9.60987 25.4321 5.89886 22.3151V20.5599C10.2622 23.1231 16.7057 24.7149 23.9985 24.7149C31.2912 24.7149 37.7347 23.117 42.1012 20.5569Z" fill="#FDE2E1"/>
<path d="M23.9985 16.2839C27.9064 16.2839 30.8512 14.5983 30.8512 12.3499C30.8512 10.1014 27.9064 8.41583 23.9985 8.41583C20.0905 8.41583 17.1488 10.1014 17.1488 12.3499C17.1488 14.5983 20.0936 16.2839 23.9985 16.2839ZM23.9985 10.6582C26.8448 10.6582 28.5865 11.7598 28.5865 12.359C28.5865 12.9581 26.8448 14.0597 23.9985 14.0597C21.1521 14.0597 19.4105 12.9551 19.4105 12.359C19.4105 11.7628 21.1552 10.6582 23.9985 10.6582Z" fill="#010101"/>
</g>
<defs>
<clipPath id="clip0_34_145">
<rect width="48" height="49" fill="white"/>
</clipPath>
</defs>
</svg>
