<svg width="59" height="62" viewBox="0 0 59 62" fill="none" xmlns="http://www.w3.org/2000/svg">
<g clip-path="url(#clip0_33_112)">
<path d="M46.8471 15.1253L32.2368 0.325895C32.1462 0.23356 32.0383 0.16026 31.9193 0.110232C31.8004 0.0602054 31.6728 0.0344238 31.544 0.0344238C31.4151 0.0344238 31.2875 0.0602054 31.1686 0.110232C31.0496 0.16026 30.9417 0.23356 30.8511 0.325895L28.5415 2.56049C28.4437 2.65057 28.3663 2.76077 28.3145 2.88367C28.2627 3.00656 28.2377 3.13923 28.2413 3.27271L27.8394 11.2939L0.304859 38.9653C0.206225 39.055 0.127923 39.165 0.0753122 39.2879C0.0227017 39.4109 -0.00296778 39.5438 9.11742e-06 39.6776V46.0741C-0.00807389 46.2095 0.012427 46.345 0.0601727 46.4719C0.107918 46.5987 0.181808 46.7138 0.276976 46.8098C0.372144 46.9057 0.486411 46.9801 0.612245 47.0283C0.738079 47.0764 0.872629 47.097 1.00697 47.0889H7.64002C7.77246 47.0925 7.90413 47.0673 8.02606 47.0151C8.148 46.9629 8.25738 46.8849 8.34676 46.7863L36.1492 19.4734H43.9047C44.0626 19.4812 44.2198 19.4481 44.3613 19.3772C44.5028 19.3062 44.624 19.1999 44.7131 19.0684L46.9256 16.4287C47.0848 16.2445 47.1658 16.0046 47.1511 15.7608C47.1364 15.5169 47.0272 15.2887 46.8471 15.1253ZM7.25663 45.0778H2.01856V40.1012L5.94481 36.1442L6.14805 36.3444L12.8966 39.6031L7.25663 45.0778ZM14.407 38.0715C14.3054 38.0715 14.3054 37.9691 14.2038 37.9691L7.45524 34.6219L8.9657 33.0949C9.06733 33.1974 9.16896 33.2997 9.27058 33.2997L15.8159 36.754L14.407 38.0715ZM17.2293 35.2317L10.3792 31.675L11.9912 30.0503C12.0928 30.0503 12.0928 30.1527 12.1898 30.1527L19.1185 33.4115L17.2293 35.2317ZM20.6521 31.8799L13.5017 28.528L15.3124 26.7031L22.3658 30.1527L20.6521 31.8799ZM23.9778 28.6211L16.8275 25.1669L18.3379 23.6445L25.5899 26.9964L23.9778 28.6211ZM27.1004 25.5765L19.8483 22.1222L21.4604 20.4975L28.7124 23.9518L27.1004 25.5765ZM43.4197 17.453H35.6642C35.5318 17.4494 35.4001 17.4745 35.2782 17.5267C35.1562 17.5789 35.0469 17.6569 34.9575 17.7555L30.0243 22.6297C29.9426 22.4491 29.798 22.3049 29.6178 22.2247L22.8831 19.087L29.433 12.4857C29.5302 12.3961 29.6073 12.2866 29.6591 12.1646C29.7109 12.0426 29.7362 11.9108 29.7333 11.7781L30.1351 3.75689L31.4469 2.43478L44.7454 15.9353L43.4197 17.453Z" fill="#010101"/>
<path d="M12.8966 39.5938L7.25663 45.0778H2.01856V40.1012L5.94481 36.1442L6.14806 36.3444L12.8966 39.5938Z" fill="#FDE2E1"/>
<path d="M44.7315 15.94L43.4197 17.4623H35.6642C35.5318 17.4587 35.4001 17.4839 35.2782 17.5361C35.1563 17.5883 35.0469 17.6663 34.9575 17.7649L30.0243 22.6391C29.9426 22.4584 29.798 22.3143 29.6178 22.234L22.8831 19.087L29.433 12.4857C29.5302 12.3961 29.6073 12.2867 29.6591 12.1646C29.7109 12.0426 29.7362 11.9108 29.7333 11.7781L30.1351 3.75692L31.447 2.43481L44.7315 15.94Z" fill="#FDE2E1"/>
<path d="M57.3926 32.7272C57.4249 32.6993 57.4618 32.676 57.4942 32.6434C58.2887 31.8427 59.9007 28.4117 58.3533 26.8521C57.2909 25.7768 55.3925 26.2237 54.0991 26.7916C53.7055 26.416 53.2046 26.1748 52.6674 26.1021C52.1302 26.0294 51.5839 26.1289 51.1059 26.3866C50.8463 26.9164 50.4108 27.3379 49.875 27.5777C49.3391 27.8176 48.7369 27.8606 48.1728 27.6995C47.8733 27.8572 47.6079 28.0734 47.3922 28.3355C47.1765 28.5977 47.0148 28.9005 46.9164 29.2264C46.8553 29.4305 46.8211 29.6418 46.8148 29.8549C46.4423 29.8704 46.0779 29.969 45.7477 30.1435C45.4487 30.3019 45.1837 30.5183 44.968 30.7804C44.7524 31.0425 44.5904 31.3449 44.4914 31.6704C44.431 31.878 44.3953 32.0921 44.3851 32.3082C44.0095 32.326 43.6422 32.426 43.3088 32.6015C43.0093 32.7592 42.744 32.9755 42.5283 33.2376C42.3126 33.4998 42.1508 33.8026 42.0525 34.1285C41.991 34.3293 41.9568 34.5375 41.9508 34.7476C41.5817 34.7654 41.2207 34.864 40.8931 35.0363C40.5062 35.2445 40.1784 35.5487 39.9408 35.9201C39.7032 36.2916 39.5635 36.7181 39.535 37.1591C39.1727 37.1827 38.8189 37.2809 38.4957 37.4477C38.0098 37.7106 37.6208 38.1242 37.3862 38.6273C37.1516 39.1303 37.0839 39.6961 37.1931 40.2409L31.3731 46.1067L26.3705 41.0696C26.2015 40.8952 25.9714 40.7946 25.7295 40.7894C25.4877 40.7842 25.2535 40.8747 25.0772 41.0417L25.0079 41.1068C23.3764 42.7554 22.4602 44.9887 22.4602 47.3171C22.4602 49.6454 23.3764 51.8788 25.0079 53.5273L30.8511 59.4489C32.4868 61.0932 34.7028 62.0166 37.013 62.0166C39.3233 62.0166 41.5392 61.0932 43.1749 59.4489C43.1961 59.43 43.2161 59.4097 43.2349 59.3884C43.407 59.214 43.5036 58.978 43.5036 58.732C43.5036 58.486 43.407 58.2501 43.2349 58.0756L38.6435 53.4482L42.4959 49.5656C43.8419 48.3579 45.4716 47.5167 47.2305 47.1216C47.5305 46.9657 47.7963 46.7505 48.0121 46.489C48.228 46.2275 48.3894 45.9249 48.4869 45.5993C48.4475 45.4458 48.4531 45.2841 48.5031 45.1337C48.5532 44.9834 48.6454 44.8509 48.7686 44.7524C48.8918 44.6538 49.0408 44.5934 49.1974 44.5785C49.354 44.5635 49.5115 44.5947 49.6509 44.6682C49.6759 44.0251 49.9403 43.4151 50.3914 42.9597C50.8425 42.5042 51.4472 42.2366 52.0852 42.2102C52.4771 42.0003 52.8081 41.6912 53.0454 41.3132C53.2827 40.9353 53.4182 40.5015 53.4386 40.0547C53.8132 40.0398 54.1796 39.9396 54.5102 39.7614C55.0143 39.4921 55.4151 39.0613 55.6493 38.537C55.8834 38.0127 55.9377 37.4247 55.8036 36.8658C56.0738 36.8171 56.3343 36.7243 56.575 36.5912C57.1712 36.2624 57.6143 35.7095 57.8081 35.053C58.0019 34.3965 57.9306 33.6894 57.6096 33.0857L57.3926 32.7272ZM41.1841 58.6855C39.867 59.7048 38.2271 60.2067 36.57 60.098C34.9129 59.9892 33.3516 59.2771 32.1768 58.0942L30.7079 56.6185C30.7649 56.5791 30.8189 56.5355 30.8696 56.4881L31.3823 55.9714C31.7719 55.5782 31.9905 55.045 31.9901 54.4893C31.9896 53.9336 31.7702 53.4009 31.38 53.0083C30.9898 52.6157 30.4608 52.3953 29.9095 52.3957C29.3581 52.3962 28.8295 52.6174 28.4399 53.0106L27.9318 53.5273C27.886 53.5778 27.8428 53.6306 27.8025 53.6856L26.3336 52.2098C25.1596 51.0251 24.4528 49.4507 24.3449 47.7798C24.237 46.1089 24.7353 44.4554 25.747 43.1272L41.1841 58.6855ZM37.2948 52.0935L32.6756 47.4381L38.0015 42.0705L41.1748 48.1225L37.2948 52.0935ZM43.9417 47.8478C43.8351 47.9032 43.716 47.9297 43.5962 47.9248C43.4764 47.9199 43.3598 47.8838 43.258 47.8199C43.2154 47.7338 43.1593 47.6552 43.0918 47.5871C43.0519 47.5475 43.0086 47.5117 42.9624 47.48L39.0824 40.0687C39.0009 39.9176 38.9779 39.7415 39.018 39.5744C39.0581 39.4072 39.1584 39.2611 39.2994 39.1642C39.4403 39.0674 39.612 39.0268 39.781 39.0502C39.95 39.0737 40.1043 39.1596 40.2141 39.2912L43.7384 46.0229C43.7994 46.1422 43.8705 46.2559 43.9509 46.3627L44.2327 46.8981C44.319 47.063 44.3369 47.2556 44.2823 47.4337C44.2277 47.6118 44.1052 47.7607 43.9417 47.8478ZM46.6762 45.022C46.6495 45.1106 46.6056 45.1928 46.5468 45.264C46.4881 45.3351 46.4159 45.3937 46.3344 45.4363C46.2028 45.5068 46.0522 45.5326 45.9049 45.5099C45.7577 45.4873 45.6216 45.4174 45.5168 45.3106L41.9693 38.5324C41.9083 38.4132 41.8372 38.2995 41.7568 38.1926L41.4751 37.6572C41.4036 37.4953 41.3955 37.3123 41.4522 37.1446C41.5089 36.9769 41.6264 36.837 41.7811 36.7529C41.9358 36.6688 42.1163 36.6466 42.2865 36.6908C42.4568 36.7351 42.6041 36.8425 42.6991 36.9915L46.1542 43.5882L46.6161 44.4634C46.6623 44.547 46.6915 44.6391 46.7018 44.7342C46.7121 44.8294 46.7034 44.9256 46.6762 45.0173V45.022ZM48.7502 43.0016C48.6187 43.0711 48.4687 43.0969 48.3218 43.0751C48.1749 43.0534 48.0387 42.9853 47.9326 42.8806C47.8875 42.8313 47.8487 42.7766 47.8171 42.7176L44.3666 36.121C44.3666 36.121 44.3666 36.1209 44.3666 36.0977L43.9047 35.2225C43.8195 35.0574 43.8013 34.8655 43.8539 34.6871C43.9109 34.51 44.0333 34.3616 44.1957 34.2728C44.3576 34.1928 44.5439 34.1786 44.7159 34.2332C44.8879 34.2878 45.0324 34.407 45.1196 34.5661L49.0366 42.0519C49.122 42.2164 49.1399 42.4082 49.0863 42.5858C49.0327 42.7635 48.912 42.9128 48.7502 43.0016ZM51.1891 40.5436C51.0576 40.6131 50.9076 40.6388 50.7607 40.6171C50.6138 40.5953 50.4776 40.5272 50.3715 40.4225C50.322 40.3731 50.28 40.3166 50.2468 40.2549L46.3298 32.7645C46.2468 32.602 46.2308 32.4129 46.2852 32.2386C46.3397 32.0642 46.4603 31.9186 46.6208 31.8334C46.7819 31.7518 46.9681 31.7363 47.1404 31.7901C47.3126 31.8439 47.4575 31.9629 47.5446 32.122L51.4616 39.6125C51.5448 39.773 51.563 39.9598 51.5121 40.1335C51.4613 40.3073 51.3454 40.4543 51.1891 40.5436ZM53.6141 38.0995C53.4825 38.1699 53.3319 38.1957 53.1847 38.1731C53.0374 38.1504 52.9013 38.0805 52.7965 37.9738C52.7489 37.9239 52.7084 37.8675 52.6764 37.8062L48.7502 30.3204C48.6719 30.1571 48.6585 29.9697 48.7125 29.7967C48.7666 29.6237 48.8842 29.478 49.0412 29.3893C49.2001 29.3062 49.3847 29.2879 49.5567 29.3381C49.7286 29.3884 49.8748 29.5034 49.965 29.6593C50.002 29.7431 50.0297 29.8316 50.0712 29.9107L53.069 35.5809C53.0786 35.6027 53.091 35.623 53.106 35.6415L53.9051 37.1684C53.9857 37.3314 54.0004 37.5195 53.9461 37.6932C53.8918 37.8668 53.7728 38.0125 53.6141 38.0995ZM55.6558 34.9385C55.5244 35.0105 55.3736 35.038 55.2256 35.017C55.0776 34.9961 54.9401 34.9277 54.8335 34.8221C54.797 34.7837 54.7645 34.7416 54.7366 34.6964L51.6741 28.8447C51.6336 28.697 51.6428 28.54 51.7002 28.3982C51.7575 28.2564 51.8598 28.1377 51.9912 28.0606C52.1225 27.9835 52.2754 27.9525 52.4261 27.9722C52.5768 27.9919 52.7168 28.0613 52.8242 28.1696C52.8706 28.2144 52.9095 28.2662 52.9397 28.3233L55.9329 33.9888C56.0234 34.1489 56.0475 34.3385 55.9999 34.5164C55.9524 34.6943 55.8369 34.846 55.6789 34.9385H55.6558ZM56.441 30.9302L55.1107 28.4117C56.0345 28.0625 56.8429 27.9974 57.0276 28.1882C57.3556 28.5141 56.926 30.0923 56.441 30.9302Z" fill="#010101"/>
<path d="M41.1841 58.6854C39.867 59.7047 38.2271 60.2067 36.57 60.0979C34.913 59.9892 33.3516 59.277 32.1768 58.0942L30.7079 56.6185C30.7649 56.579 30.8189 56.5355 30.8696 56.4881L31.3823 55.9714C31.7719 55.5781 31.9905 55.045 31.9901 54.4893C31.9896 53.9336 31.7702 53.4009 31.38 53.0082C30.9898 52.6156 30.4609 52.3952 29.9095 52.3957C29.3581 52.3961 28.8295 52.6173 28.4399 53.0106L27.9318 53.5273C27.886 53.5777 27.8428 53.6306 27.8025 53.6856L26.3336 52.2098C25.1596 51.025 24.4528 49.4506 24.3449 47.7798C24.237 46.1089 24.7353 44.4554 25.747 43.1272L41.1841 58.6854Z" fill="#FDE2E1"/>
</g>
<defs>
<clipPath id="clip0_33_112">
<rect width="59" height="62" fill="white"/>
</clipPath>
</defs>
</svg>
