<svg width="57" height="43" viewBox="0 0 57 43" fill="none" xmlns="http://www.w3.org/2000/svg">
<g clip-path="url(#clip0_33_108)">
<path d="M50.5593 3.33363C50.0259 2.79884 49.3928 2.37643 48.6968 2.09092C48.0007 1.8054 47.2556 1.66246 46.5045 1.67035C45.6668 1.67068 44.8375 1.83923 44.0648 2.16623C43.292 2.49323 42.5912 2.97214 42.0029 3.57522L21.3685 24.4379L29.6791 32.8418L50.3169 11.9826C51.4806 10.8189 52.1554 9.24596 52.2007 7.59158C52.2296 6.80606 52.0989 6.02291 51.8166 5.29051C51.5343 4.55812 51.1064 3.89209 50.5593 3.33363ZM48.1147 10.3789C47.5648 10.9355 46.8412 11.2821 46.0669 11.3596C45.2927 11.4371 44.5159 11.2407 43.8688 10.8039C43.2218 10.367 42.7446 9.71677 42.5185 8.96397C42.2925 8.21117 42.3316 7.40243 42.6292 6.67552C42.9267 5.94861 43.4644 5.34855 44.1505 4.97762C44.8366 4.60669 45.6287 4.48782 46.3917 4.64131C47.1548 4.7948 47.8416 5.21113 48.3351 5.81935C48.8286 6.42756 49.0982 7.19005 49.0981 7.97679C49.0991 8.42301 49.0127 8.865 48.844 9.27729C48.6752 9.68958 48.4273 10.064 48.1147 10.3789Z" fill="#FDE2E1"/>
<path d="M48.1146 5.57454C47.5648 5.0179 46.8411 4.6713 46.0669 4.59381C45.2927 4.51632 44.5158 4.71273 43.8688 5.14957C43.2217 5.58641 42.7445 6.23667 42.5185 6.98947C42.2924 7.74227 42.3315 8.55105 42.6291 9.27796C42.9267 10.0049 43.4644 10.6049 44.1505 10.9759C44.8366 11.3468 45.6287 11.4656 46.3917 11.3121C47.1548 11.1586 47.8416 10.7423 48.3351 10.1341C48.8285 9.52588 49.0982 8.76344 49.098 7.97669C49.0993 7.53044 49.013 7.08834 48.8442 6.67602C48.6754 6.26371 48.4274 5.88932 48.1146 5.57454ZM46.9442 9.19876C46.6645 9.48061 46.2969 9.65569 45.9038 9.69421C45.5108 9.73273 45.1168 9.63226 44.7888 9.40996C44.4608 9.18766 44.2191 8.85725 44.1049 8.47501C43.9908 8.09277 44.0112 7.68233 44.1627 7.3136C44.3142 6.94486 44.5874 6.64067 44.9358 6.45277C45.2842 6.26486 45.6863 6.20488 46.0735 6.28307C46.4607 6.36126 46.8091 6.57278 47.0594 6.88158C47.3098 7.19038 47.4465 7.5774 47.4463 7.97669C47.4468 8.20386 47.4026 8.42885 47.3165 8.63863C47.2303 8.84842 47.1037 9.03881 46.9442 9.19876Z" fill="#010101"/>
<path d="M55.7915 40.5487H21.8948L28.4359 33.9377L29.1042 34.6135C29.1808 34.6911 29.2717 34.7527 29.3719 34.7947C29.472 34.8367 29.5793 34.8583 29.6877 34.8583C29.7961 34.8583 29.9035 34.8367 30.0036 34.7947C30.1037 34.7527 30.1946 34.6911 30.2712 34.6135L51.4908 13.1555C52.9576 11.6904 53.8053 9.70718 53.8558 7.62295C53.8838 6.6251 53.7167 5.63146 53.3641 4.69906C53.004 3.74187 52.4469 2.873 51.7297 2.1499C51.043 1.46044 50.2279 0.915418 49.3316 0.546387C48.4353 0.177356 47.4756 -0.00837545 46.5079 -0.000101453C45.4781 -0.000861784 44.4582 0.202555 43.5057 0.598663C42.5094 1.01004 41.6051 1.61972 40.8464 2.3915L19.6268 23.8495C19.55 23.9269 19.4891 24.0189 19.4476 24.1201C19.406 24.2213 19.3847 24.3299 19.3847 24.4395C19.3847 24.5491 19.406 24.6577 19.4476 24.7589C19.4891 24.8602 19.55 24.9521 19.6268 25.0295L20.2951 25.7088L15.9424 30.1104C15.8295 30.2237 15.7514 30.3676 15.7176 30.5248C15.6838 30.682 15.6958 30.8458 15.752 30.9963L19.3151 40.5487H1.21196C0.890525 40.5487 0.582266 40.6779 0.354981 40.9077C0.127695 41.1375 0 41.4493 0 41.7743C0 42.0993 0.127695 42.4111 0.354981 42.6409C0.582266 42.8708 0.890525 42.9999 1.21196 42.9999H55.7915C56.1129 42.9999 56.4212 42.8708 56.6485 42.6409C56.8758 42.4111 57.0035 42.0993 57.0035 41.7743C57.0035 41.4493 56.8758 41.1375 56.6485 40.9077C56.4212 40.6779 56.1129 40.5487 55.7915 40.5487ZM42.0098 3.57855C42.5981 2.97548 43.2989 2.49656 44.0717 2.16957C44.8444 1.84257 45.6737 1.67402 46.5114 1.67369C47.2754 1.66257 48.0337 1.8091 48.7398 2.10438C49.446 2.39966 50.0851 2.83748 50.6183 3.39103C51.1514 3.94458 51.5673 4.60224 51.8406 5.32385C52.1139 6.04546 52.2387 6.81583 52.2076 7.5879C52.1623 9.24228 51.4876 10.8152 50.3239 11.979L29.6929 32.8451L21.3824 24.4412L42.0098 3.57855ZM21.462 26.8924L24.8693 30.338L21.8256 33.4159C21.6704 33.5729 21.5832 33.7858 21.5832 34.0077C21.5832 34.2297 21.6704 34.4425 21.8256 34.5995C21.9808 34.7564 22.1913 34.8446 22.4108 34.8446C22.6303 34.8446 22.8408 34.7564 22.996 34.5995L26.0397 31.5216L27.2621 32.7576L20.6621 39.4352L17.4833 30.9157L21.462 26.8924Z" fill="#010101"/>
</g>
<defs>
<clipPath id="clip0_33_108">
<rect width="57" height="43" fill="white"/>
</clipPath>
</defs>
</svg>
