<svg width="63" height="56" viewBox="0 0 63 56" fill="none" xmlns="http://www.w3.org/2000/svg">
<g clip-path="url(#clip0_29_381)">
<path d="M31.01 39.59C35.4283 39.59 39.01 36.0083 39.01 31.59C39.01 27.1717 35.4283 23.59 31.01 23.59C26.5917 23.59 23.01 27.1717 23.01 31.59C23.01 36.0083 26.5917 39.59 31.01 39.59Z" fill="#E9EAEA"/>
<path d="M60.74 7.73998H50.47L47.06 1.52999C46.8012 1.06952 46.4254 0.685558 45.9706 0.416903C45.5158 0.148247 44.9982 0.00442874 44.47 -1.29406e-05H18.41C17.8805 -0.00184358 17.3604 0.139353 16.9045 0.408656C16.4486 0.677958 16.0739 1.06537 15.82 1.52999L12.4 7.73998H2.14001C1.85729 7.73997 1.57736 7.79599 1.31642 7.90478C1.05547 8.01357 0.818665 8.17299 0.619684 8.37383C0.420703 8.57468 0.263491 8.81295 0.157129 9.0749C0.0507678 9.33685 -0.00264798 9.61728 -5.73682e-06 9.89999V53.21C-5.73682e-06 53.7775 0.225467 54.3219 0.626795 54.7232C1.02812 55.1245 1.57245 55.35 2.14001 55.35H60.74C61.3076 55.35 61.8519 55.1245 62.2532 54.7232C62.6545 54.3219 62.88 53.7775 62.88 53.21V9.89999C62.8826 9.61728 62.8292 9.33685 62.7229 9.0749C62.6165 8.81295 62.4593 8.57468 62.2603 8.37383C62.0613 8.17299 61.8245 8.01357 61.5636 7.90478C61.3026 7.79599 61.0227 7.73997 60.74 7.73998ZM31 48.1C26.6221 48.0973 22.4242 46.357 19.3286 43.2614C16.2329 40.1657 14.4926 35.9679 14.49 31.59C14.49 27.2113 16.2294 23.0119 19.3257 19.9157C22.4219 16.8194 26.6213 15.08 31 15.08C35.3787 15.08 39.5781 16.8194 42.6743 19.9157C45.7706 23.0119 47.51 27.2113 47.51 31.59C47.51 35.9687 45.7706 40.1681 42.6743 43.2643C39.5781 46.3605 35.3787 48.1 31 48.1Z" fill="#E9EAEA"/>
</g>
<defs>
<clipPath id="clip0_29_381">
<rect width="62.88" height="55.34" fill="white"/>
</clipPath>
</defs>
</svg>
