<svg width="383" height="144" viewBox="0 0 383 144" fill="none" xmlns="http://www.w3.org/2000/svg">
<g clip-path="url(#clip0_114_791)">
<path d="M379.378 102.94H375.555" stroke="#FDE2E1" stroke-linecap="round" stroke-linejoin="round"/>
<path d="M379.856 105.867H375.731" stroke="#FDE2E1" stroke-linecap="round" stroke-linejoin="round"/>
<path d="M380.321 108.782H375.919" stroke="#FDE2E1" stroke-linecap="round" stroke-linejoin="round"/>
<path d="M380.786 111.71H376.095" stroke="#FDE2E1" stroke-linecap="round" stroke-linejoin="round"/>
<path d="M381.139 114.486L380.812 114.16L381 113.833L379.894 106.583L378.825 99.5975L351.231 84.9475L347.911 83.1885L325.16 60.9747C324.707 60.5224 324.229 60.0952 323.751 59.7183L323.499 59.5173C318.111 54.9804 311.291 52.4926 304.244 52.4938H285.518V106.583H284.034V16.2959H100.828V108.506H112.612V108.795L105.066 116.12V114.976H101.079V115.944H102.991V117.2H101.079V125.556H102.991V126.812H101.079V127.792H105.091V127.026L112.637 119.713H128.61V120.492H133.93V119.65H144.582L143.325 128.006C143.785 128 144.228 127.827 144.57 127.52C144.912 127.212 145.131 126.791 145.186 126.334C145.52 123.962 146.346 121.685 147.613 119.65H150.582C149.055 122.068 148.248 124.87 148.255 127.729C148.237 130.109 148.776 132.461 149.827 134.597C150.878 136.733 152.412 138.595 154.31 140.036C156.207 141.476 158.414 142.454 160.755 142.894C163.097 143.333 165.509 143.221 167.8 142.567C170.091 141.913 172.197 140.734 173.953 139.124C175.708 137.515 177.064 135.519 177.912 133.294C178.76 131.07 179.078 128.679 178.84 126.31C178.602 123.942 177.814 121.662 176.54 119.65H179.345C180.592 121.691 181.406 123.966 181.734 126.334C181.784 126.791 181.999 127.214 182.34 127.522C182.681 127.83 183.123 128.002 183.583 128.006H183.671L182.413 119.65H190.45V124.073H186.237V126.498H195.229C195.436 126.954 195.771 127.341 196.192 127.613C196.614 127.885 197.104 128.03 197.606 128.031H197.92V127.289C198.764 127.768 199.717 128.024 200.687 128.031H215.779C216.75 128.021 217.701 127.766 218.546 127.289V128.031H218.861C219.362 128.03 219.853 127.885 220.275 127.613C220.696 127.341 221.03 126.954 221.238 126.498H227.036C227.243 126.954 227.577 127.341 227.999 127.613C228.42 127.885 228.911 128.03 229.413 128.031H229.727V127.289C230.572 127.766 231.524 128.021 232.494 128.031H268.891C269.865 128.022 270.822 127.767 271.671 127.289V128.031H271.985C272.487 128.03 272.977 127.885 273.399 127.613C273.82 127.341 274.155 126.954 274.362 126.498H284.147V124.073H279.669V119.65H285.568V129.802H325.575V128.646H328.014C328.238 132.544 329.946 136.208 332.787 138.888C335.628 141.568 339.388 143.061 343.295 143.061C347.203 143.061 350.962 141.568 353.803 138.888C356.645 136.208 358.352 132.544 358.576 128.646H359.997V130.657H370.524L379.126 127.578C380.086 127.226 380.915 126.59 381.504 125.755C382.093 124.92 382.413 123.926 382.422 122.904V117.539C382.41 116.393 381.949 115.297 381.139 114.486ZM221.414 122.339V119.65H226.709V124.073H221.439L221.414 122.339ZM191.984 119.65H194.99V124.073H191.984V119.65ZM278.085 124.073H274.551V119.65H278.085V124.073Z" fill="#FDE2E1" stroke="#FDE2E1" stroke-miterlimit="10"/>
<path d="M14.1614 116.811L218.798 116.811V102.148L14.1614 102.148V116.811Z" fill="white"/>
<path d="M218.785 117.766H14.1489C13.8997 117.762 13.6617 117.662 13.4855 117.486C13.3093 117.31 13.2089 117.072 13.2056 116.823V102.161C13.2089 101.912 13.3093 101.674 13.4855 101.498C13.6617 101.322 13.8997 101.222 14.1489 101.218H218.785C219.035 101.218 219.275 101.318 219.452 101.494C219.629 101.671 219.729 101.911 219.729 102.161V116.823C219.729 117.073 219.629 117.313 219.452 117.49C219.275 117.666 219.035 117.766 218.785 117.766ZM15.0418 115.881H217.842V103.103H15.0921L15.0418 115.881Z" fill="#020202"/>
<path d="M5.6218 112.928L14.1488 104.636V116.811L5.6218 125.091V112.928Z" fill="white"/>
<path d="M5.6218 126.046C5.49631 126.046 5.37209 126.02 5.25706 125.97C5.08598 125.899 4.93986 125.778 4.83696 125.624C4.73406 125.47 4.67895 125.289 4.67854 125.103V112.928C4.67789 112.802 4.70322 112.676 4.75296 112.559C4.80271 112.443 4.87581 112.337 4.9678 112.25L13.4948 103.97C13.6259 103.84 13.7933 103.752 13.975 103.718C14.1568 103.685 14.3445 103.707 14.5136 103.781C14.6846 103.853 14.8308 103.974 14.9337 104.128C15.0366 104.282 15.0917 104.463 15.0921 104.648V116.823C15.0927 116.95 15.0674 117.076 15.0177 117.192C14.9679 117.309 14.8948 117.414 14.8028 117.502L6.28836 125.782C6.10815 125.952 5.86959 126.046 5.6218 126.046ZM6.56505 113.33V122.867L13.2056 116.421V106.872L6.56505 113.33Z" fill="#020202"/>
<path d="M3.3454 125.87H5.69727L5.69727 111.559H3.3454L3.3454 125.87Z" fill="white"/>
<path d="M5.69728 126.825H3.34542C3.09626 126.821 2.85823 126.721 2.68204 126.545C2.50584 126.369 2.40542 126.131 2.40216 125.882V111.571C2.40542 111.323 2.50584 111.085 2.68204 110.909C2.85823 110.733 3.09626 110.632 3.34542 110.629H5.69728C5.94745 110.629 6.18736 110.728 6.36425 110.905C6.54115 111.082 6.64054 111.322 6.64054 111.571V125.933C6.62765 126.174 6.52261 126.401 6.3471 126.567C6.17158 126.733 5.93897 126.825 5.69728 126.825ZM4.28867 124.94H4.75403V112.514H4.23838L4.28867 124.94Z" fill="#020202"/>
<path d="M1.19478 112.652H5.69727V111.559H1.19478V112.652Z" fill="white"/>
<path d="M5.70984 110.617H1.20736C0.68641 110.617 0.264099 111.038 0.264099 111.559V112.652C0.264099 113.172 0.68641 113.594 1.20736 113.594H5.70984C6.23078 113.594 6.65309 113.172 6.65309 112.652V111.559C6.65309 111.038 6.23078 110.617 5.70984 110.617Z" fill="#020202"/>
<path d="M1.19478 125.87H5.69727V124.777H1.19478V125.87Z" fill="white"/>
<path d="M5.70984 123.834H1.20736C0.68641 123.834 0.264099 124.256 0.264099 124.777V125.87C0.264099 126.39 0.68641 126.812 1.20736 126.812H5.70984C6.23078 126.812 6.65309 126.39 6.65309 125.87V124.777C6.65309 124.256 6.23078 123.834 5.70984 123.834Z" fill="#020202"/>
<path d="M3.45861 114.034H1.20737V123.407H3.45861V114.034Z" fill="white"/>
<path d="M3.44601 124.349H1.19478C0.944615 124.349 0.704689 124.25 0.527794 124.073C0.350899 123.897 0.251526 123.657 0.251526 123.407V114.047C0.251526 113.797 0.350899 113.557 0.527794 113.38C0.704689 113.203 0.944615 113.104 1.19478 113.104H3.44601C3.57035 113.103 3.69378 113.126 3.80899 113.173C3.92419 113.219 4.02884 113.289 4.11676 113.376C4.20469 113.464 4.27411 113.569 4.32091 113.684C4.36772 113.799 4.39096 113.922 4.38927 114.047V123.42C4.38928 123.543 4.3648 123.665 4.31725 123.778C4.26969 123.892 4.20001 123.995 4.11225 124.082C4.0245 124.168 3.92042 124.236 3.80605 124.282C3.69168 124.328 3.56929 124.351 3.44601 124.349ZM2.18834 122.465H2.55308V114.926H2.18834V122.465Z" fill="#020202"/>
<path d="M38.0321 117.678H32.0707V111.282C32.0707 110.493 32.3847 109.735 32.9437 109.177C33.5027 108.618 34.2609 108.305 35.0514 108.305C35.8419 108.305 36.6001 108.618 37.1591 109.177C37.7181 109.735 38.0321 110.493 38.0321 111.282V117.678Z" fill="white"/>
<path d="M38.0195 118.645H32.0582C31.809 118.642 31.571 118.542 31.3948 118.366C31.2186 118.19 31.1182 117.952 31.1149 117.703V111.295C31.1149 110.255 31.5283 109.258 32.2642 108.523C33.0001 107.788 33.9982 107.375 35.0389 107.375C36.0796 107.375 37.0776 107.788 37.8135 108.523C38.5494 109.258 38.9628 110.255 38.9628 111.295V117.703C38.9628 117.953 38.8634 118.192 38.6865 118.369C38.5096 118.546 38.2697 118.645 38.0195 118.645ZM32.9888 116.76H37.0637V111.295C37.0637 110.755 36.8491 110.237 36.467 109.856C36.0849 109.474 35.5666 109.26 35.0263 109.26C34.4859 109.26 33.9677 109.474 33.5856 109.856C33.2035 110.237 32.9888 110.755 32.9888 111.295V116.76Z" fill="#020202"/>
<path d="M35.0514 113.067C35.9127 113.067 36.611 112.369 36.611 111.509C36.611 110.648 35.9127 109.951 35.0514 109.951C34.1901 109.951 33.4919 110.648 33.4919 111.509C33.4919 112.369 34.1901 113.067 35.0514 113.067Z" fill="white"/>
<path d="M35.0389 114.009C34.5414 114.009 34.055 113.862 33.6414 113.585C33.2278 113.309 32.9054 112.917 32.715 112.458C32.5246 111.999 32.4748 111.493 32.5718 111.006C32.6689 110.518 32.9085 110.071 33.2602 109.719C33.612 109.368 34.0602 109.128 34.5481 109.031C35.0361 108.934 35.5418 108.984 36.0014 109.174C36.4611 109.365 36.8539 109.687 37.1303 110.1C37.4067 110.513 37.5542 110.999 37.5542 111.496C37.5542 112.163 37.2892 112.802 36.8175 113.273C36.3458 113.744 35.706 114.009 35.0389 114.009ZM35.0389 110.906C34.8788 110.906 34.7252 110.969 34.612 111.082C34.4988 111.195 34.4352 111.349 34.4352 111.509C34.4352 111.675 34.5014 111.835 34.6194 111.953C34.7373 112.071 34.8972 112.137 35.064 112.137C35.2308 112.137 35.3907 112.071 35.5087 111.953C35.6266 111.835 35.6928 111.675 35.6928 111.509C35.7005 111.421 35.6889 111.333 35.6587 111.25C35.6286 111.167 35.5806 111.092 35.5183 111.03C35.456 110.967 35.3808 110.919 35.2979 110.889C35.2151 110.859 35.1267 110.848 35.0389 110.855V110.906Z" fill="#020202"/>
<path d="M73.9849 142.831C83.3549 141.297 89.7056 132.464 88.1695 123.104C86.6334 113.743 77.7923 107.398 68.4222 108.933C59.0522 110.467 52.7015 119.3 54.2376 128.661C55.7737 138.021 64.6148 144.366 73.9849 142.831Z" fill="white"/>
<path d="M71.2222 144C67.6331 144 64.1248 142.936 61.1413 140.943C58.1578 138.95 55.8334 136.117 54.4622 132.804C53.0911 129.49 52.7349 125.845 53.4387 122.329C54.1426 118.813 55.8748 115.585 58.4162 113.053C60.9576 110.521 64.1937 108.8 67.715 108.106C71.2363 107.413 74.8843 107.779 78.1973 109.158C81.5103 110.537 84.3392 112.867 86.3259 115.853C88.3126 118.839 89.3678 122.347 89.3579 125.932C89.3379 130.727 87.4192 135.318 84.021 138.704C80.6228 142.089 76.0213 143.993 71.2222 144ZM71.2222 109.649C68.0105 109.649 64.8709 110.6 62.1999 112.381C59.5288 114.163 57.4461 116.695 56.2148 119.659C54.9834 122.622 54.6587 125.883 55.2816 129.031C55.9046 132.178 57.4472 135.071 59.7146 137.343C61.9821 139.615 64.8727 141.165 68.0214 141.797C71.1701 142.429 74.4357 142.115 77.4057 140.894C80.3757 139.673 82.9169 137.6 84.7084 134.937C86.5 132.275 87.4614 129.141 87.4713 125.932C87.4813 123.793 87.0685 121.673 86.2566 119.693C85.4448 117.714 84.2499 115.914 82.7404 114.396C81.2308 112.879 79.4363 111.674 77.4598 110.851C75.4833 110.028 73.3636 109.602 71.2222 109.599V109.649Z" fill="#020202"/>
<path d="M71.2222 137.642C68.8939 137.642 66.6179 136.953 64.6821 135.66C62.7462 134.368 61.2374 132.532 60.3464 130.383C59.4554 128.234 59.2223 125.869 59.6765 123.588C60.1307 121.307 61.2519 119.211 62.8982 117.566C64.5445 115.922 66.6421 114.802 68.9256 114.348C71.2091 113.894 73.576 114.127 75.7271 115.017C77.8781 115.907 79.7166 117.415 81.0101 119.349C82.3036 121.283 82.994 123.556 82.994 125.882C82.9907 129 81.7494 131.99 79.5424 134.194C77.3355 136.399 74.3432 137.639 71.2222 137.642ZM71.2222 115.378C69.1427 115.378 67.1099 115.994 65.3808 117.149C63.6518 118.303 62.3041 119.943 61.5083 121.863C60.7125 123.782 60.5043 125.894 60.91 127.931C61.3157 129.969 62.3171 131.84 63.7875 133.309C65.258 134.778 67.1314 135.779 69.171 136.184C71.2105 136.589 73.3245 136.381 75.2458 135.586C77.167 134.791 78.8091 133.445 79.9644 131.718C81.1197 129.99 81.7363 127.96 81.7363 125.882C81.733 123.097 80.6242 120.428 78.6531 118.459C76.6821 116.489 74.0097 115.382 71.2222 115.378Z" fill="#020202"/>
<path d="M72.0209 130.881C74.7938 130.45 76.692 127.855 76.2608 125.085C75.8295 122.315 73.2321 120.419 70.4593 120.849C67.6864 121.28 65.7882 123.875 66.2195 126.645C66.6507 129.415 69.2481 131.312 72.0209 130.881Z" fill="#FDE2E1"/>
<path d="M71.2222 131.901C70.0307 131.901 68.866 131.548 67.8753 130.886C66.8846 130.225 66.1124 129.285 65.6565 128.185C65.2005 127.086 65.0812 125.876 65.3137 124.708C65.5461 123.541 66.1199 122.468 66.9624 121.627C67.8049 120.785 68.8783 120.212 70.0469 119.98C71.2155 119.747 72.4268 119.867 73.5276 120.322C74.6283 120.778 75.5692 121.549 76.2312 122.539C76.8931 123.528 77.2464 124.692 77.2464 125.882C77.2464 127.478 76.6118 129.009 75.482 130.138C74.3522 131.266 72.8199 131.901 71.2222 131.901ZM71.2222 121.749C70.4038 121.749 69.6038 121.991 68.9234 122.445C68.2429 122.899 67.7126 123.545 67.3994 124.3C67.0862 125.056 67.0043 125.887 67.1639 126.689C67.3236 127.491 67.7177 128.227 68.2963 128.805C68.875 129.383 69.6123 129.777 70.4149 129.936C71.2176 130.096 72.0495 130.014 72.8056 129.701C73.5617 129.388 74.2079 128.859 74.6626 128.179C75.1172 127.499 75.3599 126.7 75.3599 125.882C75.3566 124.787 74.9196 123.737 74.1443 122.963C73.3691 122.188 72.3185 121.752 71.2222 121.749Z" fill="#020202"/>
<path d="M70.543 117.602C70.5414 117.704 70.56 117.805 70.5978 117.899C70.6356 117.994 70.6918 118.08 70.7633 118.152C70.8347 118.225 70.9198 118.283 71.0137 118.322C71.1076 118.361 71.2084 118.381 71.3102 118.381C71.517 118.381 71.7154 118.299 71.8616 118.153C72.0078 118.007 72.09 117.809 72.09 117.602C72.09 117.501 72.0697 117.4 72.0304 117.306C71.9911 117.212 71.9334 117.127 71.8608 117.056C71.7883 116.985 71.7022 116.928 71.6077 116.891C71.5131 116.853 71.412 116.834 71.3102 116.836C71.1068 116.836 70.9116 116.917 70.7677 117.06C70.6239 117.204 70.543 117.399 70.543 117.602Z" fill="#020202"/>
<path d="M68.0151 118.218C68.0452 118.315 68.0942 118.405 68.1592 118.483C68.2243 118.56 68.3042 118.624 68.3943 118.671C68.4844 118.718 68.5828 118.746 68.684 118.755C68.7851 118.763 68.8869 118.752 68.9835 118.721C69.0923 118.7 69.1953 118.656 69.2859 118.593C69.3765 118.529 69.4525 118.447 69.5089 118.352C69.5652 118.257 69.6007 118.151 69.6129 118.041C69.625 117.931 69.6136 117.82 69.5794 117.715C69.5453 117.609 69.489 117.513 69.4146 117.431C69.3401 117.349 69.249 117.284 69.1474 117.24C69.0459 117.196 68.9361 117.175 68.8254 117.176C68.7148 117.178 68.6058 117.203 68.5056 117.251C68.4088 117.28 68.319 117.329 68.2416 117.395C68.1641 117.46 68.1006 117.54 68.0549 117.63C68.0091 117.72 67.982 117.819 67.9752 117.92C67.9683 118.021 67.9819 118.122 68.0151 118.218Z" fill="#020202"/>
<path d="M65.8645 119.65C65.9233 119.734 65.9981 119.804 66.0846 119.858C66.1711 119.913 66.2675 119.949 66.3683 119.965C66.469 119.982 66.572 119.978 66.6712 119.954C66.7704 119.93 66.8639 119.887 66.9461 119.826C67.1098 119.704 67.2187 119.522 67.2493 119.319C67.2799 119.117 67.2297 118.911 67.1096 118.746C67.0508 118.662 66.9759 118.592 66.8894 118.537C66.8029 118.483 66.7065 118.447 66.6058 118.431C66.505 118.414 66.402 118.418 66.3028 118.442C66.2036 118.466 66.1102 118.509 66.028 118.57C65.8642 118.692 65.7553 118.874 65.7247 119.077C65.6941 119.279 65.7443 119.485 65.8645 119.65Z" fill="#020202"/>
<path d="M64.1163 121.573C64.2412 121.664 64.3904 121.716 64.545 121.722C64.6995 121.728 64.8523 121.688 64.9841 121.607C65.1158 121.526 65.2205 121.408 65.2849 121.268C65.3492 121.127 65.3703 120.971 65.3455 120.818C65.3207 120.666 65.251 120.524 65.1454 120.411C65.0397 120.298 64.9029 120.219 64.7523 120.184C64.6017 120.15 64.444 120.16 64.2994 120.215C64.1548 120.27 64.0298 120.366 63.9402 120.492C63.8798 120.574 63.8363 120.668 63.8124 120.767C63.7885 120.866 63.7847 120.969 63.8011 121.069C63.8175 121.17 63.8538 121.266 63.9079 121.353C63.9621 121.439 64.0329 121.514 64.1163 121.573Z" fill="#020202"/>
<path d="M63.1228 123.972C63.2193 124.006 63.3216 124.02 63.4235 124.013C63.5254 124.006 63.625 123.979 63.7164 123.934C63.8078 123.888 63.8891 123.825 63.9556 123.747C64.0221 123.67 64.0725 123.58 64.1037 123.482C64.1509 123.382 64.1762 123.274 64.1779 123.163C64.1797 123.052 64.1579 122.943 64.1139 122.841C64.07 122.74 64.0049 122.649 63.923 122.574C63.8412 122.5 63.7444 122.444 63.6391 122.41C63.5339 122.376 63.4225 122.364 63.3125 122.376C63.2025 122.388 63.0964 122.424 63.0011 122.48C62.9059 122.537 62.8237 122.612 62.7601 122.703C62.6965 122.793 62.6529 122.896 62.6322 123.005C62.599 123.101 62.5855 123.202 62.5923 123.303C62.5991 123.404 62.6262 123.502 62.672 123.593C62.7178 123.683 62.7813 123.763 62.8587 123.828C62.9362 123.894 63.026 123.943 63.1228 123.972Z" fill="#020202"/>
<path d="M62.9341 126.573C63.1409 126.573 63.3392 126.491 63.4855 126.345C63.6317 126.199 63.7138 126.001 63.7138 125.794C63.7138 125.588 63.6317 125.389 63.4855 125.243C63.3392 125.097 63.1409 125.015 62.9341 125.015C62.7273 125.015 62.5289 125.097 62.3827 125.243C62.2365 125.389 62.1543 125.588 62.1543 125.794C62.1543 126.001 62.2365 126.199 62.3827 126.345C62.5289 126.491 62.7273 126.573 62.9341 126.573Z" fill="#020202"/>
<path d="M63.5504 129.099C63.6591 129.078 63.7622 129.034 63.8527 128.971C63.9433 128.907 64.0193 128.825 64.0757 128.73C64.1321 128.635 64.1675 128.529 64.1797 128.419C64.1918 128.309 64.1804 128.198 64.1463 128.093C64.1121 127.988 64.0559 127.891 63.9814 127.809C63.9069 127.727 63.8159 127.662 63.7143 127.618C63.6127 127.575 63.5029 127.553 63.3923 127.555C63.2816 127.556 63.1726 127.582 63.0724 127.629C62.9007 127.709 62.7644 127.85 62.689 128.024C62.6136 128.198 62.6044 128.394 62.663 128.574C62.7217 128.754 62.8441 128.907 63.0075 129.004C63.1709 129.1 63.3639 129.134 63.5504 129.099Z" fill="#020202"/>
<path d="M64.9212 131.31C65.0473 131.221 65.1438 131.096 65.1987 130.951C65.2535 130.807 65.2641 130.649 65.2291 130.499C65.1941 130.348 65.1151 130.212 65.0022 130.106C64.8893 130.001 64.7475 129.931 64.5948 129.906C64.4422 129.881 64.2857 129.902 64.145 129.967C64.0044 130.031 63.8861 130.136 63.8052 130.267C63.7242 130.399 63.6843 130.552 63.6904 130.706C63.6965 130.86 63.7485 131.009 63.8396 131.134C63.8984 131.217 63.9732 131.288 64.0597 131.342C64.1463 131.396 64.2427 131.433 64.3434 131.449C64.4441 131.465 64.5471 131.462 64.6463 131.438C64.7456 131.414 64.839 131.37 64.9212 131.31Z" fill="#020202"/>
<path d="M66.9084 132.994C66.9688 132.911 67.0123 132.818 67.0362 132.719C67.0601 132.62 67.0639 132.517 67.0475 132.416C67.0311 132.316 66.9948 132.219 66.9407 132.133C66.8866 132.047 66.8157 131.972 66.7323 131.913C66.5666 131.793 66.3604 131.743 66.158 131.774C65.9557 131.804 65.7735 131.913 65.6507 132.076C65.5902 132.159 65.5468 132.252 65.5229 132.351C65.499 132.45 65.4951 132.553 65.5115 132.654C65.5279 132.754 65.5642 132.851 65.6184 132.937C65.6725 133.023 65.7434 133.098 65.8268 133.157C65.9924 133.277 66.1987 133.327 66.401 133.297C66.6034 133.266 66.7856 133.157 66.9084 132.994Z" fill="#020202"/>
<path d="M69.3231 133.974C69.3704 133.827 69.3731 133.67 69.3309 133.521C69.2887 133.373 69.2034 133.241 69.0859 133.141C68.9683 133.041 68.8238 132.979 68.6706 132.961C68.5174 132.943 68.3624 132.971 68.2251 133.041C68.0879 133.112 67.9746 133.221 67.8996 133.356C67.8246 133.491 67.7912 133.644 67.8038 133.798C67.8163 133.951 67.8741 134.098 67.9699 134.219C68.0658 134.339 68.1953 134.429 68.3421 134.476C68.5389 134.536 68.7514 134.517 68.9344 134.423C69.1175 134.329 69.2569 134.168 69.3231 133.974Z" fill="#020202"/>
<path d="M71.9139 134.162C71.9139 134.06 71.8937 133.96 71.8544 133.866C71.815 133.772 71.7574 133.687 71.6848 133.616C71.6122 133.544 71.5262 133.488 71.4316 133.45C71.3371 133.413 71.236 133.394 71.1342 133.396C70.9307 133.396 70.7356 133.476 70.5917 133.62C70.4478 133.764 70.367 133.959 70.367 134.162C70.3653 134.264 70.3839 134.365 70.4217 134.459C70.4595 134.554 70.5158 134.64 70.5872 134.712C70.6586 134.785 70.7437 134.842 70.8376 134.882C70.9315 134.921 71.0324 134.941 71.1342 134.941C71.341 134.941 71.5393 134.859 71.6855 134.713C71.8318 134.567 71.9139 134.369 71.9139 134.162Z" fill="#020202"/>
<path d="M74.4418 133.546C74.3759 133.352 74.2358 133.192 74.0522 133.1C73.8685 133.008 73.656 132.993 73.4608 133.056C73.2891 133.137 73.1528 133.278 73.0774 133.452C73.002 133.626 72.9928 133.821 73.0514 134.002C73.11 134.182 73.2325 134.335 73.3959 134.432C73.5593 134.528 73.7523 134.562 73.9388 134.527C74.1336 134.46 74.295 134.321 74.3889 134.138C74.4828 133.955 74.5018 133.743 74.4418 133.546Z" fill="#020202"/>
<path d="M76.6553 132.215C76.5326 132.051 76.3504 131.942 76.148 131.912C75.9457 131.881 75.7394 131.931 75.5737 132.051C75.4903 132.11 75.4195 132.185 75.3654 132.271C75.3112 132.358 75.2749 132.454 75.2585 132.555C75.2421 132.655 75.246 132.758 75.2699 132.857C75.2938 132.956 75.3372 133.05 75.3977 133.132C75.5204 133.295 75.7027 133.404 75.905 133.435C76.1073 133.465 76.3136 133.415 76.4793 133.295C76.5627 133.236 76.6335 133.162 76.6877 133.075C76.7418 132.989 76.7781 132.892 76.7945 132.792C76.8109 132.691 76.8071 132.588 76.7832 132.489C76.7593 132.39 76.7158 132.297 76.6553 132.215Z" fill="#020202"/>
<path d="M78.3406 130.192C78.2585 130.125 78.1637 130.075 78.0617 130.046C77.9598 130.017 77.853 130.008 77.7478 130.022C77.6427 130.035 77.5413 130.07 77.4501 130.124C77.3588 130.178 77.2794 130.25 77.2169 130.335C77.1544 130.421 77.11 130.518 77.0864 130.622C77.0629 130.725 77.0607 130.832 77.0799 130.936C77.0991 131.04 77.1395 131.139 77.1984 131.227C77.2573 131.315 77.3335 131.391 77.4225 131.448C77.5047 131.509 77.5981 131.552 77.6974 131.576C77.7966 131.6 77.8996 131.604 78.0003 131.587C78.101 131.571 78.1974 131.535 78.284 131.481C78.3705 131.426 78.4453 131.356 78.5041 131.272C78.6242 131.107 78.6744 130.901 78.6438 130.699C78.6132 130.496 78.5043 130.314 78.3406 130.192Z" fill="#020202"/>
<path d="M79.3216 127.792C79.1748 127.741 79.0163 127.736 78.8663 127.776C78.7163 127.816 78.5817 127.9 78.4797 128.016C78.3776 128.133 78.3129 128.278 78.2937 128.432C78.2744 128.586 78.3017 128.742 78.3718 128.88C78.4419 129.019 78.5518 129.133 78.6874 129.209C78.823 129.284 78.978 129.318 79.1327 129.305C79.2874 129.292 79.4348 129.233 79.5558 129.136C79.6768 129.039 79.7661 128.908 79.8121 128.759C79.8453 128.664 79.8589 128.562 79.8521 128.461C79.8452 128.361 79.8181 128.262 79.7723 128.172C79.7266 128.081 79.6631 128.001 79.5856 127.936C79.5082 127.871 79.4184 127.822 79.3216 127.792Z" fill="#020202"/>
<path d="M79.5103 125.191C79.4085 125.191 79.3076 125.211 79.2137 125.251C79.1198 125.29 79.0347 125.348 78.9633 125.42C78.8919 125.493 78.8356 125.579 78.7978 125.673C78.76 125.768 78.7414 125.869 78.7431 125.97C78.7414 126.072 78.76 126.173 78.7978 126.267C78.8356 126.362 78.8919 126.448 78.9633 126.52C79.0347 126.593 79.1198 126.65 79.2137 126.69C79.3076 126.729 79.4085 126.749 79.5103 126.749C79.7161 126.746 79.9125 126.663 80.058 126.517C80.2036 126.372 80.2868 126.176 80.29 125.97C80.29 125.868 80.2698 125.767 80.2307 125.672C80.1915 125.578 80.134 125.492 80.0616 125.419C79.9892 125.347 79.9033 125.29 79.8087 125.251C79.7141 125.211 79.6127 125.191 79.5103 125.191Z" fill="#020202"/>
<path d="M78.894 122.666C78.7853 122.686 78.6822 122.73 78.5916 122.793C78.501 122.857 78.4251 122.939 78.3687 123.034C78.3123 123.129 78.2769 123.235 78.2647 123.345C78.2525 123.455 78.2639 123.566 78.2981 123.672C78.3323 123.777 78.3885 123.873 78.463 123.955C78.5375 124.037 78.6285 124.102 78.7301 124.146C78.8317 124.19 78.9415 124.212 79.0521 124.21C79.1628 124.208 79.2718 124.183 79.3719 124.136C79.5658 124.072 79.727 123.935 79.8211 123.755C79.9151 123.574 79.9345 123.363 79.875 123.168C79.8088 122.974 79.6694 122.812 79.4863 122.719C79.3033 122.625 79.0908 122.606 78.894 122.666Z" fill="#020202"/>
<path d="M77.5231 120.454C77.3971 120.544 77.3005 120.669 77.2457 120.813C77.1909 120.958 77.1803 121.115 77.2153 121.266C77.2502 121.416 77.3292 121.553 77.4422 121.658C77.5551 121.764 77.6969 121.833 77.8495 121.858C78.0021 121.883 78.1587 121.862 78.2993 121.798C78.4399 121.733 78.5582 121.629 78.6392 121.497C78.7201 121.366 78.7601 121.213 78.7539 121.059C78.7478 120.904 78.6959 120.755 78.6047 120.63C78.546 120.547 78.4711 120.476 78.3846 120.422C78.2981 120.368 78.2017 120.332 78.1009 120.315C78.0002 120.299 77.8972 120.303 77.798 120.327C77.6988 120.351 77.6054 120.394 77.5231 120.454Z" fill="#020202"/>
<path d="M75.536 118.783C75.4623 118.865 75.4066 118.961 75.3726 119.065C75.3386 119.169 75.3269 119.279 75.3385 119.388C75.35 119.497 75.3845 119.603 75.4396 119.698C75.4947 119.792 75.5692 119.874 75.6583 119.939C75.7474 120.003 75.849 120.047 75.9565 120.069C76.064 120.091 76.1749 120.091 76.2821 120.067C76.3892 120.043 76.4902 119.997 76.5784 119.932C76.6665 119.867 76.7399 119.784 76.7937 119.688C76.9125 119.521 76.9606 119.314 76.9277 119.112C76.8947 118.909 76.7833 118.728 76.6176 118.607C76.5354 118.547 76.4419 118.504 76.3427 118.48C76.2435 118.456 76.1405 118.452 76.0398 118.468C75.9391 118.485 75.8426 118.521 75.7561 118.575C75.6696 118.629 75.5948 118.7 75.536 118.783Z" fill="#020202"/>
<path d="M73.1213 117.803C73.0618 117.998 73.0811 118.209 73.1752 118.39C73.2692 118.57 73.4305 118.707 73.6243 118.771C73.8108 118.806 74.0038 118.772 74.1672 118.676C74.3306 118.579 74.4531 118.426 74.5117 118.246C74.5703 118.066 74.5611 117.87 74.4857 117.696C74.4103 117.522 74.274 117.382 74.1023 117.301C74.0049 117.268 73.9019 117.254 73.7993 117.262C73.6967 117.269 73.5967 117.297 73.5052 117.344C73.4136 117.391 73.3325 117.456 73.2666 117.535C73.2006 117.614 73.1512 117.705 73.1213 117.803Z" fill="#020202"/>
<path d="M93.7094 126.196C93.1932 126.191 92.6967 125.998 92.3125 125.653C91.9283 125.309 91.6827 124.836 91.6217 124.324C90.8631 119.442 88.3816 114.991 84.6256 111.776C80.8695 108.561 76.0865 106.794 71.1404 106.794C66.1944 106.794 61.4113 108.561 57.6553 111.776C53.8992 114.991 51.4178 119.442 50.6592 124.324C50.5981 124.836 50.3526 125.309 49.9684 125.653C49.5842 125.998 49.0877 126.191 48.5714 126.196L51.9546 103.581H90.4269L93.81 126.196H93.7094Z" fill="white"/>
<path d="M93.81 127.189H93.7094C92.9655 127.182 92.2494 126.906 91.6942 126.412C91.1389 125.917 90.7824 125.238 90.691 124.5C89.9688 119.838 87.601 115.587 84.0154 112.517C80.4298 109.446 75.863 107.759 71.1404 107.759C66.4179 107.759 61.8511 109.446 58.2655 112.517C54.6799 115.587 52.312 119.838 51.5899 124.5C51.4984 125.238 51.1419 125.917 50.5867 126.412C50.0315 126.906 49.3153 127.182 48.5714 127.189C48.4357 127.188 48.3017 127.158 48.1782 127.102C48.0547 127.045 47.9445 126.964 47.8546 126.862C47.7689 126.758 47.7057 126.637 47.669 126.508C47.6322 126.378 47.6226 126.242 47.6408 126.108L51.0239 103.493C51.0545 103.268 51.1659 103.063 51.3372 102.915C51.5086 102.767 51.7281 102.686 51.9546 102.688H90.4143C90.6423 102.686 90.8634 102.766 91.0368 102.914C91.2102 103.062 91.3242 103.267 91.3576 103.493L94.7407 126.108C94.7628 126.242 94.7552 126.38 94.7184 126.511C94.6816 126.641 94.6165 126.763 94.5278 126.866C94.4391 126.969 94.3289 127.051 94.2048 127.107C94.0808 127.163 93.9461 127.191 93.81 127.189ZM71.1719 105.829C76.1882 105.847 81.0445 107.595 84.9196 110.777C88.7948 113.959 91.451 118.381 92.4392 123.294L89.6345 104.447H52.7721L50.1687 121.811C51.4492 117.23 54.1902 113.191 57.976 110.307C61.7618 107.423 66.3858 105.851 71.1467 105.829H71.1719Z" fill="#020202"/>
<path d="M96.6901 116.044L206.41 116.044V113.318L96.6901 113.318V116.044Z" fill="#FDE2E1"/>
<path d="M206.41 116.999H96.6901C96.4399 116.999 96.2 116.9 96.0231 116.723C95.8462 116.547 95.7469 116.307 95.7469 116.057V113.368C95.7469 113.118 95.8462 112.878 96.0231 112.702C96.2 112.525 96.4399 112.426 96.6901 112.426H206.41C206.66 112.426 206.9 112.525 207.077 112.702C207.254 112.878 207.353 113.118 207.353 113.368V116.095C207.343 116.338 207.24 116.568 207.064 116.737C206.888 116.905 206.654 116.999 206.41 116.999ZM97.6334 115.115H205.466V114.273H97.6334V115.115Z" fill="#020202"/>
<path d="M96.6901 124.5L206.41 124.5V121.774L96.6901 121.774V124.5Z" fill="#FDE2E1"/>
<path d="M206.41 125.442H96.6901C96.5658 125.444 96.4424 125.421 96.3272 125.374C96.212 125.327 96.1073 125.258 96.0194 125.17C95.9314 125.082 95.862 124.978 95.8152 124.863C95.7684 124.748 95.7452 124.624 95.7469 124.5V121.786C95.7452 121.662 95.7684 121.539 95.8152 121.424C95.862 121.309 95.9314 121.204 96.0194 121.116C96.1073 121.028 96.212 120.959 96.3272 120.912C96.4424 120.865 96.5658 120.842 96.6901 120.844H206.41C206.534 120.842 206.658 120.865 206.773 120.912C206.888 120.959 206.993 121.028 207.08 121.116C207.168 121.204 207.238 121.309 207.285 121.424C207.331 121.539 207.355 121.662 207.353 121.786V124.5C207.355 124.624 207.331 124.748 207.285 124.863C207.238 124.978 207.168 125.082 207.08 125.17C206.993 125.258 206.888 125.327 206.773 125.374C206.658 125.421 206.534 125.444 206.41 125.442ZM97.6334 123.558H205.466V122.729H97.6334V123.558Z" fill="#020202"/>
<path d="M199.681 124.362H201.404V103.153H199.681V124.362Z" fill="#FDE2E1"/>
<path d="M201.404 102.211H199.681C199.16 102.211 198.738 102.633 198.738 103.153V124.362C198.738 124.882 199.16 125.304 199.681 125.304H201.404C201.925 125.304 202.347 124.882 202.347 124.362V103.153C202.347 102.633 201.925 102.211 201.404 102.211Z" fill="#020202"/>
<path d="M101.419 124.362H103.142V103.153H101.419V124.362Z" fill="#FDE2E1"/>
<path d="M103.142 102.211H101.419C100.898 102.211 100.476 102.633 100.476 103.153V124.362C100.476 124.882 100.898 125.304 101.419 125.304H103.142C103.663 125.304 104.085 124.882 104.085 124.362V103.153C104.085 102.633 103.663 102.211 103.142 102.211Z" fill="#020202"/>
<path d="M147.802 126.221H189.997C193.151 126.221 195.707 123.668 195.707 120.517V113.871C195.707 110.72 193.151 108.166 189.997 108.166H147.802C144.649 108.166 142.092 110.72 142.092 113.871V120.517C142.092 123.668 144.649 126.221 147.802 126.221Z" fill="white"/>
<path d="M189.997 127.189H147.815C146.05 127.189 144.358 126.489 143.11 125.242C141.862 123.996 141.162 122.305 141.162 120.542V113.908C141.162 112.146 141.862 110.455 143.11 109.209C144.358 107.962 146.05 107.262 147.815 107.262H189.997C191.762 107.262 193.454 107.962 194.702 109.209C195.949 110.455 196.65 112.146 196.65 113.908V120.542C196.65 122.305 195.949 123.996 194.702 125.242C193.454 126.489 191.762 127.189 189.997 127.189ZM147.815 109.146C147.189 109.146 146.569 109.27 145.991 109.509C145.412 109.748 144.887 110.099 144.444 110.541C144.002 110.983 143.65 111.508 143.411 112.086C143.171 112.664 143.048 113.283 143.048 113.908V120.542C143.048 121.168 143.171 121.787 143.411 122.365C143.65 122.942 144.002 123.467 144.444 123.91C144.887 124.352 145.412 124.702 145.991 124.942C146.569 125.181 147.189 125.304 147.815 125.304H189.997C191.261 125.304 192.474 124.803 193.368 123.91C194.261 123.016 194.764 121.805 194.764 120.542V113.908C194.764 112.645 194.261 111.434 193.368 110.541C192.474 109.648 191.261 109.146 189.997 109.146H147.815Z" fill="#020202"/>
<path d="M142.105 112.727V111.107C142.105 110.722 142.181 110.341 142.328 109.986C142.475 109.631 142.691 109.308 142.963 109.037C143.235 108.765 143.558 108.549 143.914 108.402C144.269 108.255 144.65 108.179 145.035 108.179H192.827C193.212 108.179 193.593 108.255 193.948 108.402C194.304 108.549 194.627 108.765 194.899 109.037C195.171 109.308 195.387 109.631 195.534 109.986C195.681 110.341 195.757 110.722 195.757 111.107V112.727H142.105Z" fill="white"/>
<path d="M195.707 113.67H142.105C141.855 113.67 141.615 113.57 141.438 113.394C141.261 113.217 141.162 112.977 141.162 112.727V111.107C141.162 110.08 141.57 109.096 142.296 108.37C143.023 107.644 144.008 107.237 145.035 107.237H192.827C193.848 107.247 194.823 107.659 195.542 108.383C196.26 109.108 196.663 110.087 196.663 111.107V112.727C196.663 112.852 196.638 112.976 196.59 113.091C196.542 113.206 196.471 113.31 196.382 113.398C196.293 113.486 196.188 113.555 196.072 113.602C195.956 113.648 195.832 113.671 195.707 113.67ZM143.048 111.785H194.764V111.107C194.764 110.58 194.554 110.075 194.182 109.703C193.809 109.33 193.304 109.121 192.777 109.121H145.098C144.571 109.121 144.066 109.33 143.693 109.703C143.32 110.075 143.111 110.58 143.111 111.107L143.048 111.785Z" fill="#020202"/>
<path d="M154.292 108.167H151.135V126.221H154.292V108.167Z" fill="white"/>
<path d="M154.292 127.189H151.135C150.885 127.189 150.645 127.09 150.468 126.913C150.291 126.736 150.192 126.496 150.192 126.247V108.179C150.192 107.929 150.291 107.689 150.468 107.513C150.645 107.336 150.885 107.237 151.135 107.237H154.292C154.542 107.237 154.782 107.336 154.959 107.513C155.136 107.689 155.235 107.929 155.235 108.179V126.221C155.238 126.347 155.216 126.472 155.17 126.59C155.125 126.707 155.056 126.814 154.968 126.904C154.88 126.994 154.775 127.066 154.659 127.115C154.542 127.164 154.418 127.189 154.292 127.189ZM152.078 125.304H153.336V109.121H152.078V125.304Z" fill="#020202"/>
<path d="M186.966 108.167H183.809V126.221H186.966V108.167Z" fill="white"/>
<path d="M186.966 127.189H183.809C183.559 127.189 183.319 127.09 183.142 126.913C182.965 126.736 182.866 126.496 182.866 126.247V108.179C182.866 107.929 182.965 107.689 183.142 107.513C183.319 107.336 183.559 107.237 183.809 107.237H186.966C187.216 107.237 187.456 107.336 187.633 107.513C187.81 107.689 187.909 107.929 187.909 108.179V126.221C187.913 126.347 187.891 126.472 187.845 126.59C187.799 126.707 187.73 126.814 187.642 126.904C187.554 126.994 187.449 127.066 187.333 127.115C187.217 127.164 187.092 127.189 186.966 127.189ZM184.753 125.304H186.01V109.121H184.753V125.304Z" fill="#020202"/>
<path d="M192.412 108.179H192.777C193.554 108.179 194.299 108.487 194.849 109.037C195.398 109.586 195.707 110.33 195.707 111.107V123.281C195.709 123.667 195.634 124.049 195.487 124.406C195.341 124.762 195.125 125.086 194.853 125.36C194.581 125.633 194.257 125.85 193.901 125.997C193.544 126.145 193.162 126.221 192.777 126.221H192.412V108.179Z" fill="white"/>
<path d="M192.777 127.189H192.412C192.162 127.189 191.922 127.09 191.745 126.913C191.568 126.736 191.469 126.497 191.469 126.247V108.179C191.469 107.929 191.568 107.689 191.745 107.513C191.922 107.336 192.162 107.237 192.412 107.237H192.777C193.286 107.235 193.791 107.334 194.263 107.528C194.734 107.721 195.163 108.006 195.524 108.366C195.885 108.725 196.171 109.152 196.367 109.623C196.562 110.093 196.663 110.597 196.663 111.107V123.281C196.668 123.794 196.571 124.302 196.378 124.777C196.184 125.251 195.899 125.683 195.537 126.047C195.176 126.41 194.745 126.698 194.272 126.894C193.798 127.091 193.289 127.191 192.777 127.189ZM193.355 109.222V125.216C193.764 125.092 194.123 124.839 194.376 124.495C194.63 124.151 194.766 123.734 194.764 123.306V111.107C194.764 110.68 194.627 110.264 194.374 109.92C194.12 109.576 193.763 109.323 193.355 109.197V109.222Z" fill="#020202"/>
<path d="M145.4 108.179H145.098C144.713 108.179 144.332 108.255 143.977 108.402C143.621 108.549 143.298 108.765 143.026 109.037C142.754 109.308 142.538 109.631 142.391 109.986C142.243 110.341 142.168 110.722 142.168 111.107V123.281C142.166 123.667 142.241 124.049 142.387 124.406C142.534 124.762 142.749 125.086 143.022 125.36C143.294 125.633 143.617 125.85 143.974 125.997C144.33 126.145 144.712 126.221 145.098 126.221H145.463L145.4 108.179Z" fill="white"/>
<path d="M145.4 127.189H145.098C144.588 127.189 144.084 127.088 143.613 126.893C143.142 126.698 142.714 126.412 142.355 126.051C141.995 125.69 141.71 125.262 141.516 124.791C141.322 124.32 141.223 123.816 141.224 123.306V111.107C141.224 110.08 141.633 109.096 142.359 108.37C143.085 107.644 144.071 107.237 145.098 107.237H145.463C145.713 107.237 145.953 107.336 146.13 107.513C146.307 107.689 146.406 107.929 146.406 108.179V126.221C146.41 126.353 146.386 126.483 146.336 126.605C146.287 126.727 146.212 126.837 146.117 126.928C146.023 127.019 145.91 127.089 145.786 127.134C145.663 127.179 145.531 127.198 145.4 127.189ZM144.457 109.222C144.048 109.348 143.691 109.602 143.438 109.945C143.184 110.289 143.048 110.705 143.048 111.132V123.306C143.046 123.734 143.182 124.151 143.435 124.495C143.689 124.839 144.047 125.092 144.457 125.216V109.222Z" fill="#020202"/>
<path d="M112.21 126.221H130.446C133.6 126.221 136.156 123.668 136.156 120.517V113.871C136.156 110.72 133.6 108.166 130.446 108.166H112.21C109.056 108.166 106.5 110.72 106.5 113.871V120.517C106.5 123.668 109.056 126.221 112.21 126.221Z" fill="white"/>
<path d="M130.446 127.189H112.21C110.446 127.186 108.756 126.484 107.509 125.239C106.262 123.993 105.56 122.304 105.557 120.542V113.908C105.56 112.147 106.262 110.458 107.509 109.212C108.756 107.966 110.446 107.265 112.21 107.262H130.446C132.211 107.262 133.903 107.962 135.151 109.209C136.398 110.455 137.099 112.146 137.099 113.908V120.542C137.099 122.305 136.398 123.996 135.151 125.242C133.903 126.489 132.211 127.189 130.446 127.189ZM112.21 109.146C110.946 109.146 109.733 109.648 108.839 110.541C107.945 111.434 107.443 112.645 107.443 113.908V120.542C107.443 121.805 107.945 123.016 108.839 123.91C109.733 124.803 110.946 125.304 112.21 125.304H130.446C131.71 125.304 132.923 124.803 133.817 123.91C134.711 123.016 135.213 121.805 135.213 120.542V113.908C135.213 112.645 134.711 111.434 133.817 110.541C132.923 109.648 131.71 109.146 130.446 109.146H112.21Z" fill="#020202"/>
<path d="M106.5 112.727V111.107C106.5 110.721 106.576 110.339 106.724 109.983C106.872 109.627 107.089 109.304 107.363 109.032C107.636 108.76 107.961 108.545 108.318 108.398C108.675 108.252 109.057 108.177 109.443 108.179H133.213C133.599 108.177 133.981 108.252 134.338 108.398C134.695 108.545 135.02 108.76 135.293 109.032C135.567 109.304 135.784 109.627 135.932 109.983C136.08 110.339 136.156 110.721 136.156 111.107V112.727H106.5Z" fill="white"/>
<path d="M136.156 113.67H106.5C106.251 113.666 106.013 113.566 105.837 113.39C105.66 113.214 105.56 112.976 105.557 112.727V111.107C105.56 110.079 105.971 109.095 106.699 108.369C107.428 107.644 108.414 107.237 109.443 107.237H133.213C134.242 107.237 135.228 107.644 135.957 108.369C136.685 109.095 137.096 110.079 137.099 111.107V112.727C137.096 112.976 136.996 113.214 136.819 113.39C136.643 113.566 136.405 113.666 136.156 113.67ZM107.443 111.785H135.213V111.107C135.209 110.579 134.997 110.074 134.623 109.702C134.248 109.33 133.741 109.121 133.213 109.121H109.443C108.915 109.121 108.408 109.33 108.033 109.702C107.659 110.074 107.447 110.579 107.443 111.107V111.785Z" fill="#020202"/>
<path d="M116.75 108.167H113.593V126.221H116.75V108.167Z" fill="white"/>
<path d="M116.75 127.189H113.656C113.406 127.189 113.166 127.09 112.989 126.913C112.812 126.736 112.713 126.496 112.713 126.247V108.179C112.713 107.929 112.812 107.689 112.989 107.513C113.166 107.336 113.406 107.237 113.656 107.237H116.813C117.063 107.237 117.303 107.336 117.48 107.513C117.657 107.689 117.756 107.929 117.756 108.179V126.221C117.76 126.353 117.736 126.483 117.687 126.605C117.637 126.727 117.562 126.837 117.467 126.928C117.373 127.019 117.26 127.089 117.136 127.134C117.013 127.179 116.881 127.198 116.75 127.189ZM114.537 125.304H115.794V109.121H114.537V125.304Z" fill="#020202"/>
<path d="M129.352 108.167H126.195V126.221H129.352V108.167Z" fill="white"/>
<path d="M129.352 127.189H126.233C125.983 127.189 125.743 127.09 125.566 126.913C125.389 126.736 125.29 126.496 125.29 126.247V108.179C125.29 107.929 125.389 107.689 125.566 107.513C125.743 107.336 125.983 107.237 126.233 107.237H129.39C129.64 107.237 129.88 107.336 130.057 107.513C130.234 107.689 130.333 107.929 130.333 108.179V126.221C130.337 126.35 130.313 126.479 130.265 126.599C130.217 126.719 130.145 126.827 130.053 126.918C129.961 127.009 129.851 127.08 129.731 127.126C129.61 127.173 129.481 127.194 129.352 127.189ZM127.138 125.304H128.396V109.121H127.138V125.304Z" fill="#020202"/>
<path d="M132.861 108.179H133.213C133.599 108.177 133.981 108.252 134.338 108.398C134.695 108.545 135.02 108.76 135.293 109.032C135.567 109.304 135.784 109.627 135.932 109.983C136.08 110.339 136.156 110.721 136.156 111.107V123.281C136.156 123.668 136.08 124.05 135.932 124.407C135.784 124.763 135.567 125.087 135.294 125.36C135.021 125.633 134.696 125.85 134.339 125.998C133.982 126.145 133.599 126.221 133.213 126.221H132.861V108.179Z" fill="white"/>
<path d="M133.213 127.189H132.861C132.737 127.191 132.613 127.167 132.498 127.121C132.383 127.074 132.278 127.004 132.19 126.917C132.102 126.829 132.033 126.724 131.986 126.609C131.939 126.494 131.916 126.371 131.918 126.247V108.179C131.916 108.055 131.939 107.932 131.986 107.816C132.033 107.701 132.102 107.597 132.19 107.509C132.278 107.421 132.383 107.352 132.498 107.305C132.613 107.258 132.737 107.235 132.861 107.237H133.213C134.242 107.237 135.228 107.644 135.957 108.369C136.685 109.095 137.096 110.079 137.099 111.106V123.281C137.103 123.793 137.004 124.301 136.811 124.775C136.617 125.249 136.331 125.68 135.97 126.043C135.609 126.406 135.179 126.694 134.706 126.891C134.233 127.088 133.725 127.189 133.213 127.189ZM133.804 109.222V125.216C134.213 125.092 134.572 124.839 134.825 124.495C135.079 124.151 135.215 123.734 135.213 123.306V111.106C135.211 110.676 135.071 110.258 134.813 109.914C134.555 109.57 134.192 109.318 133.779 109.197L133.804 109.222Z" fill="#020202"/>
<path d="M109.795 108.179H109.443C109.057 108.177 108.675 108.252 108.318 108.398C107.961 108.545 107.636 108.76 107.363 109.032C107.089 109.304 106.872 109.627 106.724 109.983C106.576 110.339 106.5 110.721 106.5 111.107V123.281C106.5 123.668 106.576 124.05 106.724 124.407C106.872 124.763 107.089 125.087 107.362 125.36C107.635 125.633 107.96 125.85 108.317 125.998C108.674 126.145 109.056 126.221 109.443 126.221H109.795V108.179Z" fill="white"/>
<path d="M109.795 127.189H109.443C108.412 127.189 107.424 126.78 106.695 126.052C105.966 125.324 105.557 124.336 105.557 123.306V111.106C105.56 110.079 105.971 109.095 106.699 108.369C107.428 107.644 108.414 107.237 109.443 107.237H109.795C109.919 107.235 110.043 107.258 110.158 107.305C110.273 107.352 110.378 107.421 110.466 107.509C110.554 107.597 110.623 107.701 110.67 107.816C110.717 107.932 110.74 108.055 110.738 108.179V126.221C110.743 126.348 110.723 126.474 110.678 126.592C110.632 126.71 110.563 126.817 110.475 126.908C110.387 126.998 110.281 127.07 110.164 127.118C110.047 127.167 109.922 127.191 109.795 127.189ZM108.852 109.222C108.446 109.351 108.091 109.606 107.838 109.949C107.585 110.292 107.447 110.706 107.443 111.132V123.306C107.445 123.733 107.582 124.148 107.836 124.491C108.089 124.834 108.445 125.088 108.852 125.216V109.222Z" fill="#020202"/>
<path d="M0.943268 104.322L206.334 104.322V0.942314L0.943268 0.942314V104.322Z" fill="#FDE2E1"/>
<path d="M206.334 105.264H0.943257C0.69309 105.264 0.453163 105.165 0.276268 104.988C0.099373 104.811 0 104.572 0 104.322V0.942326C0 0.692406 0.099373 0.452754 0.276268 0.276034C0.453163 0.0993133 0.69309 0 0.943257 0H206.334C206.584 0 206.824 0.0993133 207.001 0.276034C207.178 0.452754 207.278 0.692406 207.278 0.942326V104.322C207.278 104.572 207.178 104.811 207.001 104.988C206.824 105.165 206.584 105.264 206.334 105.264ZM1.88651 103.379H205.391V1.88465H1.88651V103.379Z" fill="#020202"/>
<path d="M206.334 0.942383H199.027V7.18686H206.334V0.942383Z" fill="#FDE2E1"/>
<path d="M206.334 8.12911H199.027C198.777 8.12911 198.537 8.02983 198.36 7.85311C198.183 7.67639 198.084 7.4367 198.084 7.18678V0.904606C198.087 0.655698 198.188 0.4179 198.364 0.24188C198.54 0.06586 198.778 -0.0344656 199.027 -0.0377197H206.334C206.584 -0.0377197 206.824 0.0615553 207.001 0.238276C207.178 0.414996 207.278 0.654686 207.278 0.904606V7.18678C207.279 7.311 207.256 7.4343 207.209 7.54939C207.162 7.66449 207.093 7.76903 207.005 7.85687C206.917 7.94471 206.812 8.01406 206.697 8.06082C206.582 8.10758 206.459 8.1308 206.334 8.12911ZM199.97 6.24445H205.391V1.88462H199.97V6.24445Z" fill="#020202"/>
<path d="M8.25036 98.0773H0.943268V104.322H8.25036V98.0773Z" fill="#FDE2E1"/>
<path d="M8.25035 105.264H0.943257C0.69309 105.264 0.453163 105.165 0.276268 104.988C0.099373 104.811 0 104.572 0 104.322V98.0396C0 97.7897 0.099373 97.55 0.276268 97.3733C0.453163 97.1966 0.69309 97.0973 0.943257 97.0973H8.25035C8.4995 97.1005 8.73754 97.2009 8.91373 97.3769C9.08992 97.5529 9.19035 97.7907 9.19361 98.0396V104.322C9.19035 104.571 9.08992 104.808 8.91373 104.985C8.73754 105.161 8.4995 105.261 8.25035 105.264ZM1.88651 103.379H7.30709V99.0197H1.88651V103.379Z" fill="#020202"/>
<path d="M8.25036 0.942383H0.943268V7.18686H8.25036V0.942383Z" fill="#FDE2E1"/>
<path d="M8.25038 8.12911H0.943282C0.818943 8.1308 0.695516 8.10758 0.580311 8.06082C0.465105 8.01406 0.360461 7.94471 0.272532 7.85687C0.184603 7.76903 0.115186 7.66449 0.0683821 7.54939C0.021578 7.4343 -0.0016668 7.311 2.51139e-05 7.18678V0.904606C2.51139e-05 0.654686 0.0993982 0.414996 0.276293 0.238276C0.453188 0.0615553 0.693115 -0.0377197 0.943282 -0.0377197H8.25038C8.49953 -0.0344656 8.73756 0.06586 8.91376 0.24188C9.08995 0.4179 9.19037 0.655698 9.19363 0.904606V7.18678C9.19363 7.4367 9.09426 7.67639 8.91736 7.85311C8.74047 8.02983 8.50054 8.12911 8.25038 8.12911ZM1.88654 6.24445H7.30712V1.88462H1.88654V6.24445Z" fill="#020202"/>
<path d="M206.334 98.0773H199.027V104.322H206.334V98.0773Z" fill="#FDE2E1"/>
<path d="M206.334 105.264H199.027C198.778 105.261 198.54 105.161 198.364 104.985C198.188 104.808 198.087 104.571 198.084 104.322V98.0396C198.087 97.7907 198.188 97.5529 198.364 97.3769C198.54 97.2009 198.778 97.1005 199.027 97.0973H206.334C206.584 97.0973 206.824 97.1966 207.001 97.3733C207.178 97.55 207.278 97.7897 207.278 98.0396V104.322C207.278 104.572 207.178 104.811 207.001 104.988C206.824 105.165 206.584 105.264 206.334 105.264ZM199.97 103.379H205.391V99.0197H199.97V103.379Z" fill="#020202"/>
<path d="M5.21935 100.854L202.046 100.854V4.39752L5.21935 4.39752V100.854Z" fill="#FDE2E1"/>
<path d="M202.058 101.809H5.23192C4.98176 101.809 4.74185 101.71 4.56495 101.533C4.38806 101.356 4.28867 101.117 4.28867 100.867V4.4101C4.28867 4.16018 4.38806 3.92049 4.56495 3.74377C4.74185 3.56705 4.98176 3.46777 5.23192 3.46777H202.058C202.307 3.47103 202.545 3.57135 202.722 3.74737C202.898 3.92339 202.998 4.16119 203.001 4.4101V100.867C202.998 101.115 202.898 101.353 202.722 101.529C202.545 101.705 202.307 101.806 202.058 101.809ZM6.17518 99.9243H201.115V5.31473H6.17518V99.9243Z" fill="#020202"/>
<path d="M19.5066 105.49H26.4363V99.6855H19.5066V105.49Z" fill="#FDE2E1"/>
<path d="M26.4363 106.433H19.494C19.2438 106.433 19.0039 106.333 18.827 106.157C18.6501 105.98 18.5507 105.74 18.5507 105.49V99.6981C18.5507 99.4481 18.6501 99.2085 18.827 99.0317C19.0039 98.855 19.2438 98.7557 19.494 98.7557H26.4363C26.6865 98.7557 26.9264 98.855 27.1033 99.0317C27.2802 99.2085 27.3796 99.4481 27.3796 99.6981V105.49C27.3796 105.74 27.2802 105.98 27.1033 106.157C26.9264 106.333 26.6865 106.433 26.4363 106.433ZM20.4372 104.548H25.4679V100.64H20.4372V104.548Z" fill="#020202"/>
<path d="M20.7516 104.309H25.1786V100.841H20.7516V104.309Z" fill="#020202"/>
<path d="M182.514 105.49H189.444V99.6855H182.514V105.49Z" fill="#FDE2E1"/>
<path d="M189.431 106.433H182.501C182.251 106.433 182.011 106.333 181.834 106.157C181.657 105.98 181.558 105.74 181.558 105.49V99.6981C181.558 99.4482 181.657 99.2085 181.834 99.0318C182.011 98.8551 182.251 98.7558 182.501 98.7558H189.431C189.555 98.7541 189.679 98.7774 189.794 98.8242C189.909 98.8709 190.014 98.9402 190.102 99.0281C190.19 99.1159 190.259 99.2205 190.306 99.3356C190.353 99.4507 190.376 99.5739 190.374 99.6981V105.49C190.376 105.615 190.353 105.738 190.306 105.853C190.259 105.968 190.19 106.073 190.102 106.16C190.014 106.248 189.909 106.318 189.794 106.364C189.679 106.411 189.555 106.434 189.431 106.433ZM183.445 104.548H188.475V100.64H183.445V104.548Z" fill="#020202"/>
<path d="M183.759 104.309H188.186V100.841H183.759V104.309Z" fill="#020202"/>
<path d="M245.523 126.912H297.478V100.163H245.523V126.912Z" fill="white"/>
<path d="M297.478 127.855H245.536C245.286 127.855 245.046 127.756 244.869 127.579C244.692 127.402 244.593 127.163 244.593 126.913V100.15C244.593 99.9005 244.692 99.6608 244.869 99.4841C245.046 99.3074 245.286 99.2081 245.536 99.2081H297.478C297.728 99.2081 297.968 99.3074 298.145 99.4841C298.322 99.6608 298.421 99.9005 298.421 100.15V126.913C298.421 127.163 298.322 127.402 298.145 127.579C297.968 127.756 297.728 127.855 297.478 127.855ZM246.479 125.933H296.535V101.055H246.479V125.933Z" fill="#020202"/>
<path d="M228.998 41.475C237.761 41.4752 246.176 44.9027 252.441 51.0238L277.959 75.939L312.608 94.3331L315.048 110.29L302.471 128.207H291.655V124.676C291.655 119.541 289.613 114.616 285.978 110.985C282.344 107.354 277.414 105.314 272.274 105.314C267.134 105.314 262.205 107.354 258.57 110.985C254.935 114.616 252.893 119.541 252.893 124.676V128.244H207.982V41.5504L228.998 41.475Z" fill="white"/>
<path d="M302.433 129.149H291.617C291.367 129.149 291.127 129.05 290.95 128.873C290.773 128.696 290.674 128.457 290.674 128.207V124.676C290.674 119.791 288.731 115.106 285.274 111.652C281.816 108.197 277.126 106.257 272.236 106.257C267.347 106.257 262.657 108.197 259.199 111.652C255.741 115.106 253.799 119.791 253.799 124.676V128.244C253.799 128.494 253.7 128.734 253.523 128.911C253.346 129.087 253.106 129.187 252.856 129.187H207.982C207.732 129.187 207.492 129.087 207.315 128.911C207.138 128.734 207.039 128.494 207.039 128.244V41.5504C207.025 41.4178 207.038 41.2838 207.079 41.157C207.12 41.0301 207.187 40.9132 207.276 40.8138C207.365 40.7144 207.474 40.6347 207.595 40.5797C207.717 40.5248 207.848 40.4959 207.982 40.4949H228.985C237.999 40.4786 246.658 44.0029 253.095 50.3077L278.512 75.1348L313.035 93.4662C313.164 93.5367 313.275 93.6355 313.36 93.7552C313.445 93.875 313.502 94.0125 313.526 94.1573L315.966 110.114C316.007 110.351 315.952 110.595 315.815 110.792L303.238 128.709C303.153 128.845 303.034 128.957 302.893 129.033C302.752 129.11 302.594 129.15 302.433 129.149ZM292.561 127.264H301.943L314.054 110.064L311.74 94.9865L277.519 76.8059C277.438 76.7706 277.365 76.7193 277.305 76.6552L251.787 51.74C245.709 45.7696 237.521 42.4334 228.998 42.455H208.938V127.302H251.912V124.676C251.912 119.291 254.054 114.127 257.865 110.319C261.677 106.511 266.846 104.372 272.236 104.372C277.627 104.372 282.796 106.511 286.608 110.319C290.419 114.127 292.561 119.291 292.561 124.676V127.264Z" fill="#020202"/>
<path d="M221.552 41.475V75.273C221.552 79.455 223.215 83.4658 226.175 86.4229C229.135 89.38 233.15 91.0413 237.336 91.0413H268.64L291.932 102.161H313.803L315.06 110.29L302.484 128.207H291.668V125.078C291.679 122.48 291.176 119.906 290.188 117.503C289.2 115.1 287.746 112.916 285.91 111.077C284.073 109.238 281.891 107.78 279.488 106.786C277.085 105.793 274.51 105.284 271.909 105.289C266.822 105.375 261.972 107.456 258.407 111.083C254.842 114.711 252.848 119.593 252.856 124.676V128.244H207.982V41.5504L221.552 41.475Z" fill="white"/>
<path d="M302.433 129.149H291.617C291.367 129.149 291.127 129.05 290.95 128.873C290.773 128.696 290.674 128.457 290.674 128.207V125.078C290.664 122.548 290.153 120.045 289.168 117.713C288.184 115.382 286.746 113.269 284.939 111.496C283.23 109.785 281.193 108.437 278.95 107.533C276.706 106.628 274.303 106.185 271.884 106.232C267.059 106.346 262.468 108.338 259.09 111.783C255.712 115.228 253.814 119.854 253.799 124.676V128.244C253.799 128.494 253.7 128.734 253.523 128.911C253.346 129.087 253.106 129.187 252.856 129.187H207.982C207.732 129.187 207.492 129.087 207.315 128.911C207.138 128.734 207.039 128.494 207.039 128.244V41.5503C207.025 41.4178 207.038 41.2838 207.079 41.1569C207.12 41.0301 207.187 40.9131 207.276 40.8137C207.365 40.7143 207.474 40.6346 207.595 40.5797C207.717 40.5248 207.848 40.4959 207.982 40.4949H221.54C221.79 40.4949 222.03 40.5941 222.207 40.7709C222.383 40.9476 222.483 41.1873 222.483 41.4372V75.2353C222.489 79.1654 224.055 82.9325 226.837 85.7115C229.619 88.4905 233.389 90.0546 237.323 90.0612H268.627C268.766 90.0588 268.904 90.0889 269.029 90.1492L292.133 101.181H313.79C314.017 101.179 314.236 101.259 314.407 101.407C314.579 101.555 314.69 101.761 314.721 101.985L315.978 110.114C316.019 110.351 315.965 110.595 315.828 110.792L303.251 128.709C303.164 128.847 303.043 128.959 302.9 129.036C302.757 129.114 302.596 129.152 302.433 129.149ZM292.561 127.264H301.943L314.054 110.064L312.998 103.103H291.932C291.792 103.105 291.655 103.075 291.529 103.015L268.426 92.0087H237.336C232.902 92.0021 228.651 90.2394 225.515 87.107C222.38 83.9746 220.616 79.728 220.609 75.2981V42.4173H208.938V127.264H251.912V124.676C251.937 119.367 254.034 114.277 257.756 110.487C261.479 106.698 266.534 104.509 271.847 104.385C274.516 104.338 277.167 104.828 279.643 105.825C282.119 106.822 284.369 108.306 286.26 110.189C288.244 112.138 289.822 114.461 290.901 117.023C291.981 119.585 292.54 122.336 292.548 125.116L292.561 127.264Z" fill="#020202"/>
<path d="M312.608 94.3331L315.048 110.29L314.13 111.86C313.917 112.22 313.595 112.503 313.211 112.668C312.826 112.832 312.399 112.869 311.991 112.774C311.584 112.678 311.218 112.455 310.947 112.137C310.675 111.819 310.512 111.423 310.482 111.006L309.69 99.9746C309.557 98.8507 309.764 97.7127 310.284 96.7072C310.804 95.7017 311.613 94.8748 312.608 94.3331Z" fill="white"/>
<path d="M312.47 113.783C312.236 113.784 312.003 113.755 311.778 113.695C311.17 113.564 310.622 113.237 310.217 112.765C309.813 112.293 309.575 111.702 309.539 111.081L308.747 100.037C308.594 98.7342 308.837 97.4152 309.445 96.2521C310.053 95.0891 310.997 94.1358 312.155 93.5165C312.289 93.445 312.438 93.4076 312.589 93.4076C312.74 93.4076 312.889 93.445 313.023 93.5165C313.159 93.5844 313.276 93.6837 313.366 93.8061C313.456 93.9284 313.515 94.0703 313.539 94.2201L315.978 110.177C316.018 110.389 315.977 110.608 315.865 110.792L314.947 112.363C314.694 112.795 314.333 113.154 313.898 113.403C313.463 113.652 312.971 113.783 312.47 113.783ZM311.904 96.0419C311.433 96.5418 311.077 97.1377 310.86 97.7885C310.643 98.4393 310.57 99.1295 310.646 99.8112L311.451 110.893C311.469 111.107 311.555 111.31 311.696 111.472C311.836 111.634 312.025 111.748 312.234 111.797C312.444 111.846 312.663 111.827 312.861 111.744C313.059 111.66 313.226 111.516 313.337 111.333L314.092 110.076L311.904 96.0419Z" fill="#020202"/>
<path d="M313.237 99.0322H308.948C308.698 99.0322 308.458 98.9329 308.281 98.7562C308.104 98.5794 308.005 98.3398 308.005 98.0899C308.005 97.84 308.104 97.6003 308.281 97.4236C308.458 97.2469 308.698 97.1476 308.948 97.1476H313.237C313.487 97.1476 313.727 97.2469 313.904 97.4236C314.081 97.6003 314.18 97.84 314.18 98.0899C314.18 98.3398 314.081 98.5794 313.904 98.7562C313.727 98.9329 313.487 99.0322 313.237 99.0322Z" fill="#020202"/>
<path d="M313.765 102.312H309.149C308.899 102.312 308.659 102.212 308.482 102.036C308.305 101.859 308.206 101.619 308.206 101.369C308.206 101.119 308.305 100.88 308.482 100.703C308.659 100.526 308.899 100.427 309.149 100.427H313.765C314.015 100.427 314.255 100.526 314.432 100.703C314.609 100.88 314.708 101.119 314.708 101.369C314.708 101.619 314.609 101.859 314.432 102.036C314.255 102.212 314.015 102.312 313.765 102.312Z" fill="#020202"/>
<path d="M314.281 105.578H309.338C309.088 105.578 308.848 105.479 308.671 105.302C308.494 105.126 308.395 104.886 308.395 104.636C308.395 104.386 308.494 104.146 308.671 103.97C308.848 103.793 309.088 103.694 309.338 103.694H314.281C314.531 103.694 314.771 103.793 314.948 103.97C315.124 104.146 315.224 104.386 315.224 104.636C315.224 104.886 315.124 105.126 314.948 105.302C314.771 105.479 314.531 105.578 314.281 105.578Z" fill="#020202"/>
<path d="M314.809 108.857H309.539C309.289 108.857 309.049 108.758 308.872 108.581C308.695 108.405 308.596 108.165 308.596 107.915C308.596 107.665 308.695 107.426 308.872 107.249C309.049 107.072 309.289 106.973 309.539 106.973H314.809C315.059 106.973 315.299 107.072 315.476 107.249C315.653 107.426 315.752 107.665 315.752 107.915C315.752 108.165 315.653 108.405 315.476 108.581C315.299 108.758 315.059 108.857 314.809 108.857Z" fill="#020202"/>
<path d="M312.52 95.489H308.671C308.421 95.489 308.181 95.3897 308.004 95.213C307.827 95.0363 307.728 94.7966 307.728 94.5467C307.728 94.2968 307.827 94.0571 308.004 93.8804C308.181 93.7036 308.421 93.6044 308.671 93.6044H312.52C312.77 93.6044 313.01 93.7036 313.187 93.8804C313.364 94.0571 313.463 94.2968 313.463 94.5467C313.463 94.7966 313.364 95.0363 313.187 95.213C313.01 95.3897 312.77 95.489 312.52 95.489Z" fill="#020202"/>
<path d="M304.433 94.7729C304.283 94.7711 304.136 94.7322 304.005 94.6598L273.217 78.7534C272.999 78.6382 272.835 78.4421 272.759 78.2072C272.684 77.9723 272.704 77.7173 272.815 77.4969C272.93 77.279 273.126 77.114 273.36 77.0367C273.595 76.9595 273.85 76.9758 274.073 77.0823L304.823 92.9888C305.014 93.0847 305.167 93.2425 305.256 93.4364C305.345 93.6304 305.366 93.8489 305.315 94.0562C305.264 94.2635 305.144 94.4474 304.974 94.5776C304.805 94.7078 304.596 94.7767 304.383 94.7729H304.433Z" fill="#020202"/>
<path d="M273.959 78.8539H263.898C263.648 78.8539 263.408 78.7545 263.231 78.5778C263.054 78.4011 262.955 78.1615 262.955 77.9116C262.955 77.6616 263.054 77.422 263.231 77.2452C263.408 77.0685 263.648 76.9692 263.898 76.9692H273.959C274.21 76.9692 274.45 77.0685 274.626 77.2452C274.803 77.422 274.903 77.6616 274.903 77.9116C274.903 78.1615 274.803 78.4011 274.626 78.5778C274.45 78.7545 274.21 78.8539 273.959 78.8539Z" fill="#020202"/>
<path d="M276.475 94.6222L271.306 92.2475C269.331 91.3498 267.187 90.8829 265.017 90.8779H209.24" fill="white"/>
<path d="M276.475 95.5644C276.34 95.5668 276.206 95.5366 276.085 95.4765L270.866 93.1144C269.002 92.2689 266.976 91.8401 264.929 91.8579H209.24C208.989 91.8579 208.749 91.7587 208.573 91.5819C208.396 91.4052 208.296 91.1655 208.296 90.9156C208.296 90.6657 208.396 90.426 208.573 90.2493C208.749 90.0726 208.989 89.9733 209.24 89.9733H264.942C267.26 89.9705 269.55 90.4676 271.658 91.4307L276.827 93.8054C277.021 93.8956 277.179 94.0491 277.274 94.2407C277.369 94.4322 277.396 94.6504 277.351 94.8594C277.306 95.0685 277.19 95.2558 277.024 95.3908C276.858 95.5258 276.651 95.6003 276.437 95.6021L276.475 95.5644Z" fill="#020202"/>
<path d="M230.029 87.4353H217.452C217.202 87.4353 216.962 87.336 216.785 87.1593C216.608 86.9826 216.509 86.7429 216.509 86.493C216.509 86.2431 216.608 86.0034 216.785 85.8267C216.962 85.6499 217.202 85.5507 217.452 85.5507H230.029C230.279 85.5507 230.519 85.6499 230.696 85.8267C230.873 86.0034 230.972 86.2431 230.972 86.493C230.972 86.7429 230.873 86.9826 230.696 87.1593C230.519 87.336 230.279 87.4353 230.029 87.4353Z" fill="#020202"/>
<path d="M244.19 51.7274L259.848 68.0611V103.241C259.848 103.241 248.24 105.101 246.278 126.85H216.911C215.577 126.85 214.298 126.32 213.354 125.378C212.411 124.435 211.881 123.157 211.881 121.824V50.3579C211.879 49.9564 211.957 49.5587 212.11 49.1875C212.263 48.8164 212.488 48.4791 212.772 48.1953C213.056 47.9115 213.394 47.6866 213.765 47.5338C214.137 47.3809 214.535 47.3031 214.937 47.3047H233.739C235.69 47.2954 237.623 47.6827 239.42 48.443C241.216 49.2033 242.839 50.3208 244.19 51.7274Z" fill="white"/>
<path d="M246.278 127.767H216.911C216.135 127.767 215.366 127.614 214.649 127.317C213.932 127.021 213.28 126.586 212.732 126.037C212.183 125.489 211.747 124.838 211.45 124.121C211.153 123.405 211 122.637 211 121.862V50.3579C211 49.2982 211.422 48.282 212.172 47.5327C212.922 46.7834 213.939 46.3624 215 46.3624H233.802C235.868 46.3681 237.913 46.7881 239.814 47.5974C241.715 48.4067 243.434 49.5889 244.869 51.0741L260.528 67.4077C260.696 67.5839 260.79 67.8176 260.792 68.0611V103.241C260.791 103.467 260.71 103.685 260.562 103.855C260.414 104.026 260.21 104.138 259.987 104.171C259.886 104.171 249.083 106.282 247.209 126.938C247.184 127.166 247.075 127.378 246.903 127.531C246.731 127.684 246.508 127.768 246.278 127.767ZM215 48.2471C214.439 48.2471 213.902 48.4695 213.506 48.8653C213.109 49.2612 212.887 49.7981 212.887 50.3579V121.862C212.887 122.928 213.311 123.951 214.066 124.705C214.82 125.459 215.844 125.882 216.911 125.882H245.423C247.347 107.438 256.163 103.266 258.905 102.475V68.438L243.511 52.3808C242.252 51.0772 240.744 50.0395 239.077 49.3294C237.409 48.6193 235.615 48.2512 233.802 48.2471H215Z" fill="#020202"/>
<path d="M248.944 48.0334C250.175 48.9466 251.343 49.9414 252.441 51.0112L277.959 75.9263L281.669 77.8989H274.299C273.885 77.897 273.489 77.7348 273.192 77.4466L245.926 50.7222C245.704 50.5033 245.552 50.2232 245.489 49.9177C245.427 49.6122 245.457 49.295 245.576 49.0067C245.695 48.7183 245.896 48.4718 246.156 48.2985C246.415 48.1252 246.721 48.0329 247.033 48.0334H248.944Z" fill="white"/>
<path d="M281.669 78.8539H274.299C273.641 78.8545 273.009 78.5974 272.538 78.1377L245.272 51.4133C244.914 51.064 244.669 50.6162 244.568 50.1271C244.466 49.6379 244.513 49.1296 244.702 48.667C244.891 48.2045 245.213 47.8087 245.629 47.5302C246.044 47.2518 246.533 47.1033 247.033 47.1038H248.944C249.144 47.1089 249.337 47.1746 249.498 47.2922C250.767 48.2294 251.973 49.2494 253.107 50.3454L278.525 75.1725L282.109 77.0823C282.293 77.1816 282.439 77.3393 282.524 77.5305C282.609 77.7217 282.627 77.9356 282.577 78.1386C282.526 78.3415 282.41 78.5219 282.245 78.6514C282.081 78.7809 281.878 78.8522 281.669 78.8539ZM247.033 48.9884C246.907 48.9836 246.784 49.0188 246.68 49.0888C246.576 49.1588 246.497 49.2601 246.454 49.3779C246.402 49.493 246.387 49.6217 246.412 49.7457C246.437 49.8697 246.5 49.9828 246.592 50.0689L273.859 76.7933C273.977 76.9071 274.135 76.9702 274.299 76.9692H277.883L277.519 76.7682C277.438 76.7328 277.365 76.6815 277.305 76.6174L251.787 51.7023C250.792 50.7324 249.738 49.826 248.63 48.9884H247.033Z" fill="#020202"/>
<path d="M291.441 124.676C291.445 121.201 290.513 117.789 288.743 114.798C286.973 111.807 284.429 109.347 281.38 107.676H296.749C297.973 107.678 299.174 107.345 300.222 106.714C301.271 106.083 302.127 105.177 302.697 104.096L310.08 106.608C310.814 106.872 311.477 107.302 312.017 107.865L315.211 111.144C316.106 112.057 316.607 113.284 316.607 114.562V120.58C316.607 121.728 316.251 122.847 315.589 123.785C314.927 124.723 313.991 125.433 312.91 125.819L303.263 129.262H291.454L291.441 124.676Z" fill="white"/>
<path d="M291.441 130.116C291.192 130.113 290.953 130.014 290.775 129.84C290.598 129.663 290.498 129.424 290.498 129.174V124.676C290.504 121.364 289.619 118.11 287.935 115.257C286.251 112.403 283.831 110.054 280.927 108.455C280.738 108.36 280.587 108.202 280.499 108.009C280.412 107.816 280.393 107.599 280.445 107.394C280.498 107.189 280.62 107.008 280.79 106.881C280.96 106.754 281.168 106.689 281.38 106.696H296.749C297.801 106.697 298.835 106.411 299.737 105.868C300.639 105.326 301.375 104.548 301.867 103.618C301.974 103.423 302.145 103.271 302.352 103.188C302.558 103.106 302.787 103.098 302.999 103.166L310.382 105.679C311.253 105.984 312.044 106.483 312.696 107.136L315.89 110.415C316.958 111.502 317.554 112.964 317.551 114.486V120.505C317.548 121.846 317.131 123.153 316.357 124.248C315.583 125.343 314.488 126.173 313.224 126.623L303.565 130.041C303.461 130.059 303.355 130.059 303.251 130.041H291.454L291.441 130.116ZM284.511 108.568C286.969 110.473 288.957 112.915 290.322 115.708C291.687 118.5 292.393 121.568 292.384 124.676V128.269H303.087L312.583 124.877C313.479 124.555 314.254 123.965 314.803 123.187C315.352 122.409 315.648 121.481 315.651 120.53V114.511C315.654 113.477 315.247 112.483 314.52 111.747L311.325 108.481C310.893 108.028 310.358 107.688 309.766 107.488L303.1 105.239C302.397 106.28 301.45 107.133 300.34 107.722C299.23 108.311 297.993 108.619 296.736 108.619L284.511 108.568Z" fill="#020202"/>
<path d="M312.646 120.718H301.591C301.591 118.809 302.35 116.978 303.701 115.628C305.053 114.277 306.886 113.519 308.797 113.519H312.646V120.718Z" fill="white"/>
<path d="M312.646 121.673H301.591C301.341 121.67 301.103 121.57 300.927 121.394C300.751 121.217 300.651 120.98 300.647 120.731C300.651 118.572 301.51 116.504 303.038 114.977C304.566 113.451 306.637 112.592 308.797 112.589H312.646C312.895 112.592 313.133 112.693 313.309 112.869C313.485 113.045 313.586 113.283 313.589 113.531V120.731C313.586 120.98 313.485 121.217 313.309 121.394C313.133 121.57 312.895 121.67 312.646 121.673ZM302.584 119.788H311.677V114.474H308.772C307.281 114.486 305.842 115.027 304.714 116C303.585 116.974 302.839 118.316 302.609 119.788H302.584Z" fill="#020202"/>
<path d="M313.413 112.602H299.792C299.542 112.602 299.302 112.502 299.125 112.326C298.948 112.149 298.849 111.909 298.849 111.659C298.849 111.409 298.948 111.17 299.125 110.993C299.302 110.816 299.542 110.717 299.792 110.717H313.4C313.65 110.717 313.89 110.816 314.067 110.993C314.244 111.17 314.343 111.409 314.343 111.659C314.343 111.909 314.244 112.149 314.067 112.326C313.89 112.502 313.65 112.602 313.4 112.602H313.413Z" fill="#020202"/>
<path d="M304.898 117.439C304.953 117.757 305.098 118.052 305.315 118.291C305.532 118.53 305.813 118.702 306.125 118.786C306.436 118.871 306.766 118.866 307.074 118.77C307.383 118.674 307.657 118.493 307.866 118.247C308.075 118.001 308.209 117.701 308.253 117.381C308.297 117.061 308.249 116.736 308.115 116.443C307.98 116.149 307.764 115.901 307.493 115.726C307.222 115.55 306.907 115.456 306.584 115.454C306.099 115.499 305.65 115.732 305.335 116.103C305.02 116.474 304.863 116.954 304.898 117.439Z" fill="white"/>
<path d="M306.584 120.379C305.989 120.448 305.387 120.334 304.858 120.054C304.329 119.773 303.898 119.339 303.622 118.808C303.346 118.278 303.237 117.676 303.311 117.082C303.385 116.489 303.637 115.931 304.035 115.484C304.433 115.037 304.957 114.721 305.539 114.579C306.12 114.436 306.731 114.473 307.291 114.685C307.851 114.897 308.333 115.273 308.674 115.765C309.015 116.257 309.198 116.841 309.2 117.439C309.238 118.174 308.984 118.894 308.495 119.445C308.005 119.995 307.319 120.33 306.584 120.379ZM306.584 116.396C306.181 116.396 305.842 116.873 305.842 117.439C305.842 118.004 306.181 118.494 306.584 118.494C306.986 118.494 307.313 118.004 307.313 117.439C307.313 116.873 306.973 116.396 306.584 116.396Z" fill="#020202"/>
<path d="M263.106 107.576C258.848 109.851 255.589 113.626 253.962 118.168H207.982V107.576H263.106Z" fill="white"/>
<path d="M253.962 119.123H207.982C207.733 119.119 207.495 119.019 207.318 118.843C207.142 118.667 207.042 118.429 207.039 118.18V107.576C207.042 107.327 207.142 107.089 207.318 106.913C207.495 106.737 207.733 106.637 207.982 106.634H263.093C263.305 106.631 263.511 106.7 263.678 106.83C263.845 106.961 263.963 107.144 264.011 107.35C264.062 107.552 264.043 107.766 263.959 107.957C263.875 108.148 263.73 108.306 263.546 108.405C259.491 110.553 256.386 114.138 254.843 118.457C254.785 118.646 254.668 118.812 254.51 118.932C254.352 119.051 254.161 119.118 253.962 119.123ZM208.938 117.238H253.258C254.617 113.785 256.896 110.769 259.848 108.518H208.938V117.238Z" fill="#020202"/>
<path d="M224.193 111.358H213.453V113.921H224.193V111.358Z" fill="#231F20"/>
<path d="M263.106 87.1338C264.042 87.1268 264.956 86.8489 265.737 86.3338C266.518 85.8187 267.133 85.0885 267.508 84.2314C267.897 83.3781 268.025 82.4288 267.875 81.5031C267.725 80.5774 267.304 79.7168 266.665 79.0297L245.624 55.8611C243.678 53.6806 241.299 51.9298 238.637 50.7204C235.976 49.511 233.091 48.8698 230.167 48.8376H219.301C217.765 48.841 216.294 49.4527 215.209 50.5386C214.125 51.6244 213.516 53.0958 213.516 54.6298V72.8355C213.517 74.1769 213.984 75.4765 214.837 76.5122C215.69 77.5479 216.877 78.2557 218.194 78.5146L262.213 87.0458C262.528 87.1062 262.848 87.1356 263.169 87.1338H263.106Z" fill="white"/>
<path d="M263.106 88.076C262.722 88.0751 262.338 88.0373 261.961 87.963L218.043 79.4443C216.509 79.1473 215.126 78.327 214.13 77.1238C213.135 75.9206 212.588 74.4091 212.585 72.848V54.6297C212.588 52.8447 213.3 51.1336 214.563 49.8714C215.827 48.6092 217.539 47.8986 219.326 47.8953H230.218C233.274 47.9257 236.291 48.5941 239.074 49.8577C241.857 51.1213 244.345 52.9521 246.379 55.2328L267.407 78.3889C268.16 79.2168 268.657 80.2448 268.838 81.3487C269.018 82.4526 268.875 83.5851 268.426 84.6096C267.976 85.634 267.239 86.5065 266.304 87.1217C265.369 87.7368 264.276 88.0683 263.156 88.076H263.106ZM219.301 49.7799C218.014 49.7832 216.782 50.2953 215.872 51.2041C214.962 52.1129 214.45 53.3445 214.446 54.6297V72.8355C214.449 73.9603 214.844 75.0492 215.562 75.9156C216.28 76.782 217.277 77.3721 218.383 77.5848L262.401 86.116C263.272 86.2852 264.175 86.1534 264.961 85.7425C265.747 85.3315 266.37 84.6657 266.728 83.8544C267.037 83.1642 267.136 82.3984 267.013 81.6523C266.89 80.9062 266.55 80.2127 266.036 79.6579L245.008 56.4892C243.147 54.4086 240.874 52.7375 238.332 51.5824C235.79 50.4273 233.035 49.8135 230.243 49.7799H219.301Z" fill="#020202"/>
<path d="M253.258 64.141L267.344 80.0474C269.759 83 266.979 88.4907 263.458 87.7243L253.258 85.5255V64.141Z" fill="white"/>
<path d="M264.137 88.7421C263.85 88.7439 263.563 88.7144 263.282 88.6541L253.082 86.4553C252.871 86.407 252.683 86.2888 252.549 86.1199C252.414 85.951 252.34 85.7415 252.34 85.5256V64.1662C252.34 63.9751 252.398 63.7883 252.506 63.6308C252.614 63.4734 252.768 63.3525 252.947 63.2844C253.126 63.2162 253.321 63.204 253.507 63.2492C253.693 63.2945 253.86 63.3953 253.988 63.538L268.074 79.4444C268.791 80.4168 269.19 81.5865 269.217 82.7941C269.244 84.0016 268.898 85.1881 268.224 86.1915C267.821 86.9329 267.233 87.5574 266.517 88.0044C265.801 88.4514 264.981 88.7055 264.137 88.7421ZM254.227 84.7717L263.684 86.8071C265.269 87.1589 266.325 85.6638 266.615 85.1989C267.069 84.5275 267.312 83.7354 267.312 82.9247C267.312 82.1141 267.069 81.322 266.615 80.6506L254.201 66.6287L254.227 84.7717Z" fill="#020202"/>
<path d="M310.784 103.719V106.684C306.692 106.683 302.737 105.213 299.639 102.542C296.541 99.8718 294.506 96.178 293.906 92.1343H299.176C302.252 92.1343 305.203 93.3544 307.38 95.5265C309.556 97.6986 310.781 100.645 310.784 103.719Z" fill="white"/>
<path d="M310.784 107.626C306.471 107.609 302.305 106.053 299.04 103.237C295.774 100.422 293.623 96.533 292.976 92.2726C292.952 92.139 292.96 92.0018 292.997 91.8713C293.034 91.7408 293.099 91.6203 293.189 91.5187C293.277 91.4145 293.387 91.3312 293.511 91.2747C293.635 91.2182 293.77 91.1899 293.906 91.192H299.176C302.512 91.192 305.71 92.5158 308.069 94.872C310.428 97.2283 311.753 100.424 311.753 103.756V106.722C311.74 106.968 311.632 107.2 311.451 107.369C311.27 107.538 311.031 107.63 310.784 107.626ZM295.038 93.0767C295.803 96.5029 297.661 99.5883 300.333 101.868C303.005 104.148 306.347 105.498 309.854 105.716V103.719C309.847 100.896 308.721 98.1913 306.722 96.1966C304.723 94.2019 302.014 93.08 299.188 93.0767H295.038Z" fill="#020202"/>
<path d="M296.334 98.693C295.076 96.6995 294.25 94.4656 293.906 92.1344H299.176C299.97 92.1309 300.763 92.2109 301.54 92.3731V93.4914C301.54 94.8709 300.992 96.194 300.015 97.1695C299.039 98.145 297.714 98.693 296.334 98.693Z" fill="white"/>
<path d="M296.334 99.6353C296.175 99.6344 296.02 99.5936 295.881 99.5167C295.743 99.4399 295.626 99.3294 295.541 99.1955C294.221 97.092 293.364 94.7323 293.026 92.2726C293.003 92.139 293.01 92.0018 293.047 91.8713C293.084 91.7408 293.15 91.6203 293.24 91.5187C293.327 91.4145 293.437 91.3312 293.561 91.2747C293.685 91.2182 293.82 91.1899 293.957 91.192H299.226C300.071 91.194 300.914 91.2824 301.742 91.4559C301.955 91.4969 302.147 91.611 302.285 91.7785C302.422 91.946 302.497 92.1563 302.496 92.3731V93.4913C302.496 94.2992 302.337 95.0992 302.027 95.8454C301.717 96.5917 301.263 97.2695 300.69 97.8402C300.118 98.4109 299.439 98.8632 298.691 99.1712C297.943 99.4792 297.142 99.6369 296.334 99.6353ZM295.076 93.0767C295.428 94.7088 296.039 96.2741 296.887 97.7129C297.924 97.5929 298.881 97.0968 299.577 96.3187C300.272 95.5405 300.658 94.5345 300.66 93.4913V93.1646C300.189 93.1037 299.714 93.0743 299.239 93.0767H295.076Z" fill="#020202"/>
<path d="M304.596 100.05C304.596 102.11 305.301 103.819 306.156 103.819C307.011 103.819 307.703 102.161 307.703 100.05C307.703 97.9391 307.011 96.2806 306.156 96.2806C305.301 96.2806 304.596 98.002 304.596 100.05Z" fill="white"/>
<path d="M306.156 104.711C304.433 104.711 303.641 102.299 303.641 100.05C303.641 97.8009 304.42 95.3885 306.156 95.3885C307.892 95.3885 308.671 97.8135 308.671 100.05C308.671 102.286 307.866 104.711 306.156 104.711ZM306.156 97.3612C305.698 98.1802 305.484 99.1133 305.54 100.05C305.488 100.99 305.701 101.926 306.156 102.751C306.606 101.925 306.816 100.989 306.76 100.05C306.813 99.115 306.604 98.1837 306.156 97.3612Z" fill="#020202"/>
<path d="M275.477 142.846C284.847 141.312 291.197 132.479 289.661 123.118C288.125 113.758 279.284 107.413 269.914 108.948C260.544 110.482 254.193 119.315 255.729 128.676C257.265 138.036 266.107 144.381 275.477 142.846Z" fill="white"/>
<path d="M272.714 144C269.125 144 265.617 142.936 262.634 140.943C259.65 138.95 257.326 136.117 255.954 132.804C254.583 129.49 254.227 125.845 254.931 122.329C255.635 118.813 257.367 115.585 259.908 113.053C262.45 110.521 265.686 108.8 269.207 108.106C272.729 107.413 276.377 107.779 279.69 109.158C283.003 110.537 285.831 112.867 287.818 115.853C289.805 118.839 290.86 122.347 290.85 125.932C290.833 130.728 288.916 135.321 285.517 138.708C282.118 142.094 277.515 143.997 272.714 144ZM272.714 109.649C269.503 109.649 266.363 110.6 263.692 112.381C261.021 114.163 258.938 116.695 257.707 119.659C256.476 122.622 256.151 125.883 256.774 129.031C257.397 132.178 258.939 135.071 261.207 137.343C263.474 139.615 266.365 141.165 269.514 141.797C272.662 142.429 275.928 142.115 278.898 140.894C281.868 139.673 284.409 137.6 286.201 134.937C287.992 132.275 288.954 129.141 288.964 125.932C288.975 123.793 288.564 121.672 287.752 119.691C286.941 117.711 285.746 115.91 284.236 114.393C282.726 112.875 280.931 111.67 278.954 110.847C276.977 110.025 274.856 109.6 272.714 109.599V109.649Z" fill="#020202"/>
<path d="M272.714 137.642C270.386 137.642 268.11 136.953 266.174 135.66C264.238 134.368 262.73 132.532 261.839 130.383C260.948 128.234 260.715 125.869 261.169 123.588C261.623 121.307 262.744 119.211 264.39 117.566C266.037 115.922 268.134 114.802 270.418 114.348C272.701 113.894 275.068 114.127 277.219 115.017C279.37 115.907 281.209 117.415 282.502 119.349C283.796 121.283 284.486 123.556 284.486 125.882C284.483 129 283.242 131.99 281.035 134.194C278.828 136.399 275.835 137.639 272.714 137.642ZM272.714 115.378C270.635 115.378 268.602 115.994 266.873 117.149C265.144 118.303 263.796 119.943 263.001 121.863C262.205 123.782 261.997 125.894 262.402 127.931C262.808 129.969 263.809 131.84 265.28 133.309C266.75 134.778 268.624 135.779 270.663 136.184C272.703 136.589 274.817 136.381 276.738 135.586C278.659 134.791 280.301 133.445 281.457 131.718C282.612 129.99 283.229 127.96 283.229 125.882C283.225 123.097 282.116 120.428 280.145 118.459C278.174 116.489 275.502 115.382 272.714 115.378Z" fill="#020202"/>
<path d="M271.639 134.086C274.418 133.666 276.328 131.075 275.908 128.299C275.487 125.524 272.893 123.615 270.115 124.036C267.337 124.456 265.426 127.047 265.847 129.822C266.268 132.598 268.861 134.507 271.639 134.086Z" fill="#FDE2E1"/>
<path d="M272.714 131.901C271.523 131.898 270.36 131.543 269.371 130.88C268.382 130.217 267.612 129.277 267.158 128.177C266.704 127.077 266.586 125.867 266.82 124.7C267.054 123.534 267.629 122.463 268.472 121.622C269.315 120.782 270.388 120.21 271.556 119.979C272.725 119.747 273.935 119.867 275.035 120.323C276.135 120.779 277.075 121.551 277.737 122.54C278.398 123.529 278.751 124.692 278.751 125.882C278.751 126.674 278.595 127.457 278.291 128.188C277.988 128.919 277.543 129.583 276.982 130.142C276.422 130.701 275.756 131.144 275.024 131.446C274.291 131.748 273.507 131.902 272.714 131.901ZM272.714 121.749C271.897 121.751 271.098 121.996 270.419 122.451C269.74 122.907 269.212 123.553 268.901 124.309C268.589 125.065 268.509 125.895 268.67 126.696C268.831 127.497 269.226 128.233 269.806 128.81C270.385 129.386 271.122 129.779 271.924 129.937C272.727 130.096 273.558 130.013 274.313 129.7C275.069 129.387 275.714 128.857 276.168 128.177C276.622 127.498 276.865 126.699 276.865 125.882C276.861 124.785 276.423 123.733 275.645 122.959C274.867 122.184 273.813 121.749 272.714 121.749Z" fill="#020202"/>
<path d="M272.035 117.602C272.035 117.809 272.117 118.007 272.264 118.153C272.41 118.299 272.608 118.381 272.815 118.381C272.917 118.381 273.018 118.361 273.112 118.322C273.205 118.283 273.291 118.225 273.362 118.152C273.433 118.08 273.49 117.994 273.527 117.899C273.565 117.805 273.584 117.704 273.582 117.602C273.582 117.399 273.501 117.204 273.357 117.06C273.214 116.917 273.018 116.836 272.815 116.836C272.713 116.834 272.612 116.853 272.518 116.891C272.423 116.928 272.337 116.985 272.264 117.056C272.192 117.127 272.134 117.212 272.095 117.306C272.055 117.4 272.035 117.501 272.035 117.602Z" fill="#020202"/>
<path d="M269.507 118.218C269.528 118.327 269.572 118.43 269.635 118.52C269.699 118.611 269.781 118.687 269.876 118.743C269.971 118.799 270.078 118.835 270.188 118.847C270.298 118.859 270.409 118.847 270.514 118.813C270.619 118.779 270.716 118.723 270.798 118.649C270.88 118.574 270.945 118.483 270.989 118.382C271.033 118.28 271.055 118.171 271.053 118.06C271.051 117.95 271.026 117.841 270.979 117.741C270.898 117.569 270.757 117.433 270.583 117.357C270.409 117.282 270.213 117.273 270.032 117.332C269.852 117.39 269.699 117.512 269.602 117.676C269.506 117.839 269.472 118.032 269.507 118.218Z" fill="#020202"/>
<path d="M267.294 119.65C267.383 119.776 267.508 119.873 267.653 119.927C267.798 119.982 267.955 119.993 268.106 119.958C268.256 119.923 268.393 119.844 268.499 119.731C268.605 119.618 268.674 119.477 268.699 119.324C268.724 119.172 268.703 119.015 268.638 118.875C268.574 118.734 268.469 118.616 268.338 118.535C268.206 118.454 268.053 118.415 267.899 118.421C267.744 118.427 267.595 118.479 267.47 118.57C267.386 118.628 267.316 118.703 267.262 118.79C267.207 118.876 267.171 118.972 267.155 119.073C267.138 119.174 267.142 119.277 267.166 119.376C267.19 119.475 267.233 119.568 267.294 119.65Z" fill="#020202"/>
<path d="M265.609 121.573C265.691 121.633 265.784 121.676 265.883 121.7C265.983 121.724 266.086 121.728 266.186 121.712C266.287 121.695 266.384 121.659 266.47 121.605C266.557 121.551 266.631 121.48 266.69 121.397C266.81 121.231 266.86 121.025 266.83 120.823C266.799 120.621 266.69 120.439 266.527 120.316C266.444 120.256 266.351 120.212 266.252 120.189C266.153 120.165 266.05 120.161 265.949 120.177C265.848 120.194 265.752 120.23 265.665 120.284C265.579 120.338 265.504 120.409 265.445 120.492C265.325 120.658 265.275 120.864 265.305 121.066C265.336 121.268 265.445 121.45 265.609 121.573Z" fill="#020202"/>
<path d="M264.577 123.972C264.673 124.006 264.774 124.019 264.875 124.012C264.976 124.006 265.075 123.978 265.166 123.933C265.256 123.887 265.336 123.824 265.401 123.746C265.467 123.669 265.516 123.579 265.546 123.482C265.593 123.382 265.618 123.274 265.62 123.163C265.622 123.052 265.6 122.943 265.556 122.841C265.512 122.74 265.447 122.649 265.365 122.574C265.283 122.5 265.186 122.444 265.081 122.41C264.976 122.376 264.864 122.364 264.754 122.376C264.644 122.388 264.538 122.424 264.443 122.48C264.348 122.537 264.266 122.612 264.202 122.703C264.138 122.793 264.095 122.896 264.074 123.005C264.043 123.101 264.031 123.203 264.04 123.304C264.048 123.405 264.077 123.504 264.123 123.594C264.17 123.684 264.234 123.764 264.312 123.829C264.39 123.894 264.48 123.942 264.577 123.972Z" fill="#020202"/>
<path d="M264.426 126.573C264.633 126.573 264.831 126.491 264.978 126.345C265.124 126.199 265.206 126.001 265.206 125.794C265.206 125.693 265.186 125.592 265.147 125.498C265.107 125.404 265.05 125.319 264.977 125.248C264.904 125.177 264.818 125.12 264.724 125.083C264.629 125.045 264.528 125.026 264.426 125.028C264.326 125.028 264.226 125.048 264.133 125.086C264.04 125.125 263.955 125.181 263.884 125.252C263.813 125.324 263.756 125.408 263.718 125.501C263.679 125.594 263.659 125.694 263.659 125.794C263.657 125.896 263.676 125.997 263.714 126.092C263.752 126.186 263.808 126.272 263.879 126.344C263.951 126.417 264.036 126.475 264.13 126.514C264.224 126.553 264.325 126.573 264.426 126.573Z" fill="#020202"/>
<path d="M265.055 129.099C265.162 129.075 265.262 129.029 265.35 128.965C265.438 128.9 265.511 128.817 265.565 128.722C265.619 128.627 265.652 128.522 265.663 128.414C265.673 128.305 265.661 128.195 265.627 128.092C265.592 127.988 265.536 127.893 265.462 127.813C265.389 127.732 265.299 127.668 265.199 127.624C265.099 127.581 264.99 127.558 264.881 127.559C264.772 127.56 264.664 127.584 264.565 127.629C264.468 127.658 264.378 127.708 264.301 127.773C264.223 127.838 264.16 127.918 264.114 128.008C264.068 128.099 264.041 128.197 264.034 128.298C264.027 128.399 264.041 128.501 264.074 128.596C264.138 128.793 264.277 128.956 264.461 129.05C264.644 129.145 264.858 129.162 265.055 129.099Z" fill="#020202"/>
<path d="M266.413 131.31C266.54 131.221 266.636 131.096 266.691 130.951C266.746 130.807 266.756 130.649 266.721 130.499C266.686 130.348 266.607 130.212 266.494 130.106C266.382 130.001 266.24 129.931 266.087 129.906C265.934 129.881 265.778 129.902 265.637 129.967C265.497 130.031 265.378 130.136 265.297 130.267C265.216 130.399 265.177 130.552 265.183 130.706C265.189 130.86 265.241 131.009 265.332 131.134C265.391 131.217 265.465 131.288 265.552 131.342C265.639 131.396 265.735 131.433 265.836 131.449C265.936 131.465 266.039 131.462 266.139 131.438C266.238 131.414 266.331 131.37 266.413 131.31Z" fill="#020202"/>
<path d="M268.35 132.994C268.443 132.87 268.497 132.721 268.505 132.567C268.513 132.413 268.475 132.259 268.396 132.127C268.316 131.994 268.199 131.888 268.059 131.822C267.919 131.756 267.763 131.733 267.61 131.756C267.457 131.779 267.314 131.847 267.2 131.952C267.086 132.056 267.005 132.192 266.969 132.342C266.932 132.492 266.941 132.65 266.995 132.795C267.048 132.94 267.143 133.066 267.269 133.157C267.434 133.277 267.641 133.327 267.843 133.297C268.045 133.266 268.227 133.157 268.35 132.994Z" fill="#020202"/>
<path d="M270.866 133.974C270.926 133.777 270.907 133.565 270.813 133.382C270.719 133.199 270.557 133.06 270.363 132.994C270.167 132.936 269.957 132.956 269.777 133.051C269.597 133.146 269.461 133.308 269.398 133.502C269.336 133.695 269.352 133.906 269.443 134.088C269.534 134.27 269.692 134.409 269.885 134.476C270.081 134.536 270.294 134.517 270.477 134.423C270.66 134.329 270.799 134.168 270.866 133.974Z" fill="#020202"/>
<path d="M273.381 134.162C273.381 133.959 273.3 133.764 273.156 133.62C273.012 133.476 272.817 133.396 272.614 133.396C272.512 133.394 272.411 133.413 272.316 133.45C272.222 133.488 272.136 133.544 272.063 133.616C271.991 133.687 271.933 133.772 271.894 133.866C271.854 133.96 271.834 134.06 271.834 134.162C271.834 134.369 271.916 134.567 272.062 134.713C272.209 134.859 272.407 134.941 272.614 134.941C272.716 134.941 272.816 134.921 272.91 134.882C273.004 134.842 273.089 134.785 273.161 134.712C273.232 134.64 273.288 134.554 273.326 134.459C273.364 134.365 273.383 134.264 273.381 134.162Z" fill="#020202"/>
<path d="M275.896 133.546C275.815 133.375 275.675 133.239 275.501 133.163C275.326 133.088 275.131 133.079 274.95 133.137C274.769 133.196 274.617 133.318 274.52 133.482C274.423 133.645 274.389 133.838 274.425 134.024C274.446 134.133 274.489 134.236 274.553 134.326C274.616 134.416 274.698 134.492 274.794 134.549C274.889 134.605 274.995 134.64 275.105 134.653C275.215 134.665 275.326 134.653 275.432 134.619C275.537 134.585 275.634 134.529 275.716 134.455C275.797 134.38 275.863 134.289 275.907 134.188C275.95 134.086 275.972 133.977 275.971 133.866C275.969 133.755 275.943 133.647 275.896 133.546Z" fill="#020202"/>
<path d="M278.148 132.215C278.057 132.089 277.931 131.994 277.785 131.941C277.64 131.887 277.482 131.878 277.332 131.915C277.182 131.952 277.045 132.032 276.941 132.146C276.837 132.26 276.768 132.403 276.745 132.556C276.722 132.708 276.745 132.865 276.811 133.004C276.877 133.144 276.983 133.261 277.116 133.341C277.249 133.42 277.403 133.458 277.557 133.45C277.712 133.442 277.86 133.388 277.984 133.295C278.148 133.173 278.257 132.99 278.287 132.788C278.318 132.586 278.268 132.38 278.148 132.215Z" fill="#020202"/>
<path d="M279.833 130.192C279.708 130.101 279.559 130.049 279.404 130.043C279.25 130.037 279.097 130.077 278.965 130.157C278.833 130.238 278.729 130.356 278.664 130.497C278.6 130.637 278.579 130.794 278.604 130.946C278.629 131.099 278.698 131.24 278.804 131.353C278.909 131.466 279.046 131.545 279.197 131.58C279.348 131.615 279.505 131.604 279.65 131.549C279.794 131.495 279.919 131.398 280.009 131.272C280.128 131.105 280.176 130.898 280.143 130.696C280.11 130.494 279.999 130.313 279.833 130.192Z" fill="#020202"/>
<path d="M280.814 127.792C280.718 127.759 280.617 127.745 280.516 127.752C280.415 127.759 280.316 127.786 280.226 127.832C280.135 127.877 280.055 127.941 279.99 128.018C279.924 128.096 279.875 128.185 279.845 128.282C279.795 128.429 279.789 128.587 279.829 128.737C279.869 128.887 279.953 129.021 280.07 129.123C280.187 129.225 280.332 129.29 280.486 129.309C280.64 129.328 280.796 129.301 280.935 129.231C281.073 129.161 281.188 129.051 281.263 128.916C281.339 128.78 281.373 128.625 281.36 128.471C281.347 128.316 281.288 128.169 281.19 128.048C281.093 127.927 280.962 127.838 280.814 127.792Z" fill="#020202"/>
<path d="M281.002 125.191C280.901 125.191 280.8 125.211 280.706 125.251C280.612 125.29 280.527 125.348 280.455 125.42C280.384 125.493 280.328 125.579 280.29 125.673C280.252 125.767 280.234 125.869 280.235 125.97C280.235 126.125 280.281 126.276 280.368 126.404C280.454 126.533 280.576 126.632 280.72 126.691C280.863 126.75 281.02 126.764 281.172 126.733C281.323 126.702 281.462 126.627 281.571 126.516C281.679 126.406 281.753 126.266 281.781 126.114C281.81 125.962 281.793 125.805 281.732 125.663C281.671 125.521 281.569 125.4 281.439 125.316C281.309 125.232 281.157 125.189 281.002 125.191Z" fill="#020202"/>
<path d="M280.386 122.666C280.192 122.732 280.031 122.872 279.939 123.055C279.848 123.238 279.832 123.451 279.896 123.646C279.977 123.817 280.117 123.954 280.292 124.029C280.466 124.104 280.662 124.113 280.842 124.055C281.023 123.996 281.176 123.874 281.272 123.711C281.369 123.547 281.403 123.355 281.367 123.168C281.304 122.972 281.165 122.808 280.981 122.714C280.797 122.62 280.583 122.602 280.386 122.666Z" fill="#020202"/>
<path d="M279.015 120.454C278.852 120.577 278.743 120.759 278.712 120.961C278.682 121.163 278.732 121.369 278.852 121.535C278.911 121.618 278.986 121.689 279.072 121.743C279.159 121.797 279.255 121.833 279.356 121.85C279.456 121.866 279.559 121.862 279.659 121.839C279.758 121.815 279.851 121.771 279.933 121.711C280.097 121.588 280.206 121.406 280.237 121.204C280.267 121.002 280.217 120.796 280.097 120.63C280.038 120.547 279.963 120.476 279.877 120.422C279.79 120.368 279.694 120.332 279.593 120.315C279.492 120.299 279.389 120.303 279.29 120.327C279.191 120.351 279.098 120.394 279.015 120.454Z" fill="#020202"/>
<path d="M277.028 118.783C276.937 118.908 276.885 119.057 276.879 119.212C276.873 119.366 276.913 119.519 276.994 119.65C277.075 119.782 277.193 119.887 277.334 119.951C277.474 120.015 277.631 120.036 277.783 120.011C277.936 119.987 278.078 119.917 278.191 119.811C278.304 119.706 278.383 119.569 278.418 119.419C278.453 119.268 278.442 119.111 278.387 118.966C278.332 118.822 278.236 118.697 278.11 118.607C278.028 118.547 277.934 118.504 277.835 118.48C277.736 118.456 277.633 118.452 277.532 118.468C277.431 118.485 277.335 118.521 277.248 118.575C277.162 118.629 277.087 118.7 277.028 118.783Z" fill="#020202"/>
<path d="M274.639 117.803C274.605 117.899 274.592 118 274.599 118.101C274.606 118.202 274.633 118.301 274.678 118.391C274.724 118.481 274.788 118.561 274.865 118.627C274.943 118.692 275.032 118.741 275.129 118.771C275.229 118.818 275.338 118.843 275.449 118.845C275.56 118.847 275.669 118.825 275.771 118.781C275.873 118.737 275.964 118.672 276.038 118.59C276.113 118.508 276.169 118.412 276.203 118.307C276.237 118.201 276.249 118.09 276.236 117.98C276.224 117.87 276.189 117.764 276.132 117.669C276.076 117.574 276 117.492 275.909 117.428C275.819 117.365 275.716 117.321 275.607 117.301C275.511 117.268 275.408 117.255 275.307 117.262C275.205 117.27 275.106 117.298 275.015 117.345C274.925 117.392 274.845 117.457 274.78 117.536C274.715 117.614 274.667 117.705 274.639 117.803Z" fill="#020202"/>
</g>
<defs>
<clipPath id="clip0_114_791">
<rect width="383" height="144" fill="white"/>
</clipPath>
</defs>
</svg>
