<svg width="21" height="20" viewBox="0 0 21 20" fill="none" xmlns="http://www.w3.org/2000/svg">
<path fill-rule="evenodd" clip-rule="evenodd" d="M2.48979 9.54548H7.05569C7.71542 9.54353 8.34756 9.2808 8.81406 8.81465C9.28057 8.3485 9.54353 7.71683 9.54548 7.05761V2.48788C9.54353 1.82865 9.28057 1.19698 8.81406 0.730831C8.34756 0.264685 7.71542 0.00194751 7.05569 0H2.48979C1.83006 0.00194751 1.19792 0.264685 0.731417 0.730831C0.264911 1.19698 0.00194901 1.82865 0 2.48788V7.05761C0.00194901 7.71683 0.264911 8.3485 0.731417 8.81465C1.19792 9.2808 1.83006 9.54353 2.48979 9.54548ZM1.77416 1.77273C1.96398 1.58305 2.22135 1.47649 2.48979 1.47649H7.05569C7.32354 1.47842 7.57985 1.58559 7.76925 1.77484C7.95865 1.9641 8.06592 2.22024 8.06786 2.48788V7.05761C8.06592 7.32525 7.95865 7.58138 7.76925 7.77064C7.57985 7.95989 7.32354 8.06706 7.05569 8.06899H2.48979C2.22135 8.06899 1.96398 7.96245 1.77416 7.77278C1.58434 7.58311 1.47762 7.32584 1.47762 7.05761V2.48788C1.47762 2.21964 1.58434 1.9624 1.77416 1.77273ZM13.3988 9.54548H17.9647C18.6245 9.54353 19.2566 9.2808 19.7231 8.81465C20.1896 8.3485 20.4526 7.71683 20.4545 7.05761V2.48788C20.4526 1.82865 20.1896 1.19698 19.7231 0.730831C19.2566 0.264685 18.6245 0.00194751 17.9647 0H13.3988C12.7391 0.00194751 12.107 0.264685 11.6405 0.730831C11.174 1.19698 10.911 1.82865 10.9091 2.48788V7.05761C10.911 7.71683 11.174 8.3485 11.6405 8.81465C12.107 9.2808 12.7391 9.54353 13.3988 9.54548ZM12.6831 1.77273C12.8729 1.58305 13.1304 1.47649 13.3988 1.47649H17.9647C18.2332 1.47649 18.4906 1.58305 18.6804 1.77273C18.8702 1.9624 18.9769 2.21964 18.9769 2.48788V7.05761C18.9769 7.32584 18.8702 7.58311 18.6804 7.77278C18.4906 7.96245 18.2332 8.06899 17.9647 8.06899H13.3988C13.1304 8.06899 12.8729 7.96245 12.6831 7.77278C12.4933 7.58311 12.3867 7.32584 12.3867 7.05761V2.48788C12.3867 2.21964 12.4933 1.9624 12.6831 1.77273ZM7.05569 19.9999H2.48979C1.82946 19.9999 1.19618 19.7376 0.729252 19.2707C0.262325 18.8038 0 18.1705 0 17.5101V12.9443C0 12.2839 0.262325 11.6506 0.729252 11.1837C1.19618 10.7168 1.82946 10.4545 2.48979 10.4545H7.05569C7.71602 10.4545 8.3493 10.7168 8.81623 11.1837C9.28316 11.6506 9.54548 12.2839 9.54548 12.9443V17.5101C9.54548 18.1705 9.28316 18.8038 8.81623 19.2707C8.3493 19.7376 7.71602 19.9999 7.05569 19.9999ZM2.48979 11.9321C2.22135 11.9321 1.96398 12.0387 1.77416 12.2286C1.58434 12.4184 1.47762 12.6758 1.47762 12.9443V17.5101C1.47762 17.7786 1.58434 18.036 1.77416 18.2258C1.96398 18.4157 2.22135 18.5223 2.48979 18.5223H7.05569C7.32413 18.5223 7.58159 18.4157 7.77141 18.2258C7.96123 18.036 8.06786 17.7786 8.06786 17.5101V12.9443C8.06786 12.6758 7.96123 12.4184 7.77141 12.2286C7.58159 12.0387 7.32413 11.9321 7.05569 11.9321H2.48979ZM13.3988 19.9999H17.9647C18.6251 19.9999 19.2584 19.7376 19.7253 19.2707C20.1922 18.8038 20.4545 18.1705 20.4545 17.5101V12.9443C20.4545 12.2839 20.1922 11.6506 19.7253 11.1837C19.2584 10.7168 18.6251 10.4545 17.9647 10.4545H13.3988C12.7385 10.4545 12.1052 10.7168 11.6383 11.1837C11.1714 11.6506 10.9091 12.2839 10.9091 12.9443V17.5101C10.9091 18.1705 11.1714 18.8038 11.6383 19.2707C12.1052 19.7376 12.7385 19.9999 13.3988 19.9999ZM12.6831 12.2286C12.8729 12.0387 13.1304 11.9321 13.3988 11.9321H17.9647C18.2332 11.9321 18.4906 12.0387 18.6804 12.2286C18.8702 12.4184 18.9769 12.6758 18.9769 12.9443V17.5101C18.9769 17.7786 18.8702 18.036 18.6804 18.2258C18.4906 18.4157 18.2332 18.5223 17.9647 18.5223H13.3988C13.1304 18.5223 12.8729 18.4157 12.6831 18.2258C12.4933 18.036 12.3867 17.7786 12.3867 17.5101V12.9443C12.3867 12.6758 12.4933 12.4184 12.6831 12.2286Z" fill="#EF4444"/>
</svg>
