<svg width="115" height="104" viewBox="0 0 115 104" fill="none" xmlns="http://www.w3.org/2000/svg">
<g clip-path="url(#clip0_114_667)">
<path d="M87.9527 13.1568L113.551 58.1802C113.909 58.8128 114.002 59.5616 113.81 60.2629C113.618 60.9643 113.157 61.5609 112.526 61.9222L46.6517 99.4617C46.3349 99.6367 45.9867 99.7473 45.6271 99.7871C45.2675 99.827 44.9036 99.7953 44.5563 99.6939C44.209 99.5926 43.8851 99.4235 43.6032 99.1964C43.3213 98.9693 43.0871 98.6887 42.9139 98.3707L17.3269 53.3473C17.1482 53.0353 17.033 52.691 16.9879 52.3342C16.9427 51.9774 16.9685 51.6152 17.0637 51.2684C17.1589 50.9217 17.3216 50.5972 17.5426 50.3136C17.7636 50.0301 18.0384 49.7931 18.3512 49.6163L84.2149 12.0877C84.5301 11.9104 84.8772 11.7973 85.2362 11.7551C85.5952 11.7129 85.959 11.7424 86.3066 11.8418C86.6541 11.9412 86.9786 12.1086 87.2611 12.3344C87.5437 12.5601 87.7788 12.8396 87.9527 13.1568Z" fill="#FDE2E1" stroke="#020202" stroke-width="2" stroke-linecap="round" stroke-linejoin="round"/>
<path d="M58.8894 59.7294L43.8837 99.3853" stroke="#020202" stroke-width="2" stroke-linecap="round" stroke-linejoin="round"/>
<path d="M113.878 59.5003L71.8028 52.4855" stroke="#020202" stroke-width="2" stroke-linecap="round" stroke-linejoin="round"/>
<path d="M87.4078 12.9495L68.4246 61.0494L17.4249 52.8237" stroke="#020202" stroke-width="2" stroke-linecap="round" stroke-linejoin="round"/>
<path d="M61.4067 53.3255C63.9585 53.3255 66.0272 51.2545 66.0272 48.6999C66.0272 46.1452 63.9585 44.0743 61.4067 44.0743C58.8549 44.0743 56.7862 46.1452 56.7862 48.6999C56.7862 51.2545 58.8549 53.3255 61.4067 53.3255Z" fill="white" stroke="#020202" stroke-width="2" stroke-linecap="round" stroke-linejoin="round"/>
<path d="M91.7777 84.9412L60.6766 102.909" stroke="#020202" stroke-width="2" stroke-linecap="round" stroke-linejoin="round"/>
<path d="M85.0867 1.09095L53.9747 19.0588" stroke="#020202" stroke-width="2" stroke-linecap="round" stroke-linejoin="round"/>
<path d="M13.3166 66.3078L3.30191 72.1007" stroke="#020202" stroke-width="2" stroke-linecap="round" stroke-linejoin="round"/>
<path d="M20.9121 82.0501L1.08975 93.4942" stroke="#020202" stroke-width="2" stroke-linecap="round" stroke-linejoin="round"/>
</g>
<defs>
<clipPath id="clip0_114_667">
<rect width="115" height="104" fill="white"/>
</clipPath>
</defs>
</svg>
