<svg width="20" height="20" viewBox="0 0 20 20" fill="none" xmlns="http://www.w3.org/2000/svg">
<path fill-rule="evenodd" clip-rule="evenodd" d="M3.97598 20H15.1424C15.6636 20 16.1797 19.8975 16.6612 19.6982C17.1427 19.499 17.5802 19.207 17.9487 18.8388C18.3172 18.4707 18.6096 18.0336 18.809 17.5526C19.0084 17.0716 19.1111 16.556 19.1111 16.0354V7.20646C19.1084 6.51231 18.9247 5.83084 18.578 5.22925C18.2313 4.62765 17.7336 4.12672 17.1341 3.77583L11.5472 0.535382C10.9422 0.184692 10.2551 0 9.55558 0C8.85606 0 8.16895 0.184692 7.5639 0.535382L1.97702 3.77583C1.37746 4.12672 0.87981 4.62765 0.533125 5.22925C0.186439 5.83084 0.00268207 6.51231 0 7.20646V16.0354C0.00193965 17.0876 0.421687 18.096 1.16712 18.8393C1.91255 19.5826 2.92275 20 3.97598 20ZM8.29613 1.80085C8.6787 1.57925 9.11335 1.46313 9.55558 1.46436C9.9979 1.46242 10.4327 1.57859 10.815 1.80085L16.4019 5.01203C16.7843 5.23602 17.1008 5.55687 17.3194 5.94218C17.5379 6.32749 17.6508 6.76361 17.6467 7.20646V16.0646C17.6467 16.7281 17.3828 17.3644 16.9132 17.8336C16.4436 18.3027 15.8066 18.5663 15.1424 18.5663H3.97598C3.31115 18.5663 2.67346 18.303 2.20266 17.834C1.73187 17.3651 1.46639 16.7288 1.46445 16.0646V7.23572C1.46176 6.79229 1.57611 6.35599 1.79593 5.97075C2.01574 5.5855 2.33327 5.26492 2.71657 5.04129L8.29613 1.80085ZM9.0842 16.2351C9.20923 16.3692 9.37883 16.4445 9.55564 16.4445C9.73245 16.4445 9.90201 16.3692 10.027 16.2351C10.1521 16.1011 10.2223 15.9193 10.2223 15.7297V12.2703C10.2223 12.0808 10.1521 11.899 10.027 11.7649C9.90201 11.6309 9.73245 11.5556 9.55564 11.5556C9.37883 11.5556 9.20923 11.6309 9.0842 11.7649C8.95918 11.899 8.88897 12.0808 8.88897 12.2703V15.7297C8.88897 15.9193 8.95918 16.1011 9.0842 16.2351Z" fill="#3B82F6"/>
</svg>
