<svg width="8" height="18" viewBox="0 0 8 18" fill="none" xmlns="http://www.w3.org/2000/svg">
<path d="M7.22609 18C7.11433 17.9991 7.00413 17.9738 6.90313 17.926C6.80213 17.8782 6.71285 17.809 6.64132 17.7233L0.554234 10.4973C0.196561 10.0796 0 9.54799 0 8.99831C0 8.44864 0.196561 7.91704 0.554234 7.49932L6.64132 0.273377C6.77296 0.117412 6.96117 0.0200724 7.16465 0.0027729C7.36814 -0.0145266 7.57018 0.0496226 7.72631 0.181123C7.88244 0.312623 7.97991 0.500693 7.99723 0.703963C8.01454 0.907232 7.95029 1.10905 7.81865 1.26502L1.73165 8.49096C1.60828 8.63124 1.54021 8.81159 1.54021 8.99831C1.54021 9.18504 1.60828 9.36539 1.73165 9.50567L7.81865 16.7316C7.88345 16.8093 7.93233 16.899 7.96237 16.9955C7.99242 17.0921 8.00304 17.1936 7.99375 17.2943C7.98446 17.395 7.95538 17.4928 7.90817 17.5823C7.86096 17.6717 7.79653 17.751 7.71861 17.8155C7.58123 17.9329 7.40685 17.9982 7.22609 18Z" fill="#9CA3AF"/>
</svg>
