<svg width="18" height="20" viewBox="0 0 18 20" fill="none" xmlns="http://www.w3.org/2000/svg">
<path fill-rule="evenodd" clip-rule="evenodd" d="M0 9.86315C0 15.2944 6.55553 19.7263 8.68514 19.7263C11.0724 19.7263 17.3779 15.302 17.3779 9.86315C17.3779 4.42431 13.4749 0 8.68514 0C3.89541 0 0 4.43194 0 9.86315ZM1.51574 9.86315C1.51574 5.2634 4.72907 1.52562 8.68514 1.52562C12.6412 1.52562 15.8622 5.27103 15.8622 9.86315C15.8622 14.4553 10.0872 18.2007 8.68514 18.2007C7.28309 18.2007 1.51574 14.4629 1.51574 9.86315ZM6.62214 11.1442C7.16182 11.5323 7.79673 11.7402 8.44666 11.7418C9.3193 11.7418 10.1563 11.3709 10.7741 10.7105C11.3918 10.0502 11.7399 9.15419 11.7418 8.21922C11.7418 7.52286 11.5492 6.84213 11.1883 6.26302C10.8274 5.68392 10.3143 5.23243 9.714 4.96558C9.11368 4.69873 8.453 4.62851 7.81544 4.76378C7.17789 4.89905 6.59207 5.23375 6.13198 5.72559C5.67189 6.21743 5.35818 6.84434 5.23048 7.52712C5.10278 8.2099 5.16684 8.91792 5.41454 9.56172C5.66224 10.2055 6.08245 10.7562 6.62214 11.1442ZM7.45051 6.62249C7.745 6.41001 8.09163 6.29577 8.44666 6.29419C8.68323 6.29314 8.91768 6.34215 9.13652 6.43842C9.35537 6.5347 9.55433 6.67633 9.72196 6.85519C9.88959 7.03405 10.0226 7.24662 10.1133 7.4807C10.2041 7.71478 10.2508 7.96575 10.2508 8.21922C10.2508 8.59961 10.1456 8.97147 9.94852 9.28787C9.75142 9.60426 9.47126 9.85101 9.1434 9.99694C8.81553 10.1429 8.45466 10.1814 8.10634 10.1078C7.75802 10.0342 7.43785 9.85163 7.18628 9.58321C6.93471 9.31479 6.76301 8.97254 6.69285 8.59965C6.62268 8.22676 6.6572 7.83995 6.79204 7.48806C6.92689 7.13617 7.15603 6.83497 7.45051 6.62249Z" fill="#3B82F6"/>
</svg>
