<svg width="184" height="21" viewBox="0 0 184 21" fill="none" xmlns="http://www.w3.org/2000/svg">
<path fill-rule="evenodd" clip-rule="evenodd" d="M116.049 3.09327C116.101 3.13379 116.143 3.18545 116.171 3.24438C116.2 3.30331 116.215 3.36803 116.215 3.43353C116.215 3.49904 116.2 3.56366 116.171 3.62259C116.143 3.68152 116.101 3.73318 116.049 3.77371L114.194 6.0625C114.152 6.1263 114.094 6.17864 114.027 6.21484C113.959 6.25104 113.884 6.26996 113.807 6.26996C113.731 6.26996 113.655 6.25104 113.588 6.21484C113.52 6.17864 113.463 6.1263 113.421 6.0625C111.61 4.63396 109.354 3.88921 107.049 3.95927C104.513 3.95927 103.152 4.67065 103.152 5.81501C103.152 6.95938 104.266 7.60889 107.637 7.94911C112.833 8.41304 116.575 10.176 116.575 14.3823C116.575 18.5887 112.802 20.7845 107.73 20.7845C104.359 20.948 101.049 19.8448 98.451 17.6916C98.1727 17.5061 98.1727 17.2587 98.451 16.9494L100.183 14.5988C100.226 14.5412 100.282 14.4944 100.347 14.4622C100.411 14.43 100.482 14.4132 100.554 14.4132C100.626 14.4132 100.697 14.43 100.762 14.4622C100.826 14.4944 100.882 14.5412 100.925 14.5988C102.866 16.182 105.32 16.9967 107.822 16.8876C110.915 16.8876 112.338 15.9596 112.338 14.5988C112.338 13.2379 110.946 12.5265 107.204 12.1863C102.224 11.7843 98.915 10.2997 98.915 6.00058C98.915 2.32006 102.441 0.000391974 107.297 0.000391974C110.486 -0.023779 113.583 1.0706 116.049 3.09327ZM34.6228 1.89216C32.9375 0.721265 30.944 0.0739468 28.8923 0.0313203C27.5054 0.00250654 26.1267 0.250799 24.837 0.761688C23.5473 1.27258 22.3727 2.03575 21.3818 3.0065C20.3909 3.97724 19.6037 5.13611 19.0664 6.415C18.5291 7.6939 18.2525 9.06712 18.2528 10.4543C18.2532 12.5065 18.8594 14.5129 19.9954 16.2219C21.1314 17.931 22.7467 19.2666 24.6387 20.0615C26.5307 20.8563 28.6151 21.075 30.6309 20.69C32.6466 20.3051 34.5039 19.3337 35.9698 17.8976C37.4357 16.4615 38.4451 14.6246 38.8714 12.6172C39.2977 10.6098 39.1219 8.52122 38.3661 6.61331C37.6103 4.7054 36.3081 3.06306 34.6228 1.89216ZM23.838 13.8389C23.1365 12.8464 22.743 11.6692 22.7065 10.4543H22.5828C22.5574 9.61598 22.7028 8.78127 23.0102 8.00089C23.3175 7.22052 23.7803 6.51079 24.3705 5.91485C24.9606 5.3189 25.6658 4.84916 26.4431 4.53425C27.2204 4.21933 28.0537 4.06582 28.8923 4.08298C30.1077 4.08353 31.296 4.44212 32.3088 5.11397C33.3216 5.78582 34.1142 6.74111 34.5873 7.86064C35.0604 8.98016 35.1933 10.2143 34.9693 11.4089C34.7453 12.6035 34.1742 13.7056 33.3276 14.5776C32.481 15.4496 31.3962 16.0529 30.2088 16.3122C29.0213 16.5714 27.7839 16.4751 26.6509 16.0352C25.5178 15.5954 24.5395 14.8315 23.838 13.8389ZM4.02194 0.328551C3.95341 0.305797 3.88055 0.299297 3.8091 0.309674L0.530655 0.433415C0.4592 0.423038 0.386244 0.429444 0.317718 0.452198C0.249192 0.474952 0.186985 0.513368 0.135929 0.564424C0.0848722 0.615481 0.0463617 0.677783 0.0236079 0.746308C0.000854179 0.814834 -0.00555192 0.887696 0.0048249 0.959151V20.135C0.00341587 20.2046 0.0176642 20.2736 0.046544 20.3369C0.0754238 20.4002 0.118237 20.4562 0.171701 20.5008C0.225166 20.5453 0.287888 20.5773 0.355379 20.5943C0.422869 20.6113 0.493333 20.6129 0.56152 20.5989H15.8713C15.9428 20.6093 16.0156 20.6029 16.0841 20.5802C16.1527 20.5574 16.215 20.519 16.266 20.4679C16.3171 20.4169 16.3555 20.3546 16.3782 20.286C16.401 20.2175 16.4074 20.1447 16.397 20.0732V16.9803C16.4074 16.9089 16.401 16.8359 16.3782 16.7674C16.3555 16.6989 16.3171 16.6367 16.266 16.5856C16.215 16.5345 16.1527 16.496 16.0841 16.4733C16.0156 16.4505 15.9428 16.4441 15.8713 16.4545H4.33483V0.835504C4.34521 0.764049 4.3388 0.691093 4.31605 0.622567C4.2933 0.554041 4.25488 0.491834 4.20382 0.440777C4.15277 0.389721 4.09047 0.351305 4.02194 0.328551ZM61.4912 9.55733C61.5627 9.54696 61.6356 9.55346 61.7041 9.57621C61.7726 9.59896 61.8349 9.63738 61.886 9.68844C61.937 9.73949 61.9754 9.80179 61.9982 9.87032C62.0209 9.93884 62.0273 10.0117 62.017 10.0832V20.135C62.0273 20.2065 62.0209 20.2793 61.9982 20.3479C61.9754 20.4164 61.937 20.4787 61.886 20.5297C61.8349 20.5808 61.7726 20.6192 61.7041 20.642C61.6356 20.6647 61.5627 20.6712 61.4912 20.6608H59.2953C58.9551 20.6608 58.7695 20.6608 58.7077 20.2896L58.3056 19.0834C56.704 20.4105 54.6605 21.0842 52.5837 20.9701C51.219 21.0025 49.8624 20.7513 48.5998 20.2325C47.3371 19.7137 46.1958 18.9385 45.2482 17.9559C44.3005 16.9733 43.567 15.8048 43.0942 14.5242C42.6213 13.2436 42.4192 11.8789 42.5009 10.5162C42.4709 9.13946 42.7215 7.77097 43.2374 6.49419C43.7534 5.21741 44.5238 4.05904 45.5019 3.08964C46.4799 2.12025 47.6452 1.36012 48.9265 0.855596C50.2079 0.351075 51.5784 0.112743 52.9549 0.155055C54.698 0.107647 56.4255 0.495739 57.9808 1.28421C59.5361 2.07268 60.8702 3.2366 61.8624 4.67063C61.9026 4.70824 61.9347 4.75374 61.9567 4.80428C61.9786 4.85483 61.99 4.90935 61.99 4.96446C61.99 5.01956 61.9786 5.07408 61.9567 5.12463C61.9347 5.17517 61.9026 5.22067 61.8624 5.25828L59.5117 6.95933C59.4755 7.01683 59.4253 7.06429 59.3658 7.09713C59.3063 7.12997 59.2395 7.14716 59.1716 7.14716C59.1036 7.14716 59.0367 7.12997 58.9772 7.09713C58.9177 7.06429 58.8675 7.01683 58.8313 6.95933C58.1819 6.05652 57.3202 5.32752 56.3223 4.83665C55.3244 4.34579 54.2211 4.10816 53.1096 4.1448C51.4321 4.12019 49.8135 4.76298 48.6099 5.93173C47.4064 7.10049 46.7164 8.69951 46.6918 10.377C46.6672 12.0545 47.31 13.6731 48.4787 14.8766C49.6475 16.0802 51.2464 16.7701 52.9239 16.7947C53.8335 16.864 54.7475 16.74 55.6057 16.4308C56.464 16.1216 57.2471 15.6343 57.9035 15.0008V10.1141C57.8941 10.0455 57.9001 9.97563 57.9211 9.90968C57.9422 9.84372 57.9778 9.78331 58.0252 9.73289C58.0727 9.68247 58.1309 9.64333 58.1954 9.61831C58.26 9.59328 58.3293 9.58303 58.3984 9.58829L61.4912 9.55733ZM81.7273 1.89216C80.042 0.721265 78.0485 0.0739468 75.9968 0.0313203C74.6099 0.00250654 73.2312 0.250799 71.9416 0.761688C70.6519 1.27258 69.4771 2.03575 68.4862 3.0065C67.4953 3.97724 66.7082 5.13611 66.1709 6.415C65.6336 7.6939 65.357 9.06712 65.3573 10.4543C65.3577 12.5065 65.964 14.5129 67.1 16.2219C68.236 17.931 69.8512 19.2666 71.7432 20.0615C73.6351 20.8563 75.7197 21.075 77.7354 20.69C79.7512 20.3051 81.6084 19.3337 83.0743 17.8976C84.5403 16.4615 85.5496 14.6246 85.9759 12.6172C86.4022 10.6098 86.2264 8.52122 85.4706 6.61331C84.7148 4.7054 83.4127 3.06306 81.7273 1.89216ZM70.9426 13.8389C70.2411 12.8464 69.8475 11.6692 69.8111 10.4543H69.6873C69.662 9.61598 69.8074 8.78127 70.1147 8.00089C70.422 7.22052 70.8848 6.51079 71.475 5.91485C72.0652 5.3189 72.7703 4.84916 73.5477 4.53425C74.325 4.21933 75.1583 4.06582 75.9968 4.08298C77.2122 4.08353 78.4005 4.44212 79.4133 5.11397C80.4262 5.78582 81.2186 6.74111 81.6917 7.86064C82.1649 8.98016 82.2978 10.2143 82.0737 11.4089C81.8497 12.6035 81.2788 13.7056 80.4322 14.5776C79.5855 15.4496 78.5008 16.0529 77.3133 16.3122C76.1259 16.5714 74.8884 16.4751 73.7554 16.0352C72.6224 15.5954 71.6441 14.8315 70.9426 13.8389ZM124.397 0.328551C124.328 0.305797 124.255 0.299297 124.184 0.309674L120.905 0.433415C120.836 0.428154 120.767 0.438404 120.702 0.46343C120.638 0.488456 120.58 0.527596 120.532 0.578016C120.485 0.628436 120.449 0.688848 120.428 0.754803C120.407 0.820758 120.401 0.890558 120.41 0.959151V20.135C120.401 20.2036 120.407 20.2734 120.428 20.3394C120.449 20.4053 120.485 20.4657 120.532 20.5162C120.58 20.5666 120.638 20.6057 120.702 20.6307C120.767 20.6558 120.836 20.6661 120.905 20.6609H124.184C124.255 20.6712 124.328 20.6647 124.397 20.642C124.465 20.6192 124.527 20.5808 124.578 20.5297C124.63 20.4787 124.668 20.4164 124.691 20.3479C124.713 20.2793 124.72 20.2065 124.71 20.135V12.0935H133.988V20.135C133.978 20.2065 133.984 20.2793 134.007 20.3479C134.03 20.4164 134.068 20.4787 134.119 20.5297C134.17 20.5808 134.233 20.6192 134.301 20.642C134.37 20.6647 134.442 20.6712 134.514 20.6609H137.762C137.833 20.6712 137.906 20.6647 137.974 20.642C138.043 20.6192 138.105 20.5808 138.156 20.5297C138.207 20.4787 138.246 20.4164 138.268 20.3479C138.291 20.2793 138.298 20.2065 138.287 20.135V0.835504C138.298 0.764049 138.291 0.691093 138.268 0.622567C138.246 0.554041 138.207 0.491834 138.156 0.440777C138.105 0.389721 138.043 0.351305 137.974 0.328551C137.906 0.305797 137.833 0.299297 137.762 0.309674H134.514C134.442 0.299297 134.37 0.305797 134.301 0.328551C134.233 0.351305 134.17 0.389721 134.119 0.440777C134.068 0.491834 134.03 0.554041 134.007 0.622567C133.984 0.691093 133.978 0.764049 133.988 0.835504V8.01091H124.71V0.835504C124.72 0.764049 124.713 0.691093 124.691 0.622567C124.668 0.554041 124.63 0.491834 124.578 0.440777C124.527 0.389721 124.465 0.351305 124.397 0.328551ZM152.576 0.0313483C154.627 0.0800323 156.617 0.732429 158.298 1.90691C159.979 3.0814 161.277 4.72578 162.028 6.6341C162.779 8.54243 162.95 10.6299 162.521 12.6352C162.091 14.6405 161.079 16.4745 159.612 17.9075C158.145 19.3405 156.288 20.3089 154.273 20.6915C152.258 21.074 150.175 20.8537 148.285 20.058C146.395 19.2624 144.782 17.9268 143.647 16.2185C142.512 14.5103 141.907 12.5051 141.906 10.4543C141.906 9.06449 142.183 7.68865 142.722 6.40767C143.262 5.12669 144.052 3.96646 145.046 2.99529C146.04 2.02412 147.218 1.26157 148.512 0.75256C149.805 0.243547 151.187 -0.00164494 152.576 0.0313483ZM146.391 10.4543C146.427 11.6692 146.821 12.8464 147.522 13.839C148.224 14.8315 149.202 15.5954 150.335 16.0352C151.468 16.4751 152.706 16.5714 153.893 16.3122C155.08 16.053 156.165 15.4497 157.012 14.5776C157.858 13.7056 158.429 12.6035 158.653 11.409C158.877 10.2144 158.745 8.98019 158.271 7.86066C157.798 6.74114 157.006 5.78585 155.993 5.114C154.98 4.44215 153.792 4.08356 152.576 4.08301C151.738 4.06585 150.905 4.21936 150.127 4.53427C149.35 4.84919 148.645 5.31893 148.055 5.91487C147.464 6.51081 147.002 7.22055 146.694 8.00092C146.387 8.7813 146.242 9.616 146.267 10.4543H146.391ZM181.826 2.4838C180.434 1.09173 178.546 0.309684 176.577 0.309684L167.546 0.433426C167.475 0.423049 167.402 0.429455 167.333 0.452209C167.265 0.474962 167.202 0.513378 167.151 0.564435C167.1 0.615491 167.062 0.677793 167.039 0.746319C167.016 0.814844 167.01 0.887707 167.02 0.959162V20.135C167.011 20.196 167.015 20.2582 167.031 20.3178C167.046 20.3774 167.074 20.4333 167.111 20.4823C167.148 20.5312 167.195 20.5722 167.249 20.6028C167.302 20.6335 167.361 20.6533 167.422 20.6609H170.67C170.741 20.6712 170.814 20.6647 170.883 20.642C170.951 20.6192 171.013 20.5808 171.064 20.5298C171.116 20.4787 171.154 20.4164 171.177 20.3479C171.199 20.2793 171.206 20.2065 171.196 20.135V15.1555H176.577C178.546 15.1555 180.434 14.3734 181.826 12.9813C183.218 11.5893 184 9.70124 184 7.73257C184 5.76389 183.218 3.87586 181.826 2.4838ZM178.939 10.0945C178.313 10.7209 177.463 11.0729 176.577 11.0729H171.196V4.3923H176.577C177.463 4.3923 178.313 4.7442 178.939 5.37063C179.566 5.99705 179.917 6.84666 179.917 7.73257C179.917 8.61847 179.566 9.46808 178.939 10.0945Z" fill="#EFF6FF"/>
</svg>
