<svg width="184" height="21" viewBox="0 0 184 21" fill="none" xmlns="http://www.w3.org/2000/svg">
<path fill-rule="evenodd" clip-rule="evenodd" d="M116.049 3.09327C116.101 3.13379 116.143 3.18545 116.171 3.24438C116.2 3.30331 116.215 3.36803 116.215 3.43353C116.215 3.49904 116.2 3.56366 116.171 3.62259C116.143 3.68152 116.101 3.73318 116.049 3.7737L114.194 6.0625C114.152 6.1263 114.094 6.17864 114.027 6.21484C113.959 6.25104 113.884 6.26996 113.807 6.26996C113.731 6.26996 113.655 6.25104 113.588 6.21484C113.52 6.17864 113.463 6.1263 113.421 6.0625C111.61 4.63396 109.354 3.88921 107.049 3.95927C104.513 3.95927 103.152 4.67065 103.152 5.81501C103.152 6.95938 104.266 7.60889 107.637 7.94911C112.833 8.41304 116.575 10.176 116.575 14.3823C116.575 18.5887 112.802 20.7845 107.73 20.7845C104.359 20.948 101.049 19.8448 98.451 17.6916C98.1727 17.5061 98.1727 17.2587 98.451 16.9494L100.183 14.5988C100.226 14.5412 100.282 14.4944 100.347 14.4622C100.411 14.43 100.482 14.4132 100.554 14.4132C100.626 14.4132 100.697 14.43 100.762 14.4622C100.826 14.4944 100.882 14.5412 100.925 14.5988C102.866 16.182 105.32 16.9967 107.822 16.8876C110.915 16.8876 112.338 15.9596 112.338 14.5988C112.338 13.2379 110.946 12.5266 107.204 12.1863C102.224 11.7843 98.915 10.2997 98.915 6.00058C98.915 2.32006 102.441 0.000391972 107.297 0.000391972C110.486 -0.0237789 113.583 1.0706 116.049 3.09327ZM34.6228 1.89214C32.9375 0.721247 30.944 0.0739279 28.8923 0.0313015C27.5054 0.00248815 26.1267 0.25078 24.837 0.761669C23.5474 1.27256 22.3727 2.03573 21.3818 3.00648C20.3909 3.97723 19.6037 5.13609 19.0664 6.41498C18.5291 7.69388 18.2525 9.0671 18.2528 10.4543C18.2532 12.5064 18.8594 14.5129 19.9954 16.2219C21.1315 17.9309 22.7468 19.2666 24.6387 20.0615C26.5307 20.8563 28.6152 21.0749 30.6309 20.69C32.6466 20.3051 34.5039 19.3337 35.9698 17.8976C37.4357 16.4614 38.4452 14.6246 38.8714 12.6172C39.2977 10.6098 39.1219 8.5212 38.3661 6.61329C37.6103 4.70538 36.3081 3.06304 34.6228 1.89214ZM23.838 13.8389C23.1366 12.8464 22.743 11.6691 22.7065 10.4543H22.5828C22.5574 9.61596 22.7029 8.78125 23.0102 8.00088C23.3175 7.2205 23.7803 6.51077 24.3705 5.91483C24.9606 5.31889 25.6658 4.84914 26.4431 4.53423C27.2205 4.21931 28.0537 4.06581 28.8923 4.08296C30.1077 4.08351 31.296 4.44211 32.3088 5.11395C33.3216 5.7858 34.1142 6.74109 34.5873 7.86062C35.0605 8.98014 35.1933 10.2143 34.9693 11.4089C34.7453 12.6035 34.1743 13.7056 33.3276 14.5776C32.481 15.4496 31.3962 16.0529 30.2088 16.3121C29.0214 16.5714 27.7839 16.4751 26.6509 16.0352C25.5178 15.5953 24.5395 14.8314 23.838 13.8389ZM4.02194 0.328612C3.95341 0.305859 3.88055 0.299358 3.8091 0.309735L0.530655 0.433476C0.4592 0.4231 0.386244 0.429505 0.317718 0.452259C0.249192 0.475013 0.186985 0.51343 0.135929 0.564486C0.0848722 0.615542 0.0463617 0.677844 0.0236079 0.746369C0.000854179 0.814896 -0.00555192 0.887757 0.0048249 0.959212V20.1351C0.00341587 20.2047 0.0176642 20.2737 0.046544 20.337C0.0754238 20.4003 0.118237 20.4563 0.171701 20.5008C0.225166 20.5454 0.287888 20.5774 0.355379 20.5944C0.422869 20.6114 0.493333 20.6129 0.56152 20.599H15.8713C15.9428 20.6094 16.0156 20.603 16.0841 20.5802C16.1527 20.5575 16.215 20.519 16.266 20.468C16.3171 20.4169 16.3555 20.3546 16.3782 20.2861C16.401 20.2176 16.4074 20.1447 16.397 20.0733V16.9804C16.4074 16.9089 16.401 16.836 16.3782 16.7674C16.3555 16.6989 16.3171 16.6367 16.266 16.5857C16.215 16.5346 16.1527 16.4961 16.0841 16.4733C16.0156 16.4506 15.9428 16.4442 15.8713 16.4546H4.33483V0.835566C4.34521 0.764111 4.3388 0.691154 4.31605 0.622628C4.2933 0.554103 4.25488 0.491895 4.20382 0.440839C4.15277 0.389782 4.09047 0.351366 4.02194 0.328612ZM61.4912 9.55733C61.5627 9.54696 61.6355 9.55346 61.7041 9.57621C61.7726 9.59897 61.8349 9.63738 61.886 9.68844C61.937 9.7395 61.9754 9.8018 61.9982 9.87032C62.0209 9.93885 62.0273 10.0117 62.017 10.0832V20.135C62.0273 20.2065 62.0209 20.2793 61.9982 20.3479C61.9754 20.4164 61.937 20.4787 61.886 20.5297C61.8349 20.5808 61.7726 20.6192 61.7041 20.642C61.6355 20.6647 61.5627 20.6712 61.4912 20.6608H59.2953C58.9551 20.6608 58.7695 20.6608 58.7077 20.2896L58.3056 19.0834C56.704 20.4105 54.6605 21.0842 52.5837 20.9701C51.219 21.0025 49.8624 20.7513 48.5997 20.2325C47.3371 19.7137 46.1958 18.9385 45.2482 17.9559C44.3005 16.9733 43.567 15.8048 43.0941 14.5242C42.6213 13.2436 42.4192 11.8789 42.5009 10.5162C42.4709 9.13946 42.7215 7.77097 43.2374 6.49419C43.7533 5.21741 44.5238 4.05904 45.5019 3.08965C46.4799 2.12026 47.6452 1.36012 48.9265 0.8556C50.2078 0.351079 51.5784 0.112747 52.9549 0.155059C54.698 0.107652 56.4254 0.495743 57.9808 1.28421C59.5361 2.07268 60.8702 3.2366 61.8624 4.67063C61.9026 4.70825 61.9347 4.75374 61.9566 4.80429C61.9786 4.85483 61.99 4.90935 61.99 4.96446C61.99 5.01957 61.9786 5.07409 61.9566 5.12463C61.9347 5.17518 61.9026 5.22067 61.8624 5.25829L59.5117 6.95933C59.4755 7.01683 59.4253 7.0643 59.3658 7.09714C59.3063 7.12998 59.2395 7.14716 59.1716 7.14716C59.1036 7.14716 59.0367 7.12998 58.9772 7.09714C58.9177 7.0643 58.8675 7.01683 58.8313 6.95933C58.1819 6.05652 57.3202 5.32752 56.3223 4.83666C55.3244 4.3458 54.2211 4.10816 53.1096 4.1448C51.4321 4.12019 49.8135 4.76299 48.6099 5.93174C47.4064 7.10049 46.7164 8.69952 46.6918 10.377C46.6672 12.0545 47.31 13.6731 48.4787 14.8766C49.6475 16.0802 51.2464 16.7701 52.9239 16.7947C53.8335 16.864 54.7475 16.74 55.6057 16.4308C56.464 16.1216 57.247 15.6343 57.9035 15.0008V10.1141C57.8941 10.0455 57.9001 9.97564 57.9211 9.90968C57.9422 9.84373 57.9778 9.78332 58.0252 9.73289C58.0727 9.68248 58.1309 9.64334 58.1954 9.61831C58.26 9.59328 58.3293 9.58303 58.3984 9.58829L61.4912 9.55733ZM81.7273 1.89214C80.042 0.721247 78.0485 0.0739279 75.9968 0.0313015C74.6099 0.00248815 73.2312 0.25078 71.9416 0.761669C70.6519 1.27256 69.4771 2.03573 68.4862 3.00648C67.4953 3.97723 66.7082 5.13609 66.1709 6.41498C65.6336 7.69388 65.357 9.0671 65.3573 10.4543C65.3577 12.5064 65.964 14.5129 67.1 16.2219C68.236 17.9309 69.8512 19.2666 71.7432 20.0615C73.6351 20.8563 75.7197 21.0749 77.7354 20.69C79.7511 20.3051 81.6084 19.3337 83.0743 17.8976C84.5403 16.4614 85.5496 14.6246 85.9759 12.6172C86.4022 10.6098 86.2264 8.5212 85.4706 6.61329C84.7148 4.70538 83.4127 3.06304 81.7273 1.89214ZM70.9426 13.8389C70.2411 12.8464 69.8475 11.6691 69.8111 10.4543H69.6873C69.662 9.61596 69.8074 8.78125 70.1147 8.00088C70.422 7.2205 70.8848 6.51077 71.475 5.91483C72.0652 5.31889 72.7703 4.84914 73.5476 4.53423C74.325 4.21931 75.1583 4.06581 75.9968 4.08296C77.2122 4.08351 78.4005 4.44211 79.4133 5.11395C80.4262 5.7858 81.2186 6.74109 81.6917 7.86062C82.1649 8.98014 82.2977 10.2143 82.0737 11.4089C81.8497 12.6035 81.2788 13.7056 80.4321 14.5776C79.5855 15.4496 78.5008 16.0529 77.3133 16.3121C76.1259 16.5714 74.8884 16.4751 73.7554 16.0352C72.6224 15.5953 71.644 14.8314 70.9426 13.8389ZM124.397 0.328612C124.328 0.305859 124.255 0.299358 124.184 0.309735L120.905 0.433476C120.836 0.428215 120.767 0.438465 120.702 0.463491C120.638 0.488518 120.58 0.527658 120.532 0.578077C120.485 0.628497 120.449 0.68891 120.428 0.754865C120.407 0.82082 120.401 0.890619 120.41 0.959212V20.1351C120.401 20.2037 120.407 20.2735 120.428 20.3394C120.449 20.4054 120.485 20.4658 120.532 20.5162C120.58 20.5666 120.638 20.6058 120.702 20.6308C120.767 20.6558 120.836 20.6662 120.905 20.6609H124.184C124.255 20.6713 124.328 20.6648 124.397 20.642C124.465 20.6193 124.527 20.5809 124.578 20.5298C124.63 20.4788 124.668 20.4165 124.691 20.3479C124.713 20.2794 124.72 20.2065 124.71 20.1351V12.0936H133.988V20.1351C133.978 20.2065 133.984 20.2794 134.007 20.3479C134.03 20.4165 134.068 20.4788 134.119 20.5298C134.17 20.5809 134.233 20.6193 134.301 20.642C134.37 20.6648 134.442 20.6713 134.514 20.6609H137.762C137.833 20.6713 137.906 20.6648 137.974 20.642C138.043 20.6193 138.105 20.5809 138.156 20.5298C138.207 20.4788 138.246 20.4165 138.268 20.3479C138.291 20.2794 138.298 20.2065 138.287 20.1351V0.835566C138.298 0.764111 138.291 0.691154 138.268 0.622628C138.246 0.554103 138.207 0.491895 138.156 0.440839C138.105 0.389782 138.043 0.351366 137.974 0.328612C137.906 0.305859 137.833 0.299358 137.762 0.309735H134.514C134.442 0.299358 134.37 0.305859 134.301 0.328612C134.233 0.351366 134.17 0.389782 134.119 0.440839C134.068 0.491895 134.03 0.554103 134.007 0.622628C133.984 0.691154 133.978 0.764111 133.988 0.835566V8.01097H124.71V0.835566C124.72 0.764111 124.713 0.691154 124.691 0.622628C124.668 0.554103 124.63 0.491895 124.578 0.440839C124.527 0.389782 124.465 0.351366 124.397 0.328612ZM152.576 0.0313797C154.627 0.0800638 156.617 0.732461 158.298 1.90695C159.979 3.08143 161.277 4.72581 162.028 6.63413C162.779 8.54246 162.95 10.63 162.521 12.6353C162.091 14.6406 161.079 16.4745 159.612 17.9075C158.145 19.3406 156.288 20.309 154.273 20.6915C152.258 21.074 150.175 20.8537 148.285 20.0581C146.395 19.2624 144.782 17.9269 143.647 16.2186C142.512 14.5103 141.907 12.5052 141.906 10.4544C141.906 9.06452 142.183 7.68868 142.722 6.4077C143.262 5.12672 144.052 3.96649 145.046 2.99532C146.04 2.02415 147.218 1.2616 148.512 0.752592C149.805 0.243579 151.187 -0.00161265 152.576 0.0313797ZM146.391 10.4544C146.427 11.6692 146.821 12.8464 147.522 13.839C148.224 14.8315 149.202 15.5954 150.335 16.0353C151.468 16.4751 152.706 16.5714 153.893 16.3122C155.08 16.053 156.165 15.4497 157.012 14.5777C157.858 13.7056 158.429 12.6036 158.653 11.409C158.877 10.2144 158.745 8.98022 158.271 7.86069C157.798 6.74117 157.006 5.78588 155.993 5.11403C154.98 4.44218 153.792 4.08359 152.576 4.08304C151.738 4.06588 150.905 4.21939 150.127 4.53431C149.35 4.84922 148.645 5.31896 148.055 5.91491C147.464 6.51085 147.002 7.22058 146.694 8.00095C146.387 8.78133 146.242 9.61604 146.267 10.4544H146.391ZM181.826 2.4838C180.434 1.09174 178.546 0.309692 176.577 0.309692L167.546 0.433434C167.475 0.423057 167.402 0.429463 167.333 0.452217C167.265 0.474971 167.202 0.513387 167.151 0.564444C167.1 0.615499 167.062 0.677801 167.039 0.746327C167.016 0.814853 167.01 0.887714 167.02 0.95917V20.135C167.011 20.196 167.015 20.2582 167.031 20.3178C167.046 20.3774 167.074 20.4333 167.111 20.4823C167.148 20.5312 167.195 20.5722 167.249 20.6028C167.302 20.6335 167.361 20.6533 167.422 20.6609H170.67C170.741 20.6712 170.814 20.6647 170.883 20.642C170.951 20.6192 171.013 20.5808 171.064 20.5298C171.115 20.4787 171.154 20.4164 171.177 20.3479C171.199 20.2794 171.206 20.2065 171.196 20.135V15.1556H176.577C178.546 15.1556 180.434 14.3734 181.826 12.9813C183.218 11.5893 184 9.70125 184 7.73258C184 5.7639 183.218 3.87587 181.826 2.4838ZM178.939 10.0945C178.313 10.7209 177.463 11.0729 176.577 11.0729H171.196V4.39231H176.577C177.463 4.39231 178.313 4.74421 178.939 5.37063C179.565 5.99706 179.917 6.84667 179.917 7.73258C179.917 8.61848 179.565 9.46809 178.939 10.0945Z" fill="#1662FB"/>
</svg>
