<svg width="11" height="10" viewBox="0 0 11 10" fill="none" xmlns="http://www.w3.org/2000/svg">
<path d="M8.36177 9.9999C8.17559 9.99865 7.99233 9.95161 7.82696 9.86263L6.19473 8.96672C6.12932 8.93126 6.05664 8.91275 5.98288 8.91275C5.90912 8.91275 5.83645 8.93126 5.77104 8.96672L4.1388 9.86263C3.94947 9.96636 3.736 10.0129 3.52256 9.99693C3.30912 9.98098 3.10424 9.90317 2.93111 9.77233C2.75799 9.6415 2.62353 9.46285 2.54298 9.25663C2.46242 9.0504 2.43899 8.82483 2.47532 8.60546L2.78787 6.71249C2.80023 6.63675 2.79467 6.55901 2.77168 6.486C2.74869 6.41299 2.70895 6.3469 2.65591 6.29344L1.33276 4.95319C1.1808 4.79734 1.07354 4.60056 1.023 4.38489C0.972458 4.16922 0.980629 3.94317 1.0466 3.73206C1.11256 3.52094 1.23372 3.3331 1.39651 3.18956C1.55929 3.04602 1.75727 2.95245 1.96828 2.91933L3.79847 2.64478C3.87233 2.63408 3.94256 2.60479 4.00308 2.55946C4.0636 2.51414 4.11257 2.45414 4.14575 2.38467L4.96187 0.665102C5.05645 0.46548 5.20287 0.297388 5.38454 0.179844C5.56621 0.0623006 5.77588 0 5.98983 0C6.20377 0 6.41345 0.0623006 6.59512 0.179844C6.77679 0.297388 6.9232 0.46548 7.01779 0.665102L7.83391 2.38467C7.86709 2.45414 7.91606 2.51414 7.97658 2.55946C8.0371 2.60479 8.10733 2.63408 8.18119 2.64478L10.0114 2.91933C10.2228 2.95175 10.4213 3.04504 10.5845 3.18865C10.7477 3.33226 10.869 3.52047 10.9347 3.73203C11.0005 3.94358 11.008 4.17005 10.9566 4.38584C10.9051 4.60163 10.7966 4.79815 10.6434 4.95319L9.32375 6.29344C9.2707 6.3469 9.23097 6.41299 9.20797 6.486C9.18498 6.55901 9.17942 6.63675 9.19178 6.71249L9.50434 8.60546C9.53266 8.77656 9.52471 8.95202 9.48106 9.11959C9.4374 9.28716 9.35909 9.44278 9.2516 9.57559C9.1441 9.7084 9.01002 9.81518 8.85872 9.88847C8.70742 9.96176 8.54256 9.99979 8.37567 9.9999H8.36177ZM5.98288 8.19364C6.16912 8.19448 6.35247 8.24154 6.5177 8.33091L8.14993 9.22682C8.22492 9.26682 8.30912 9.28435 8.39314 9.27748C8.47716 9.27061 8.55769 9.2396 8.62576 9.1879C8.69382 9.1362 8.74674 9.06585 8.77862 8.9847C8.8105 8.90355 8.82008 8.81478 8.80629 8.72829L8.49374 6.83532C8.46243 6.64484 8.4761 6.4493 8.53357 6.26554C8.59104 6.08178 8.6906 5.9153 8.82366 5.78046L10.1468 4.44021C10.2074 4.37909 10.2503 4.30153 10.2707 4.21633C10.291 4.13113 10.288 4.0417 10.262 3.95819C10.2359 3.87468 10.1879 3.80044 10.1233 3.74388C10.0588 3.68732 9.9803 3.65072 9.89676 3.63822L8.07006 3.36367C7.88588 3.3354 7.71102 3.26116 7.56043 3.14729C7.40984 3.03342 7.288 2.88331 7.20532 2.7098L6.3892 0.986618C6.3513 0.908332 6.29324 0.842534 6.2215 0.79656C6.14975 0.750585 6.06715 0.726245 5.98288 0.726245C5.89862 0.726245 5.81601 0.750585 5.74426 0.79656C5.67252 0.842534 5.61447 0.908332 5.57656 0.986618L4.76044 2.7098C4.67776 2.88331 4.55592 3.03342 4.40533 3.14729C4.25475 3.26116 4.07988 3.3354 3.89571 3.36367L2.069 3.63822C1.98546 3.65072 1.90696 3.68732 1.84241 3.74388C1.77786 3.80044 1.72985 3.87468 1.70381 3.95819C1.67777 4.0417 1.67476 4.13113 1.69511 4.21633C1.71547 4.30153 1.75837 4.37909 1.81895 4.44021L3.1421 5.78046C3.27517 5.9153 3.37473 6.08178 3.4322 6.26554C3.48967 6.4493 3.50334 6.64484 3.47202 6.83532L3.15947 8.72829C3.14568 8.81478 3.15526 8.90355 3.18714 8.9847C3.21902 9.06585 3.27194 9.1362 3.34 9.1879C3.40807 9.2396 3.4886 9.27061 3.57262 9.27748C3.65664 9.28435 3.74084 9.26682 3.81583 9.22682L5.44806 8.33091C5.61389 8.23932 5.79861 8.19097 5.98635 8.19002L5.98288 8.19364Z" fill="#4B5563"/>
</svg>
