<svg width="10" height="10" viewBox="0 0 10 10" fill="none" xmlns="http://www.w3.org/2000/svg">
<path d="M5.7719 0.509962L6.64975 2.36672C6.71151 2.49673 6.80254 2.60924 6.91507 2.69464C7.0276 2.78005 7.1583 2.83581 7.29599 2.85718L9.26462 3.15301C9.42287 3.17829 9.57125 3.24896 9.69316 3.35709C9.81508 3.46522 9.90572 3.60657 9.95495 3.76532C10.0042 3.92406 10.0101 4.09395 9.97193 4.25598C9.93379 4.41801 9.85315 4.56579 9.73903 4.68279L8.31579 6.12693C8.21842 6.22705 8.14529 6.34985 8.10242 6.48521C8.05956 6.62057 8.04819 6.7646 8.06925 6.90544L8.40545 8.94515C8.4323 9.10981 8.41442 9.27902 8.35382 9.43365C8.29322 9.58827 8.19232 9.72215 8.06252 9.82015C7.93272 9.91815 7.77921 9.97635 7.61932 9.98819C7.45944 10 7.29957 9.96504 7.15778 9.88715L5.39835 8.92569C5.27498 8.8585 5.13785 8.82341 4.99865 8.82341C4.85945 8.82341 4.72231 8.8585 4.59895 8.92569L2.84325 9.88715C2.70146 9.96504 2.54158 10 2.3817 9.98819C2.22182 9.97635 2.0683 9.91815 1.93851 9.82015C1.80871 9.72215 1.70781 9.58827 1.64721 9.43365C1.58661 9.27902 1.56873 9.10981 1.59559 8.94515L1.93178 6.90544C1.95237 6.76429 1.94041 6.62006 1.89689 6.48468C1.85337 6.34931 1.77954 6.22667 1.6815 6.12693L0.262001 4.68279C0.146476 4.56641 0.0645835 4.41861 0.0256291 4.25616C-0.0133254 4.09372 -0.00778121 3.92315 0.0416289 3.76382C0.0910389 3.60449 0.18234 3.4628 0.305155 3.35483C0.42797 3.24686 0.577378 3.17694 0.736414 3.15301L2.7013 2.85718C2.83956 2.83609 2.97087 2.78047 3.08405 2.69507C3.19723 2.60967 3.28891 2.49702 3.35128 2.36672L4.22913 0.509962C4.29988 0.359638 4.40967 0.233003 4.54603 0.144435C4.68238 0.0558661 4.83984 0.00891113 5.00051 0.00891113C5.16119 0.00891113 5.31865 0.0558661 5.455 0.144435C5.59136 0.233003 5.70115 0.359638 5.7719 0.509962Z" fill="#FBBF24"/>
</svg>
