<svg width="23" height="21" viewBox="0 0 23 21" fill="none" xmlns="http://www.w3.org/2000/svg">
<path fill-rule="evenodd" clip-rule="evenodd" d="M5.49856 20.3173H17.4575C18.9092 20.3059 20.2978 19.7163 21.3211 18.6765C22.3445 17.6368 22.9198 16.2311 22.922 14.7653V5.56061C22.9221 4.09326 22.3477 2.68537 21.3241 1.64378C20.3005 0.602189 18.9107 0.0113396 17.4575 0H5.49856C4.03947 0.00227709 2.64091 0.589131 1.60997 1.6317C0.579036 2.67427 0 4.08733 0 5.56061V14.7653C0.00225115 16.237 0.582267 17.6479 1.61296 18.6886C2.64365 19.7293 4.04094 20.315 5.49856 20.3173ZM2.82267 2.86378C3.53363 2.14913 4.49537 1.74691 5.49856 1.74467L17.4235 1.71889C18.4311 1.72116 19.3966 2.12692 20.1083 2.84714C20.82 3.56735 21.2197 4.54321 21.2197 5.56061V5.73062H1.70234V5.56061C1.70907 4.54768 2.11171 3.57843 2.82267 2.86378ZM1.70234 7.81444H21.2197V14.7653C21.2197 15.7759 20.8244 16.7457 20.1199 17.4636C19.4153 18.1815 18.4584 18.5893 17.4575 18.5984H5.49856C4.49174 18.5984 3.52616 18.1945 2.81423 17.4757C2.1023 16.7568 1.70234 15.7819 1.70234 14.7653V7.81444ZM6.95834 15.6286H5.0237C4.79667 15.6286 4.57895 15.5463 4.41841 15.3998C4.25788 15.2532 4.16768 15.0544 4.16768 14.8472C4.16768 14.6399 4.25788 14.4412 4.41841 14.2946C4.57895 14.1481 4.79667 14.0658 5.0237 14.0658H6.95834C7.18537 14.0658 7.40309 14.1481 7.56363 14.2946C7.72416 14.4412 7.81436 14.6399 7.81436 14.8472C7.81436 15.0544 7.72416 15.2532 7.56363 15.3998C7.40309 15.5463 7.18537 15.6286 6.95834 15.6286ZM10.1888 15.6286H14.296C14.5113 15.6286 14.7177 15.5463 14.8699 15.3998C15.0221 15.2532 15.1077 15.0544 15.1077 14.8472C15.1077 14.6399 15.0221 14.4412 14.8699 14.2946C14.7177 14.1481 14.5113 14.0658 14.296 14.0658H10.1888C9.97357 14.0658 9.76711 14.1481 9.61488 14.2946C9.46266 14.4412 9.37716 14.6399 9.37716 14.8472C9.37716 15.0544 9.46266 15.2532 9.61488 15.3998C9.76711 15.5463 9.97357 15.6286 10.1888 15.6286Z" fill="#EF4444"/>
</svg>
