<svg width="23" height="23" viewBox="0 0 23 23" fill="none" xmlns="http://www.w3.org/2000/svg">
<path d="M16.9362 22.9969H16.6382C15.0474 22.8526 13.4986 22.4076 12.0743 21.6856H12.0277C9.09507 20.2536 6.49869 18.2188 4.40878 15.7147C2.80794 13.8598 1.5468 11.7379 0.683149 9.44613C0.170856 8.1972 -0.0581632 6.85052 0.0125342 5.50274C0.0941103 4.4017 0.578063 3.36899 1.37238 2.60099L2.96511 1.01061C3.27982 0.690592 3.65523 0.436406 4.06942 0.262889C4.48361 0.0893709 4.92828 0 5.37745 0C5.82662 0 6.27129 0.0893709 6.68548 0.262889C7.09967 0.436406 7.47508 0.690592 7.78979 1.01061C8.07853 1.28032 8.3859 1.59654 8.67464 1.88485L9.09376 2.31267L10.3605 3.57754C10.7008 3.88697 10.9727 4.26394 11.1588 4.68434C11.3448 5.10474 11.4409 5.55929 11.4409 6.01891C11.4409 6.47853 11.3448 6.93309 11.1588 7.35349C10.9727 7.77388 10.7008 8.15085 10.3605 8.46028L9.9786 8.8509L9.52219 9.31592C9.73698 9.66216 9.97341 9.99455 10.2301 10.3111C11.2101 11.5536 12.3867 12.628 13.7135 13.4918L14.5518 12.6548C14.8621 12.3222 15.2376 12.0569 15.6551 11.8755C16.0725 11.6941 16.5229 11.6005 16.9781 11.6005C17.4334 11.6005 17.8837 11.6941 18.3012 11.8755C18.7186 12.0569 19.0942 12.3222 19.4044 12.6548L21.9472 15.1845C22.2796 15.4967 22.5445 15.8736 22.7255 16.2918C22.9066 16.7101 23 17.1609 23 17.6166C23 18.0723 22.9066 18.5231 22.7255 18.9414C22.5445 19.3596 22.2796 19.7365 21.9472 20.0487L21.3138 20.6811C21.0158 20.9694 20.8016 21.1833 20.606 21.4065L20.5314 21.4996C20.076 21.9935 19.5188 22.3832 18.8981 22.6416C18.2775 22.9001 17.6082 23.0213 16.9362 22.9969ZM12.9125 19.9836C14.0739 20.5909 15.3364 20.9817 16.6382 21.1368H16.899C17.3083 21.1508 17.7157 21.0747 18.0923 20.914C18.469 20.7533 18.8056 20.5118 19.0784 20.2068C19.331 19.9143 19.5984 19.635 19.8795 19.3697C20.1775 19.0907 20.3638 18.9047 20.5221 18.7373C20.8366 18.437 21.0233 18.0274 21.0437 17.5934C21.037 17.3817 20.9873 17.1737 20.8977 16.9818C20.808 16.79 20.6803 16.6183 20.5221 16.4773L17.9794 13.929C17.8439 13.7669 17.6744 13.6364 17.4829 13.547C17.2913 13.4575 17.0825 13.4111 16.871 13.4111C16.6596 13.4111 16.4507 13.4575 16.2591 13.547C16.0676 13.6364 15.8981 13.7669 15.7626 13.929L14.4401 15.2589C14.2999 15.399 14.1186 15.4908 13.9226 15.5209C13.7266 15.5511 13.5261 15.5179 13.3503 15.4263L13.2106 15.3519L12.6517 15.0543C11.1391 14.0744 9.79597 12.8557 8.67464 11.4457C8.18531 10.8459 7.76363 10.194 7.41723 9.50194C7.3323 9.32368 7.30638 9.12305 7.34322 8.92909C7.38005 8.73514 7.47774 8.55792 7.62214 8.42309C7.94814 8.11617 8.2555 7.80925 8.55355 7.49304L8.94473 7.09312C9.11216 6.95707 9.24715 6.78547 9.33985 6.59081C9.43255 6.39615 9.48064 6.18331 9.48064 5.96776C9.48064 5.75221 9.43255 5.53936 9.33985 5.3447C9.24715 5.15004 9.11216 4.97845 8.94473 4.8424L7.6687 3.57754L7.24026 3.13111C6.97016 2.8521 6.68143 2.56378 6.402 2.29407C6.26216 2.13573 6.09015 2.00891 5.89744 1.92205C5.70474 1.83518 5.49573 1.79027 5.2843 1.79027C5.07287 1.79027 4.86387 1.83518 4.67116 1.92205C4.47846 2.00891 4.30645 2.13573 4.1666 2.29407L2.58323 3.87515C2.10575 4.33015 1.8166 4.94745 1.77291 5.60504C1.72354 6.68042 1.91113 7.75351 2.32243 8.74859C3.1257 10.8405 4.28882 12.7762 5.75933 14.4684C7.68818 16.7885 10.0924 18.6691 12.8101 19.9836H12.9125Z" fill="#EF4444"/>
</svg>
