<svg width="21" height="24" viewBox="0 0 21 24" fill="none" xmlns="http://www.w3.org/2000/svg">
<path fill-rule="evenodd" clip-rule="evenodd" d="M13.4339 0.622945L18.367 3.53001C19.0122 3.91757 19.5465 4.46003 19.9194 5.10634C20.2924 5.75265 20.4918 6.48154 20.4988 7.2244V13.9729C20.4974 14.5721 20.3708 15.1646 20.1268 15.7137C19.8829 16.2629 19.5267 16.757 19.0805 17.1655L13.8038 22.0366C12.9857 22.7844 11.9088 23.1989 10.7911 23.1959H9.82214C8.70451 23.1989 7.62754 22.7844 6.80943 22.0366L1.46231 17.1655C1.01342 16.7658 0.652227 16.2803 0.400802 15.7388C0.149377 15.1973 0.0129972 14.6112 0 14.0162V7.26766C0.00219265 6.51598 0.201025 5.77746 0.577411 5.12296C0.953796 4.46846 1.49511 3.91993 2.14942 3.53001L7.10894 0.622945C7.7973 0.214629 8.58633 -0.000805961 9.39049 2.26576e-06H11.1523C11.9565 -0.000805961 12.7455 0.214629 13.4339 0.622945ZM18.5302 15.0683C18.682 14.7375 18.7614 14.379 18.7634 14.0162L18.6929 7.26766C18.6914 6.81397 18.5716 6.36824 18.3449 5.97293C18.1182 5.57763 17.7922 5.24594 17.3979 5.00949L12.4561 2.10243C12.0404 1.85916 11.5657 1.73062 11.0818 1.7304H9.32002C8.83619 1.73062 8.36141 1.85916 7.9458 2.10243L3.0039 5.00949C2.60909 5.24532 2.28263 5.57687 2.05587 5.97231C1.8291 6.36776 1.70964 6.81381 1.70897 7.26766V14.0162C1.71095 14.379 1.79036 14.7375 1.9421 15.0683C2.09383 15.3991 2.3145 15.695 2.58987 15.9369L7.937 20.808C8.42882 21.2602 9.07794 21.5109 9.75167 21.5088H10.7207C11.3944 21.5109 12.0435 21.2602 12.5353 20.808L17.8825 15.9369C18.1578 15.695 18.3785 15.3991 18.5302 15.0683ZM8.59987 12.5164L13.0162 7.82834L12.9982 7.82001C13.1574 7.661 13.3775 7.56537 13.6118 7.55339C13.8462 7.54141 14.0764 7.61402 14.2536 7.75583C14.4309 7.89764 14.5414 8.09751 14.5616 8.31311C14.5818 8.5287 14.5102 8.74309 14.3619 8.91084L9.31335 14.2817C9.23177 14.3675 9.13196 14.4368 9.0201 14.4855C8.90825 14.5342 8.78672 14.5612 8.66308 14.5648C8.42615 14.5639 8.19911 14.4772 8.03089 14.3234L5.5924 12.0834C5.45389 11.9238 5.38389 11.7228 5.39575 11.5186C5.40761 11.3145 5.5005 11.1215 5.65672 10.9765C5.81294 10.8314 6.02157 10.7444 6.24288 10.732C6.46418 10.7196 6.6827 10.7827 6.8568 10.9093L8.59987 12.5164Z" fill="#EF4444"/>
</svg>
