<svg width="24" height="26" viewBox="0 0 24 26" fill="none" xmlns="http://www.w3.org/2000/svg">
<path fill-rule="evenodd" clip-rule="evenodd" d="M5.15561 10.7231C4.30082 10.7333 3.45765 10.5172 2.70353 10.0953V14.6866H15.0606V5.95092C15.0606 5.80384 15.0985 5.66071 15.1688 5.53491V3.65512H10.1894C10.3919 4.21239 10.4943 4.79998 10.4922 5.39171C10.4926 6.28988 10.2549 7.17264 9.80256 7.95298C9.35358 8.72749 8.70853 9.37456 7.93019 9.83144C7.11305 10.4008 6.15038 10.7147 5.15561 10.7231ZM0.772836 8.19995C0.850589 8.33101 0.933506 8.45818 1.02129 8.58114V15.5135L1.02154 15.5337L1.02129 15.5543V19.7775C1.02129 20.625 1.35342 21.438 1.94487 22.0381C2.53633 22.6381 3.33881 22.9764 4.17636 22.9786H5.25534C5.29028 23.0959 5.33133 23.2116 5.37844 23.3253C5.64898 23.9784 6.10717 24.5367 6.69499 24.9295C7.28281 25.3222 7.97387 25.5319 8.68083 25.5319C9.62816 25.5297 10.5361 25.1524 11.206 24.4825C11.629 24.0595 11.9353 23.5415 12.1042 22.9786H13.9362C13.9712 23.0959 14.0122 23.2116 14.0593 23.3253C14.3299 23.9784 14.788 24.5367 15.3758 24.9295C15.9637 25.3222 16.6548 25.5319 17.3617 25.5319C18.3097 25.5319 19.2189 25.1553 19.8892 24.4849C20.3128 24.0614 20.6191 23.5424 20.7872 22.9786H20.8449C21.6825 22.9764 22.485 22.6381 23.0764 22.0381C23.6679 21.438 24 20.625 24 19.7775V13.485C24.0007 12.6401 23.7602 11.813 23.3072 11.1032L20.2189 6.25499C19.9972 5.90285 19.6912 5.61297 19.3294 5.41219C18.9676 5.21141 18.5615 5.1062 18.1489 5.1063H16.8511V2.86953C16.8511 2.65021 16.7625 2.43987 16.6048 2.28479C16.447 2.12971 16.233 2.04258 16.01 2.04258H9.10129C8.604 1.37902 7.96397 0.847588 7.2327 0.492866C6.43808 0.107411 5.5625 -0.0564145 4.69024 0.0171611C3.81798 0.0907366 2.97841 0.399236 2.25235 0.912961C1.52629 1.42669 0.938191 2.12834 0.544649 2.95038C0.151107 3.77242 -0.0346474 4.68718 0.00532017 5.60659C0.0452877 6.52601 0.309615 7.41911 0.772836 8.19995ZM6.46042 8.68608C6.66974 8.61062 6.87037 8.51651 7.06005 8.40547C7.25317 8.27126 7.4344 8.11609 7.60051 7.94138C8.24909 7.25921 8.61439 6.33465 8.61654 5.36993C8.61227 4.40509 8.24656 3.48092 7.59867 2.79787C6.95077 2.11483 6.07293 1.72798 5.15561 1.72122C4.23555 1.72122 3.35319 2.10564 2.70261 2.7899C2.05203 3.47416 1.68658 4.40223 1.68658 5.36993C1.69012 6.16549 1.94 6.93325 2.39143 7.56037C2.43116 7.59198 2.46807 7.62724 2.50162 7.66581C2.97662 8.21288 3.61061 8.60388 4.3183 8.78627C5.026 8.96866 5.77353 8.93369 6.46042 8.68608ZM15.8952 16.3736C15.9919 16.3736 16.0869 16.3567 16.1762 16.3244C16.3307 16.2939 16.4745 16.2212 16.5903 16.113C16.7469 15.9668 16.8403 15.7669 16.8511 15.5549V6.79555H18.1489C18.2814 6.79941 18.411 6.83513 18.5272 6.89975C18.6433 6.96438 18.7425 7.05605 18.8166 7.16719L19.8729 8.82544L18.713 9.87915C18.4439 10.1299 18.2304 10.4321 18.0859 10.7668C17.9413 11.1015 17.8686 11.4617 17.8724 11.8249V13.705C17.8724 14.404 18.1567 15.0743 18.6627 15.5686C19.1687 16.0628 19.855 16.3405 20.5706 16.3405H22.3306V19.7775C22.3316 20.1601 22.1892 20.5289 21.9321 20.8095C21.675 21.0901 21.3223 21.2616 20.9451 21.2894C20.8282 20.7985 20.6125 20.341 20.315 19.9438C19.9233 19.3693 19.3724 18.9213 18.7296 18.655C18.0764 18.3845 17.3577 18.3137 16.6643 18.4516C15.971 18.5895 15.3341 18.93 14.8342 19.4299C14.3343 19.9298 13.9938 20.5667 13.8559 21.26L13.8502 21.2894H12.1923C12.1031 20.8206 11.9205 20.3721 11.6529 19.9715C11.2601 19.3837 10.7019 18.9256 10.0487 18.655C9.39556 18.3845 8.67688 18.3137 7.9835 18.4516C7.80269 18.4876 7.62573 18.5373 7.45403 18.6001C7.00567 18.7302 6.58348 18.9482 6.21277 19.2451C5.57724 19.7543 5.13025 20.4657 4.94425 21.264H4.17636C3.78155 21.2618 3.40365 21.1015 3.12526 20.8182C2.84687 20.5349 2.69065 20.1517 2.69065 19.7521V16.3736H15.8952ZM15.489 22.3611C15.5665 22.7211 15.7463 23.0513 16.0071 23.3121C16.275 23.58 16.6163 23.7624 16.9879 23.8364C17.3596 23.9103 17.7448 23.8723 18.0948 23.7273C18.4449 23.5823 18.7441 23.3368 18.9546 23.0217C19.1651 22.7067 19.2775 22.3363 19.2775 21.9574C19.276 21.6207 19.1864 21.2934 19.0214 21.0065C18.9589 20.9172 18.8887 20.8328 18.8112 20.7544C18.4496 20.3885 17.9592 20.1829 17.4478 20.1829C16.9364 20.1829 16.446 20.3885 16.0844 20.7544C15.7228 21.1203 15.5197 21.6165 15.5197 22.134C15.5197 22.2114 15.5092 22.2878 15.489 22.3611ZM8.44574 20.303C7.96589 20.303 7.50358 20.4833 7.14804 20.8081C7.0524 20.9357 6.97255 21.0754 6.91088 21.2243C6.76588 21.5743 6.72793 21.9595 6.80185 22.3311C6.87577 22.7028 7.05823 23.0441 7.32616 23.3121C7.59409 23.58 7.93548 23.7624 8.30711 23.8364C8.67873 23.9103 9.06393 23.8723 9.414 23.7273C9.76406 23.5823 10.0633 23.3368 10.2738 23.0217C10.3683 22.8803 10.443 22.7276 10.4967 22.5681C10.4197 22.438 10.378 22.2882 10.378 22.134C10.3458 21.6376 10.1282 21.1722 9.76933 20.8322C9.41051 20.4922 8.93732 20.303 8.44574 20.303ZM22.3306 14.6985V13.485C22.3299 12.9641 22.1822 12.4543 21.905 12.0153L20.7774 10.2452L19.8477 11.0942C19.7435 11.1867 19.6605 11.2995 19.604 11.4254C19.5475 11.5513 19.5188 11.6875 19.5199 11.8249V13.705C19.5199 13.8355 19.5462 13.9647 19.5973 14.0852C19.6484 14.2057 19.7234 14.3153 19.8178 14.4075C19.9123 14.4997 20.0243 14.5729 20.1477 14.6228C20.2711 14.6728 20.4034 14.6985 20.537 14.6985H22.3306ZM3.95761 7.51379C4.09943 7.6098 4.26604 7.66052 4.43622 7.65951C4.54959 7.65903 4.66173 7.6356 4.76616 7.59058C4.87058 7.54555 4.96523 7.47982 5.04458 7.3972L6.3898 6.01569C6.46921 5.93399 6.53202 5.83709 6.57466 5.73056C6.6173 5.62403 6.63891 5.50995 6.63825 5.39488V3.42753C6.63825 3.19563 6.54802 2.97322 6.38734 2.80925C6.22665 2.64527 6.00868 2.55315 5.78144 2.55315C5.55419 2.55315 5.33627 2.64527 5.17559 2.80925C5.0149 2.97322 4.92462 3.19563 4.92462 3.42753V5.03638L3.82792 6.16433C3.70708 6.28663 3.62465 6.44289 3.59117 6.61317C3.5577 6.78345 3.5747 6.96005 3.63996 7.12045C3.70522 7.28085 3.81579 7.41779 3.95761 7.51379Z" fill="#EF4444"/>
</svg>
