<svg width="8" height="18" viewBox="0 0 8 18" fill="none" xmlns="http://www.w3.org/2000/svg">
<path d="M0.77391 6.31725e-07C0.885664 0.000939037 0.995869 0.0261885 1.09687 0.0739809C1.19787 0.121771 1.28715 0.190957 1.35867 0.27674L7.44576 7.50269C7.80344 7.92041 8 8.45201 8 9.00169C8 9.55136 7.80344 10.083 7.44577 10.5007L1.35868 17.7266C1.22704 17.8826 1.03883 17.9799 0.835347 17.9972C0.631861 18.0145 0.429824 17.9504 0.273692 17.8189C0.117559 17.6874 0.0200924 17.4993 0.00277465 17.296C-0.0145436 17.0928 0.0497097 16.8909 0.181351 16.735L6.26835 9.50904C6.39172 9.36876 6.45979 9.18841 6.45979 9.00169C6.45979 8.81496 6.39172 8.63461 6.26835 8.49433L0.181349 1.26839C0.116552 1.19071 0.0676703 1.10103 0.0376243 1.00447C0.00757783 0.90792 -0.00304372 0.806391 0.00624887 0.705706C0.0155415 0.605023 0.0446137 0.507157 0.0918263 0.41772C0.139039 0.32828 0.203471 0.24903 0.281393 0.184497C0.418773 0.0671222 0.593145 0.00180309 0.77391 6.31725e-07Z" fill="#4B5563"/>
</svg>
