<svg width="20" height="20" viewBox="0 0 20 20" fill="none" xmlns="http://www.w3.org/2000/svg">
<path fill-rule="evenodd" clip-rule="evenodd" d="M4.05945 17.079C5.55879 18.1003 7.3202 18.6423 9.12039 18.6363C11.5225 18.6283 13.8239 17.6462 15.5218 15.9044C17.2197 14.1627 18.176 11.803 18.1818 9.34079C18.1862 7.49558 17.656 5.69059 16.6584 4.15459C15.6608 2.6186 14.2408 1.42076 12.5784 0.712906C10.9159 0.00505335 9.08581 -0.180931 7.3201 0.178505C5.55437 0.537942 3.9325 1.42663 2.66008 2.73192C1.38766 4.03721 0.521981 5.70033 0.172746 7.51048C-0.176489 9.32064 0.00644611 11.1963 0.698385 12.8998C1.39032 14.6032 2.56011 16.0578 4.05945 17.079ZM4.88186 2.81788C6.1381 1.96424 7.61318 1.51176 9.12039 1.51773V1.53285C11.135 1.54282 13.0638 2.36959 14.4856 3.83257C15.9074 5.29555 16.7065 7.27582 16.7084 9.34079C16.7055 10.8857 16.2555 12.395 15.4154 13.6776C14.5753 14.9603 13.3828 15.9587 11.989 16.5464C10.5951 17.1342 9.06241 17.2849 7.58494 16.9795C6.10746 16.674 4.75159 15.9262 3.68892 14.8306C2.62625 13.735 1.90457 12.3409 1.61517 10.8248C1.32578 9.30862 1.48168 7.73855 2.06318 6.31326C2.64468 4.88796 3.62562 3.67152 4.88186 2.81788ZM18.5476 19.946C18.6363 19.9822 18.7314 20.0005 18.8272 20V19.9927C18.9698 19.9907 19.1087 19.947 19.2266 19.867C19.3445 19.7869 19.4363 19.6741 19.4906 19.5425C19.5449 19.4109 19.5593 19.2662 19.532 19.1265C19.5048 18.9868 19.437 18.8582 19.3372 18.7565L17.1518 16.5751C17.0153 16.4396 16.8306 16.3636 16.6382 16.3636C16.4457 16.3636 16.2611 16.4396 16.1246 16.5751C16.0563 16.6427 16.0021 16.7231 15.9651 16.8117C15.9282 16.9003 15.9091 16.9954 15.9091 17.0914C15.9091 17.1874 15.9282 17.2824 15.9651 17.371C16.0021 17.4596 16.0563 17.54 16.1246 17.6076L18.31 19.7891C18.3781 19.8565 18.4588 19.9098 18.5476 19.946Z" fill="#4B5563"/>
</svg>
