<svg width="19" height="18" viewBox="0 0 19 18" fill="none" xmlns="http://www.w3.org/2000/svg">
<path d="M13.5217 17.4462C13.1968 17.444 12.8771 17.3619 12.5886 17.2067L9.74095 15.6436C9.62683 15.5818 9.50005 15.5495 9.37137 15.5495C9.24268 15.5495 9.1159 15.5818 9.00178 15.6436L6.15412 17.2067C5.82381 17.3876 5.45138 17.4688 5.079 17.441C4.70663 17.4131 4.34919 17.2774 4.04715 17.0491C3.74511 16.8209 3.51053 16.5092 3.36999 16.1494C3.22946 15.7896 3.18857 15.3961 3.25195 15.0134L3.79724 11.7108C3.8188 11.5787 3.8091 11.4431 3.76899 11.3157C3.72888 11.1883 3.65956 11.073 3.56702 10.9797L1.25861 8.64149C0.993487 8.36959 0.806364 8.02628 0.718189 7.65002C0.630014 7.27375 0.644268 6.87938 0.759357 6.51107C0.874446 6.14275 1.08582 5.81504 1.36982 5.56461C1.65382 5.31419 1.99922 5.15094 2.36736 5.09315L5.56036 4.61416C5.68922 4.59549 5.81175 4.5444 5.91733 4.46532C6.02291 4.38625 6.10835 4.28158 6.16624 4.16038L7.59007 1.16036C7.75508 0.812091 8.01052 0.518832 8.32747 0.313762C8.64442 0.108692 9.01022 0 9.38348 0C9.75673 0 10.1225 0.108692 10.4395 0.313762C10.7564 0.518832 11.0119 0.812091 11.1769 1.16036L12.6007 4.16038C12.6586 4.28158 12.744 4.38625 12.8496 4.46532C12.9552 4.5444 13.0777 4.59549 13.2066 4.61416L16.3996 5.09315C16.7685 5.14972 17.1148 5.31247 17.3995 5.56302C17.6842 5.81357 17.8958 6.14193 18.0105 6.51102C18.1252 6.8801 18.1384 7.27521 18.0486 7.65168C17.9588 8.02816 17.7696 8.371 17.5023 8.64149L15.1999 10.9797C15.1074 11.073 15.0381 11.1883 14.998 11.3157C14.9578 11.4431 14.9482 11.5787 14.9697 11.7108L15.515 15.0134C15.5644 15.3119 15.5506 15.618 15.4744 15.9103C15.3982 16.2027 15.2616 16.4742 15.0741 16.7059C14.8865 16.9376 14.6526 17.1239 14.3886 17.2517C14.1247 17.3796 13.8371 17.446 13.5459 17.4462H13.5217ZM9.37137 14.2949C9.69627 14.2964 10.0161 14.3785 10.3044 14.5344L13.1521 16.0974C13.2829 16.1672 13.4298 16.1978 13.5764 16.1858C13.723 16.1738 13.8635 16.1197 13.9822 16.0295C14.101 15.9393 14.1933 15.8166 14.2489 15.675C14.3045 15.5334 14.3212 15.3785 14.2972 15.2277L13.7519 11.9251C13.6973 11.5928 13.7211 11.2517 13.8214 10.9311C13.9216 10.6105 14.0953 10.32 14.3275 10.0848L16.6359 7.74653C16.7416 7.6399 16.8164 7.50458 16.8519 7.35594C16.8875 7.2073 16.8822 7.05128 16.8368 6.90559C16.7914 6.7599 16.7076 6.63036 16.595 6.53169C16.4823 6.43302 16.3454 6.36916 16.1996 6.34737L13.0127 5.86837C12.6914 5.81905 12.3863 5.68952 12.1236 5.49086C11.8609 5.2922 11.6483 5.03032 11.5041 4.72761L10.0802 1.72129C10.0141 1.5847 9.91283 1.46991 9.78766 1.3897C9.66249 1.3095 9.51838 1.26703 9.37137 1.26703C9.22435 1.26703 9.08023 1.3095 8.95506 1.3897C8.8299 1.46991 8.72861 1.5847 8.66249 1.72129L7.23866 4.72761C7.09441 5.03032 6.88184 5.2922 6.61912 5.49086C6.3564 5.68952 6.05133 5.81905 5.73001 5.86837L2.54307 6.34737C2.39733 6.36916 2.26038 6.43302 2.14777 6.53169C2.03515 6.63036 1.95138 6.7599 1.90595 6.90559C1.86053 7.05128 1.85527 7.2073 1.89078 7.35594C1.92629 7.50458 2.00114 7.6399 2.10684 7.74653L4.41525 10.0848C4.64739 10.32 4.82109 10.6105 4.92136 10.9311C5.02163 11.2517 5.04546 11.5928 4.99083 11.9251L4.44554 15.2277C4.42149 15.3785 4.4382 15.5334 4.49382 15.675C4.54943 15.8166 4.64176 15.9393 4.76051 16.0295C4.87926 16.1197 5.01976 16.1738 5.16634 16.1858C5.31292 16.1978 5.45982 16.1672 5.59066 16.0974L8.4383 14.5344C8.7276 14.3746 9.04987 14.2902 9.37742 14.2886L9.37137 14.2949Z" fill="#4B5563"/>
</svg>
